%TF.GenerationSoftware,KiCad,Pcbnew,5.1.6+dfsg1-1*%
%TF.CreationDate,2020-08-05T10:23:58+08:00*%
%TF.ProjectId,stm32dev-analog,73746d33-3264-4657-962d-616e616c6f67,rev?*%
%TF.SameCoordinates,Original*%
%TF.FileFunction,Copper,L2,Bot*%
%TF.FilePolarity,Positive*%
%FSLAX46Y46*%
G04 Gerber Fmt 4.6, Leading zero omitted, Abs format (unit mm)*
G04 Created by KiCad (PCBNEW 5.1.6+dfsg1-1) date 2020-08-05 10:23:58*
%MOMM*%
%LPD*%
G01*
G04 APERTURE LIST*
%TA.AperFunction,ComponentPad*%
%ADD10R,2.000000X1.000000*%
%TD*%
%TA.AperFunction,ComponentPad*%
%ADD11R,1.800000X1.000000*%
%TD*%
%TA.AperFunction,ComponentPad*%
%ADD12O,1.700000X1.700000*%
%TD*%
%TA.AperFunction,ComponentPad*%
%ADD13R,1.700000X1.700000*%
%TD*%
%TA.AperFunction,ComponentPad*%
%ADD14R,1.800000X1.800000*%
%TD*%
%TA.AperFunction,ComponentPad*%
%ADD15C,1.800000*%
%TD*%
%TA.AperFunction,ComponentPad*%
%ADD16O,2.720000X3.600000*%
%TD*%
%TA.AperFunction,ViaPad*%
%ADD17C,0.800000*%
%TD*%
%TA.AperFunction,Conductor*%
%ADD18C,0.250000*%
%TD*%
%TA.AperFunction,Conductor*%
%ADD19C,0.200000*%
%TD*%
%TA.AperFunction,Conductor*%
%ADD20C,0.254000*%
%TD*%
G04 APERTURE END LIST*
D10*
%TO.P,J9,T*%
%TO.N,Net-(J9-PadT)*%
X132334000Y-96360000D03*
%TO.P,J9,TN*%
%TO.N,N/C*%
X132334000Y-88060000D03*
D11*
%TO.P,J9,S*%
%TO.N,GNDD*%
X132334000Y-85725000D03*
%TD*%
D12*
%TO.P,J8,16*%
%TO.N,N/C*%
X153670000Y-73660000D03*
%TO.P,J8,15*%
X151130000Y-73660000D03*
%TO.P,J8,14*%
X153670000Y-71120000D03*
%TO.P,J8,13*%
X151130000Y-71120000D03*
%TO.P,J8,12*%
%TO.N,+5V*%
X153670000Y-68580000D03*
%TO.P,J8,11*%
X151130000Y-68580000D03*
%TO.P,J8,10*%
%TO.N,+12V*%
X153670000Y-66040000D03*
%TO.P,J8,9*%
X151130000Y-66040000D03*
%TO.P,J8,8*%
%TO.N,GNDD*%
X153670000Y-63500000D03*
%TO.P,J8,7*%
X151130000Y-63500000D03*
%TO.P,J8,6*%
X153670000Y-60960000D03*
%TO.P,J8,5*%
X151130000Y-60960000D03*
%TO.P,J8,4*%
X153670000Y-58420000D03*
%TO.P,J8,3*%
X151130000Y-58420000D03*
%TO.P,J8,2*%
%TO.N,-12V*%
X153670000Y-55880000D03*
D13*
%TO.P,J8,1*%
X151130000Y-55880000D03*
%TD*%
D12*
%TO.P,J4,20*%
%TO.N,GNDD*%
X153670000Y-28956000D03*
%TO.P,J4,19*%
%TO.N,+5V*%
X151130000Y-28956000D03*
%TO.P,J4,18*%
%TO.N,PB10*%
X148590000Y-28956000D03*
%TO.P,J4,17*%
%TO.N,PB11*%
X146050000Y-28956000D03*
%TO.P,J4,16*%
%TO.N,PB12*%
X143510000Y-28956000D03*
%TO.P,J4,15*%
%TO.N,PB13*%
X140970000Y-28956000D03*
%TO.P,J4,14*%
%TO.N,PB14*%
X138430000Y-28956000D03*
%TO.P,J4,13*%
%TO.N,N/C*%
X135890000Y-28956000D03*
%TO.P,J4,12*%
X133350000Y-28956000D03*
%TO.P,J4,11*%
X130810000Y-28956000D03*
%TO.P,J4,10*%
X128270000Y-28956000D03*
%TO.P,J4,9*%
X125730000Y-28956000D03*
%TO.P,J4,8*%
X123190000Y-28956000D03*
%TO.P,J4,7*%
X120650000Y-28956000D03*
%TO.P,J4,6*%
X118110000Y-28956000D03*
%TO.P,J4,5*%
X115570000Y-28956000D03*
%TO.P,J4,4*%
X113030000Y-28956000D03*
%TO.P,J4,3*%
X110490000Y-28956000D03*
%TO.P,J4,2*%
X107950000Y-28956000D03*
D13*
%TO.P,J4,1*%
X105410000Y-28956000D03*
%TD*%
D12*
%TO.P,J3,20*%
%TO.N,GNDD*%
X153670000Y-49276000D03*
%TO.P,J3,19*%
%TO.N,+3V3*%
X151130000Y-49276000D03*
%TO.P,J3,18*%
%TO.N,N/C*%
X148590000Y-49276000D03*
%TO.P,J3,17*%
X146050000Y-49276000D03*
%TO.P,J3,16*%
X143510000Y-49276000D03*
%TO.P,J3,15*%
X140970000Y-49276000D03*
%TO.P,J3,14*%
X138430000Y-49276000D03*
%TO.P,J3,13*%
%TO.N,PA7*%
X135890000Y-49276000D03*
%TO.P,J3,12*%
%TO.N,PA6*%
X133350000Y-49276000D03*
%TO.P,J3,11*%
%TO.N,PA5*%
X130810000Y-49276000D03*
%TO.P,J3,10*%
%TO.N,PA4*%
X128270000Y-49276000D03*
%TO.P,J3,9*%
%TO.N,N/C*%
X125730000Y-49276000D03*
%TO.P,J3,8*%
X123190000Y-49276000D03*
%TO.P,J3,7*%
%TO.N,PA1*%
X120650000Y-49276000D03*
%TO.P,J3,6*%
%TO.N,PA0*%
X118110000Y-49276000D03*
%TO.P,J3,5*%
%TO.N,N/C*%
X115570000Y-49276000D03*
%TO.P,J3,4*%
X113030000Y-49276000D03*
%TO.P,J3,3*%
X110490000Y-49276000D03*
%TO.P,J3,2*%
X107950000Y-49276000D03*
D13*
%TO.P,J3,1*%
X105410000Y-49276000D03*
%TD*%
D14*
%TO.P,RV2,1*%
%TO.N,+3V3*%
X137160000Y-67310000D03*
D15*
%TO.P,RV2,2*%
%TO.N,Net-(RV2-Pad2)*%
X139660000Y-67310000D03*
%TO.P,RV2,3*%
%TO.N,GNDA*%
X142160000Y-67310000D03*
D16*
%TO.P,RV2,*%
%TO.N,*%
X144460000Y-59810000D03*
X134860000Y-59810000D03*
%TD*%
D14*
%TO.P,RV1,1*%
%TO.N,+3V3*%
X137160000Y-82550000D03*
D15*
%TO.P,RV1,2*%
%TO.N,Net-(RV1-Pad2)*%
X139660000Y-82550000D03*
%TO.P,RV1,3*%
%TO.N,GNDA*%
X142160000Y-82550000D03*
D16*
%TO.P,RV1,*%
%TO.N,*%
X144460000Y-75050000D03*
X134860000Y-75050000D03*
%TD*%
D10*
%TO.P,J7,T*%
%TO.N,Net-(J7-PadT)*%
X122936000Y-96360000D03*
%TO.P,J7,TN*%
%TO.N,N/C*%
X122936000Y-88060000D03*
D11*
%TO.P,J7,S*%
%TO.N,GNDD*%
X122936000Y-85725000D03*
%TD*%
D10*
%TO.P,J6,T*%
%TO.N,Net-(J6-PadT)*%
X151130000Y-96360000D03*
%TO.P,J6,TN*%
%TO.N,N/C*%
X151130000Y-88060000D03*
D11*
%TO.P,J6,S*%
%TO.N,GNDA*%
X151130000Y-85725000D03*
%TD*%
D10*
%TO.P,J5,T*%
%TO.N,Net-(J5-PadT)*%
X124460000Y-79850000D03*
%TO.P,J5,TN*%
%TO.N,GNDA*%
X124460000Y-71550000D03*
D11*
%TO.P,J5,S*%
X124460000Y-69215000D03*
%TD*%
D10*
%TO.P,J2,T*%
%TO.N,Net-(J2-PadT)*%
X141732000Y-96360000D03*
%TO.P,J2,TN*%
%TO.N,N/C*%
X141732000Y-88060000D03*
D11*
%TO.P,J2,S*%
%TO.N,GNDA*%
X141732000Y-85725000D03*
%TD*%
D10*
%TO.P,J1,T*%
%TO.N,Net-(J1-PadT)*%
X124460000Y-64610000D03*
%TO.P,J1,TN*%
%TO.N,GNDA*%
X124460000Y-56310000D03*
D11*
%TO.P,J1,S*%
X124460000Y-53975000D03*
%TD*%
D17*
%TO.N,+12V*%
X113538000Y-77724000D03*
X113538000Y-80772000D03*
X104902000Y-64516000D03*
X109474000Y-64516000D03*
X107183345Y-64511335D03*
%TO.N,+5V*%
X147066000Y-39116000D03*
%TO.N,GNDD*%
X154432000Y-77851000D03*
X146558000Y-51816000D03*
X146558000Y-53086000D03*
X151638000Y-51816000D03*
X151638000Y-53086000D03*
X147269000Y-80721000D03*
X153670000Y-42926000D03*
X150876000Y-39878000D03*
X148082000Y-37338000D03*
X145796000Y-34798000D03*
X153162000Y-32258000D03*
X151892000Y-33528000D03*
X128905000Y-85725000D03*
%TO.N,GNDA*%
X119888000Y-51308000D03*
X121412000Y-51308000D03*
X111506000Y-60452000D03*
X106426000Y-59690000D03*
X115189000Y-82550000D03*
X111760000Y-84328000D03*
X108204000Y-83312000D03*
X105410000Y-95758000D03*
X111633000Y-95504000D03*
X120015000Y-77216000D03*
X141478000Y-51816000D03*
X141478000Y-52832000D03*
%TO.N,+3V3*%
X104775000Y-97155000D03*
X145857000Y-79314000D03*
X104357010Y-82025567D03*
X104902000Y-72898000D03*
%TO.N,Net-(J5-PadT)*%
X127254000Y-69088000D03*
X127254000Y-65278000D03*
%TO.N,-12V*%
X105156000Y-51562000D03*
X104902000Y-62992000D03*
X108966000Y-62992000D03*
X109982000Y-73152000D03*
X108204000Y-72644000D03*
%TO.N,PB12*%
X143510000Y-42418000D03*
%TO.N,PB14*%
X148590000Y-77724000D03*
X131572000Y-82550000D03*
X145288000Y-78232000D03*
X131572000Y-80264000D03*
%TO.N,PB11*%
X154684967Y-41656000D03*
X155134980Y-64770000D03*
%TO.N,PB13*%
X139446000Y-41910000D03*
%TD*%
D18*
%TO.N,+12V*%
X113538000Y-77724000D02*
X113538000Y-80772000D01*
X155702000Y-68072000D02*
X153670000Y-66040000D01*
X155702000Y-97790000D02*
X155702000Y-68072000D01*
X154940000Y-98552000D02*
X155702000Y-97790000D01*
X104394000Y-98552000D02*
X154940000Y-98552000D01*
X103632000Y-97790000D02*
X104394000Y-98552000D01*
X103632000Y-65786000D02*
X103632000Y-97790000D01*
X104902000Y-64516000D02*
X103632000Y-65786000D01*
X107188010Y-64516000D02*
X107183345Y-64511335D01*
X109474000Y-64516000D02*
X107188010Y-64516000D01*
%TO.N,+5V*%
X147066000Y-33020000D02*
X151130000Y-28956000D01*
X147066000Y-39116000D02*
X147066000Y-33020000D01*
%TO.N,GNDD*%
X128905000Y-85725000D02*
X132334000Y-85725000D01*
%TO.N,+3V3*%
X104775000Y-97155000D02*
X105721989Y-98101989D01*
X154559000Y-98101989D02*
X154559000Y-83693000D01*
X105721989Y-98101989D02*
X154559000Y-98101989D01*
X154559000Y-83693000D02*
X147828000Y-83693000D01*
X147828000Y-83693000D02*
X145857000Y-81722000D01*
X145857000Y-81722000D02*
X145857000Y-79314000D01*
X104357010Y-96737010D02*
X104357010Y-82025567D01*
X104775000Y-97155000D02*
X104357010Y-96737010D01*
X104357010Y-73442990D02*
X104357010Y-82025567D01*
X104902000Y-72898000D02*
X104357010Y-73442990D01*
%TO.N,Net-(J5-PadT)*%
X127254000Y-69088000D02*
X127254000Y-65278000D01*
%TO.N,-12V*%
X152494999Y-54704999D02*
X153670000Y-55880000D01*
X152494999Y-47211999D02*
X152494999Y-54704999D01*
X151257000Y-45974000D02*
X152494999Y-47211999D01*
X103759000Y-47117000D02*
X104902000Y-45974000D01*
X104902000Y-45974000D02*
X151257000Y-45974000D01*
X103759000Y-50165000D02*
X103759000Y-47117000D01*
X105156000Y-51562000D02*
X105156000Y-51562000D01*
X105156000Y-51562000D02*
X103759000Y-50165000D01*
X104902000Y-62992000D02*
X108966000Y-62992000D01*
X108712000Y-73152000D02*
X108204000Y-72644000D01*
X109982000Y-73152000D02*
X108712000Y-73152000D01*
%TO.N,PB12*%
X143510000Y-28956000D02*
X143510000Y-42418000D01*
%TO.N,PB14*%
X145288000Y-78232000D02*
X145288000Y-78232000D01*
X148082000Y-78232000D02*
X145288000Y-78232000D01*
X148590000Y-77724000D02*
X148082000Y-78232000D01*
X131572000Y-80264000D02*
X131572000Y-82550000D01*
D19*
%TO.N,PB11*%
X155134980Y-42106013D02*
X155134980Y-64770000D01*
X154684967Y-41656000D02*
X155134980Y-42106013D01*
D18*
%TO.N,PB13*%
X140970000Y-40386000D02*
X139446000Y-41910000D01*
X140970000Y-28956000D02*
X140970000Y-40386000D01*
%TD*%
D20*
%TO.N,GNDA*%
G36*
X142356525Y-50222632D02*
G01*
X142563368Y-50429475D01*
X142806589Y-50591990D01*
X143076842Y-50703932D01*
X143129000Y-50714307D01*
X143129000Y-57881507D01*
X143042498Y-57952497D01*
X142793194Y-58256275D01*
X142607943Y-58602853D01*
X142493867Y-58978912D01*
X142465000Y-59272002D01*
X142465000Y-60347997D01*
X142493867Y-60641087D01*
X142607943Y-61017146D01*
X142793193Y-61363725D01*
X143042497Y-61667503D01*
X143129000Y-61738494D01*
X143129000Y-66161392D01*
X143044474Y-66245918D01*
X142960792Y-65991739D01*
X142688225Y-65860842D01*
X142395358Y-65785635D01*
X142093447Y-65769009D01*
X141794093Y-65811603D01*
X141508801Y-65911778D01*
X141359208Y-65991739D01*
X141275525Y-66245920D01*
X142160000Y-67130395D01*
X142174143Y-67116253D01*
X142353748Y-67295858D01*
X142339605Y-67310000D01*
X142353748Y-67324143D01*
X142174143Y-67503748D01*
X142160000Y-67489605D01*
X141275525Y-68374080D01*
X141359208Y-68628261D01*
X141631775Y-68759158D01*
X141924642Y-68834365D01*
X142226553Y-68850991D01*
X142525907Y-68808397D01*
X142811199Y-68708222D01*
X142960792Y-68628261D01*
X143044474Y-68374082D01*
X143129000Y-68458608D01*
X143129000Y-73121507D01*
X143042498Y-73192497D01*
X142793194Y-73496275D01*
X142607943Y-73842853D01*
X142493867Y-74218912D01*
X142465000Y-74512002D01*
X142465000Y-75587997D01*
X142493867Y-75881087D01*
X142607943Y-76257146D01*
X142793193Y-76603725D01*
X143042497Y-76907503D01*
X143129000Y-76978494D01*
X143129000Y-81401392D01*
X143044474Y-81485918D01*
X142960792Y-81231739D01*
X142688225Y-81100842D01*
X142395358Y-81025635D01*
X142093447Y-81009009D01*
X141794093Y-81051603D01*
X141508801Y-81151778D01*
X141359208Y-81231739D01*
X141275525Y-81485920D01*
X142160000Y-82370395D01*
X142174143Y-82356253D01*
X142353748Y-82535858D01*
X142339605Y-82550000D01*
X142353748Y-82564143D01*
X142174143Y-82743748D01*
X142160000Y-82729605D01*
X141275525Y-83614080D01*
X141359208Y-83868261D01*
X141631775Y-83999158D01*
X141924642Y-84074365D01*
X142226553Y-84090991D01*
X142525907Y-84048397D01*
X142811199Y-83948222D01*
X142960792Y-83868261D01*
X143044474Y-83614082D01*
X143129000Y-83698608D01*
X143129000Y-84328000D01*
X143131440Y-84352776D01*
X143138667Y-84376601D01*
X143150403Y-84398557D01*
X143166197Y-84417803D01*
X143185443Y-84433597D01*
X143207399Y-84445333D01*
X143231224Y-84452560D01*
X143256000Y-84455000D01*
X147810983Y-84455000D01*
X147828000Y-84456676D01*
X147845017Y-84455000D01*
X153799001Y-84455000D01*
X153799000Y-97341989D01*
X152543650Y-97341989D01*
X152581185Y-97311185D01*
X152660537Y-97214494D01*
X152719502Y-97104180D01*
X152755812Y-96984482D01*
X152768072Y-96860000D01*
X152768072Y-95860000D01*
X152755812Y-95735518D01*
X152719502Y-95615820D01*
X152660537Y-95505506D01*
X152581185Y-95408815D01*
X152484494Y-95329463D01*
X152374180Y-95270498D01*
X152254482Y-95234188D01*
X152130000Y-95221928D01*
X150130000Y-95221928D01*
X150005518Y-95234188D01*
X149885820Y-95270498D01*
X149775506Y-95329463D01*
X149678815Y-95408815D01*
X149599463Y-95505506D01*
X149540498Y-95615820D01*
X149504188Y-95735518D01*
X149491928Y-95860000D01*
X149491928Y-96860000D01*
X149504188Y-96984482D01*
X149540498Y-97104180D01*
X149599463Y-97214494D01*
X149678815Y-97311185D01*
X149716350Y-97341989D01*
X143145650Y-97341989D01*
X143183185Y-97311185D01*
X143262537Y-97214494D01*
X143321502Y-97104180D01*
X143357812Y-96984482D01*
X143370072Y-96860000D01*
X143370072Y-95860000D01*
X143357812Y-95735518D01*
X143321502Y-95615820D01*
X143262537Y-95505506D01*
X143183185Y-95408815D01*
X143086494Y-95329463D01*
X142976180Y-95270498D01*
X142856482Y-95234188D01*
X142732000Y-95221928D01*
X140732000Y-95221928D01*
X140607518Y-95234188D01*
X140487820Y-95270498D01*
X140377506Y-95329463D01*
X140280815Y-95408815D01*
X140201463Y-95505506D01*
X140142498Y-95615820D01*
X140106188Y-95735518D01*
X140093928Y-95860000D01*
X140093928Y-96860000D01*
X140106188Y-96984482D01*
X140142498Y-97104180D01*
X140201463Y-97214494D01*
X140280815Y-97311185D01*
X140318350Y-97341989D01*
X133747650Y-97341989D01*
X133785185Y-97311185D01*
X133864537Y-97214494D01*
X133923502Y-97104180D01*
X133959812Y-96984482D01*
X133972072Y-96860000D01*
X133972072Y-95860000D01*
X133959812Y-95735518D01*
X133923502Y-95615820D01*
X133864537Y-95505506D01*
X133785185Y-95408815D01*
X133688494Y-95329463D01*
X133578180Y-95270498D01*
X133458482Y-95234188D01*
X133334000Y-95221928D01*
X131334000Y-95221928D01*
X131209518Y-95234188D01*
X131089820Y-95270498D01*
X130979506Y-95329463D01*
X130882815Y-95408815D01*
X130803463Y-95505506D01*
X130744498Y-95615820D01*
X130708188Y-95735518D01*
X130695928Y-95860000D01*
X130695928Y-96860000D01*
X130708188Y-96984482D01*
X130744498Y-97104180D01*
X130803463Y-97214494D01*
X130882815Y-97311185D01*
X130920350Y-97341989D01*
X124349650Y-97341989D01*
X124387185Y-97311185D01*
X124466537Y-97214494D01*
X124525502Y-97104180D01*
X124561812Y-96984482D01*
X124574072Y-96860000D01*
X124574072Y-95860000D01*
X124561812Y-95735518D01*
X124525502Y-95615820D01*
X124466537Y-95505506D01*
X124387185Y-95408815D01*
X124290494Y-95329463D01*
X124180180Y-95270498D01*
X124060482Y-95234188D01*
X123936000Y-95221928D01*
X121936000Y-95221928D01*
X121811518Y-95234188D01*
X121691820Y-95270498D01*
X121581506Y-95329463D01*
X121484815Y-95408815D01*
X121405463Y-95505506D01*
X121346498Y-95615820D01*
X121310188Y-95735518D01*
X121297928Y-95860000D01*
X121297928Y-96860000D01*
X121310188Y-96984482D01*
X121346498Y-97104180D01*
X121405463Y-97214494D01*
X121484815Y-97311185D01*
X121522350Y-97341989D01*
X106036791Y-97341989D01*
X105810000Y-97115198D01*
X105810000Y-97053061D01*
X105770226Y-96853102D01*
X105692205Y-96664744D01*
X105578937Y-96495226D01*
X105434774Y-96351063D01*
X105265256Y-96237795D01*
X105117010Y-96176389D01*
X105117010Y-87560000D01*
X121297928Y-87560000D01*
X121297928Y-88560000D01*
X121310188Y-88684482D01*
X121346498Y-88804180D01*
X121405463Y-88914494D01*
X121484815Y-89011185D01*
X121581506Y-89090537D01*
X121691820Y-89149502D01*
X121811518Y-89185812D01*
X121936000Y-89198072D01*
X123936000Y-89198072D01*
X124060482Y-89185812D01*
X124180180Y-89149502D01*
X124290494Y-89090537D01*
X124387185Y-89011185D01*
X124466537Y-88914494D01*
X124525502Y-88804180D01*
X124561812Y-88684482D01*
X124574072Y-88560000D01*
X124574072Y-87560000D01*
X130695928Y-87560000D01*
X130695928Y-88560000D01*
X130708188Y-88684482D01*
X130744498Y-88804180D01*
X130803463Y-88914494D01*
X130882815Y-89011185D01*
X130979506Y-89090537D01*
X131089820Y-89149502D01*
X131209518Y-89185812D01*
X131334000Y-89198072D01*
X133334000Y-89198072D01*
X133458482Y-89185812D01*
X133578180Y-89149502D01*
X133688494Y-89090537D01*
X133785185Y-89011185D01*
X133864537Y-88914494D01*
X133923502Y-88804180D01*
X133959812Y-88684482D01*
X133972072Y-88560000D01*
X133972072Y-87560000D01*
X140093928Y-87560000D01*
X140093928Y-88560000D01*
X140106188Y-88684482D01*
X140142498Y-88804180D01*
X140201463Y-88914494D01*
X140280815Y-89011185D01*
X140377506Y-89090537D01*
X140487820Y-89149502D01*
X140607518Y-89185812D01*
X140732000Y-89198072D01*
X142732000Y-89198072D01*
X142856482Y-89185812D01*
X142976180Y-89149502D01*
X143086494Y-89090537D01*
X143183185Y-89011185D01*
X143262537Y-88914494D01*
X143321502Y-88804180D01*
X143357812Y-88684482D01*
X143370072Y-88560000D01*
X143370072Y-87560000D01*
X149491928Y-87560000D01*
X149491928Y-88560000D01*
X149504188Y-88684482D01*
X149540498Y-88804180D01*
X149599463Y-88914494D01*
X149678815Y-89011185D01*
X149775506Y-89090537D01*
X149885820Y-89149502D01*
X150005518Y-89185812D01*
X150130000Y-89198072D01*
X152130000Y-89198072D01*
X152254482Y-89185812D01*
X152374180Y-89149502D01*
X152484494Y-89090537D01*
X152581185Y-89011185D01*
X152660537Y-88914494D01*
X152719502Y-88804180D01*
X152755812Y-88684482D01*
X152768072Y-88560000D01*
X152768072Y-87560000D01*
X152755812Y-87435518D01*
X152719502Y-87315820D01*
X152660537Y-87205506D01*
X152581185Y-87108815D01*
X152484494Y-87029463D01*
X152374180Y-86970498D01*
X152254482Y-86934188D01*
X152130000Y-86921928D01*
X150130000Y-86921928D01*
X150005518Y-86934188D01*
X149885820Y-86970498D01*
X149775506Y-87029463D01*
X149678815Y-87108815D01*
X149599463Y-87205506D01*
X149540498Y-87315820D01*
X149504188Y-87435518D01*
X149491928Y-87560000D01*
X143370072Y-87560000D01*
X143357812Y-87435518D01*
X143321502Y-87315820D01*
X143262537Y-87205506D01*
X143183185Y-87108815D01*
X143086494Y-87029463D01*
X142976180Y-86970498D01*
X142856482Y-86934188D01*
X142732000Y-86921928D01*
X140732000Y-86921928D01*
X140607518Y-86934188D01*
X140487820Y-86970498D01*
X140377506Y-87029463D01*
X140280815Y-87108815D01*
X140201463Y-87205506D01*
X140142498Y-87315820D01*
X140106188Y-87435518D01*
X140093928Y-87560000D01*
X133972072Y-87560000D01*
X133959812Y-87435518D01*
X133923502Y-87315820D01*
X133864537Y-87205506D01*
X133785185Y-87108815D01*
X133688494Y-87029463D01*
X133578180Y-86970498D01*
X133458482Y-86934188D01*
X133334000Y-86921928D01*
X131334000Y-86921928D01*
X131209518Y-86934188D01*
X131089820Y-86970498D01*
X130979506Y-87029463D01*
X130882815Y-87108815D01*
X130803463Y-87205506D01*
X130744498Y-87315820D01*
X130708188Y-87435518D01*
X130695928Y-87560000D01*
X124574072Y-87560000D01*
X124561812Y-87435518D01*
X124525502Y-87315820D01*
X124466537Y-87205506D01*
X124387185Y-87108815D01*
X124290494Y-87029463D01*
X124180180Y-86970498D01*
X124060482Y-86934188D01*
X123936000Y-86921928D01*
X121936000Y-86921928D01*
X121811518Y-86934188D01*
X121691820Y-86970498D01*
X121581506Y-87029463D01*
X121484815Y-87108815D01*
X121405463Y-87205506D01*
X121346498Y-87315820D01*
X121310188Y-87435518D01*
X121297928Y-87560000D01*
X105117010Y-87560000D01*
X105117010Y-85225000D01*
X121397928Y-85225000D01*
X121397928Y-86225000D01*
X121410188Y-86349482D01*
X121446498Y-86469180D01*
X121505463Y-86579494D01*
X121584815Y-86676185D01*
X121681506Y-86755537D01*
X121791820Y-86814502D01*
X121911518Y-86850812D01*
X122036000Y-86863072D01*
X123836000Y-86863072D01*
X123960482Y-86850812D01*
X124080180Y-86814502D01*
X124190494Y-86755537D01*
X124287185Y-86676185D01*
X124366537Y-86579494D01*
X124425502Y-86469180D01*
X124461812Y-86349482D01*
X124474072Y-86225000D01*
X124474072Y-85623061D01*
X127870000Y-85623061D01*
X127870000Y-85826939D01*
X127909774Y-86026898D01*
X127987795Y-86215256D01*
X128101063Y-86384774D01*
X128245226Y-86528937D01*
X128414744Y-86642205D01*
X128603102Y-86720226D01*
X128803061Y-86760000D01*
X129006939Y-86760000D01*
X129206898Y-86720226D01*
X129395256Y-86642205D01*
X129564774Y-86528937D01*
X129608711Y-86485000D01*
X130852954Y-86485000D01*
X130903463Y-86579494D01*
X130982815Y-86676185D01*
X131079506Y-86755537D01*
X131189820Y-86814502D01*
X131309518Y-86850812D01*
X131434000Y-86863072D01*
X133234000Y-86863072D01*
X133358482Y-86850812D01*
X133478180Y-86814502D01*
X133588494Y-86755537D01*
X133685185Y-86676185D01*
X133764537Y-86579494D01*
X133823502Y-86469180D01*
X133859812Y-86349482D01*
X133872072Y-86225000D01*
X140193928Y-86225000D01*
X140206188Y-86349482D01*
X140242498Y-86469180D01*
X140301463Y-86579494D01*
X140380815Y-86676185D01*
X140477506Y-86755537D01*
X140587820Y-86814502D01*
X140707518Y-86850812D01*
X140832000Y-86863072D01*
X141446250Y-86860000D01*
X141605000Y-86701250D01*
X141605000Y-85852000D01*
X141859000Y-85852000D01*
X141859000Y-86701250D01*
X142017750Y-86860000D01*
X142632000Y-86863072D01*
X142756482Y-86850812D01*
X142876180Y-86814502D01*
X142986494Y-86755537D01*
X143083185Y-86676185D01*
X143162537Y-86579494D01*
X143221502Y-86469180D01*
X143257812Y-86349482D01*
X143270072Y-86225000D01*
X149591928Y-86225000D01*
X149604188Y-86349482D01*
X149640498Y-86469180D01*
X149699463Y-86579494D01*
X149778815Y-86676185D01*
X149875506Y-86755537D01*
X149985820Y-86814502D01*
X150105518Y-86850812D01*
X150230000Y-86863072D01*
X150844250Y-86860000D01*
X151003000Y-86701250D01*
X151003000Y-85852000D01*
X151257000Y-85852000D01*
X151257000Y-86701250D01*
X151415750Y-86860000D01*
X152030000Y-86863072D01*
X152154482Y-86850812D01*
X152274180Y-86814502D01*
X152384494Y-86755537D01*
X152481185Y-86676185D01*
X152560537Y-86579494D01*
X152619502Y-86469180D01*
X152655812Y-86349482D01*
X152668072Y-86225000D01*
X152665000Y-86010750D01*
X152506250Y-85852000D01*
X151257000Y-85852000D01*
X151003000Y-85852000D01*
X149753750Y-85852000D01*
X149595000Y-86010750D01*
X149591928Y-86225000D01*
X143270072Y-86225000D01*
X143267000Y-86010750D01*
X143108250Y-85852000D01*
X141859000Y-85852000D01*
X141605000Y-85852000D01*
X140355750Y-85852000D01*
X140197000Y-86010750D01*
X140193928Y-86225000D01*
X133872072Y-86225000D01*
X133872072Y-85225000D01*
X140193928Y-85225000D01*
X140197000Y-85439250D01*
X140355750Y-85598000D01*
X141605000Y-85598000D01*
X141605000Y-84748750D01*
X141859000Y-84748750D01*
X141859000Y-85598000D01*
X143108250Y-85598000D01*
X143267000Y-85439250D01*
X143270072Y-85225000D01*
X149591928Y-85225000D01*
X149595000Y-85439250D01*
X149753750Y-85598000D01*
X151003000Y-85598000D01*
X151003000Y-84748750D01*
X151257000Y-84748750D01*
X151257000Y-85598000D01*
X152506250Y-85598000D01*
X152665000Y-85439250D01*
X152668072Y-85225000D01*
X152655812Y-85100518D01*
X152619502Y-84980820D01*
X152560537Y-84870506D01*
X152481185Y-84773815D01*
X152384494Y-84694463D01*
X152274180Y-84635498D01*
X152154482Y-84599188D01*
X152030000Y-84586928D01*
X151415750Y-84590000D01*
X151257000Y-84748750D01*
X151003000Y-84748750D01*
X150844250Y-84590000D01*
X150230000Y-84586928D01*
X150105518Y-84599188D01*
X149985820Y-84635498D01*
X149875506Y-84694463D01*
X149778815Y-84773815D01*
X149699463Y-84870506D01*
X149640498Y-84980820D01*
X149604188Y-85100518D01*
X149591928Y-85225000D01*
X143270072Y-85225000D01*
X143257812Y-85100518D01*
X143221502Y-84980820D01*
X143162537Y-84870506D01*
X143083185Y-84773815D01*
X142986494Y-84694463D01*
X142876180Y-84635498D01*
X142756482Y-84599188D01*
X142632000Y-84586928D01*
X142017750Y-84590000D01*
X141859000Y-84748750D01*
X141605000Y-84748750D01*
X141446250Y-84590000D01*
X140832000Y-84586928D01*
X140707518Y-84599188D01*
X140587820Y-84635498D01*
X140477506Y-84694463D01*
X140380815Y-84773815D01*
X140301463Y-84870506D01*
X140242498Y-84980820D01*
X140206188Y-85100518D01*
X140193928Y-85225000D01*
X133872072Y-85225000D01*
X133859812Y-85100518D01*
X133823502Y-84980820D01*
X133764537Y-84870506D01*
X133685185Y-84773815D01*
X133588494Y-84694463D01*
X133478180Y-84635498D01*
X133358482Y-84599188D01*
X133234000Y-84586928D01*
X131434000Y-84586928D01*
X131309518Y-84599188D01*
X131189820Y-84635498D01*
X131079506Y-84694463D01*
X130982815Y-84773815D01*
X130903463Y-84870506D01*
X130852954Y-84965000D01*
X129608711Y-84965000D01*
X129564774Y-84921063D01*
X129395256Y-84807795D01*
X129206898Y-84729774D01*
X129006939Y-84690000D01*
X128803061Y-84690000D01*
X128603102Y-84729774D01*
X128414744Y-84807795D01*
X128245226Y-84921063D01*
X128101063Y-85065226D01*
X127987795Y-85234744D01*
X127909774Y-85423102D01*
X127870000Y-85623061D01*
X124474072Y-85623061D01*
X124474072Y-85225000D01*
X124461812Y-85100518D01*
X124425502Y-84980820D01*
X124366537Y-84870506D01*
X124287185Y-84773815D01*
X124190494Y-84694463D01*
X124080180Y-84635498D01*
X123960482Y-84599188D01*
X123836000Y-84586928D01*
X122036000Y-84586928D01*
X121911518Y-84599188D01*
X121791820Y-84635498D01*
X121681506Y-84694463D01*
X121584815Y-84773815D01*
X121505463Y-84870506D01*
X121446498Y-84980820D01*
X121410188Y-85100518D01*
X121397928Y-85225000D01*
X105117010Y-85225000D01*
X105117010Y-82729278D01*
X105160947Y-82685341D01*
X105274215Y-82515823D01*
X105352236Y-82327465D01*
X105392010Y-82127506D01*
X105392010Y-81923628D01*
X105352236Y-81723669D01*
X105274215Y-81535311D01*
X105160947Y-81365793D01*
X105117010Y-81321856D01*
X105117010Y-77622061D01*
X112503000Y-77622061D01*
X112503000Y-77825939D01*
X112542774Y-78025898D01*
X112620795Y-78214256D01*
X112734063Y-78383774D01*
X112778000Y-78427711D01*
X112778001Y-80068288D01*
X112734063Y-80112226D01*
X112620795Y-80281744D01*
X112542774Y-80470102D01*
X112503000Y-80670061D01*
X112503000Y-80873939D01*
X112542774Y-81073898D01*
X112620795Y-81262256D01*
X112734063Y-81431774D01*
X112878226Y-81575937D01*
X113047744Y-81689205D01*
X113236102Y-81767226D01*
X113436061Y-81807000D01*
X113639939Y-81807000D01*
X113839898Y-81767226D01*
X114028256Y-81689205D01*
X114197774Y-81575937D01*
X114341937Y-81431774D01*
X114455205Y-81262256D01*
X114533226Y-81073898D01*
X114573000Y-80873939D01*
X114573000Y-80670061D01*
X114533226Y-80470102D01*
X114455205Y-80281744D01*
X114341937Y-80112226D01*
X114298000Y-80068289D01*
X114298000Y-79350000D01*
X122821928Y-79350000D01*
X122821928Y-80350000D01*
X122834188Y-80474482D01*
X122870498Y-80594180D01*
X122929463Y-80704494D01*
X123008815Y-80801185D01*
X123105506Y-80880537D01*
X123215820Y-80939502D01*
X123335518Y-80975812D01*
X123460000Y-80988072D01*
X125460000Y-80988072D01*
X125584482Y-80975812D01*
X125704180Y-80939502D01*
X125814494Y-80880537D01*
X125911185Y-80801185D01*
X125990537Y-80704494D01*
X126049502Y-80594180D01*
X126085812Y-80474482D01*
X126098072Y-80350000D01*
X126098072Y-80162061D01*
X130537000Y-80162061D01*
X130537000Y-80365939D01*
X130576774Y-80565898D01*
X130654795Y-80754256D01*
X130768063Y-80923774D01*
X130812000Y-80967711D01*
X130812001Y-81846288D01*
X130768063Y-81890226D01*
X130654795Y-82059744D01*
X130576774Y-82248102D01*
X130537000Y-82448061D01*
X130537000Y-82651939D01*
X130576774Y-82851898D01*
X130654795Y-83040256D01*
X130768063Y-83209774D01*
X130912226Y-83353937D01*
X131081744Y-83467205D01*
X131270102Y-83545226D01*
X131470061Y-83585000D01*
X131673939Y-83585000D01*
X131873898Y-83545226D01*
X132062256Y-83467205D01*
X132231774Y-83353937D01*
X132375937Y-83209774D01*
X132489205Y-83040256D01*
X132567226Y-82851898D01*
X132607000Y-82651939D01*
X132607000Y-82448061D01*
X132567226Y-82248102D01*
X132489205Y-82059744D01*
X132375937Y-81890226D01*
X132332000Y-81846289D01*
X132332000Y-81650000D01*
X135621928Y-81650000D01*
X135621928Y-83450000D01*
X135634188Y-83574482D01*
X135670498Y-83694180D01*
X135729463Y-83804494D01*
X135808815Y-83901185D01*
X135905506Y-83980537D01*
X136015820Y-84039502D01*
X136135518Y-84075812D01*
X136260000Y-84088072D01*
X138060000Y-84088072D01*
X138184482Y-84075812D01*
X138304180Y-84039502D01*
X138414494Y-83980537D01*
X138511185Y-83901185D01*
X138590537Y-83804494D01*
X138643880Y-83704697D01*
X138681495Y-83742312D01*
X138932905Y-83910299D01*
X139212257Y-84026011D01*
X139508816Y-84085000D01*
X139811184Y-84085000D01*
X140107743Y-84026011D01*
X140387095Y-83910299D01*
X140638505Y-83742312D01*
X140852312Y-83528505D01*
X140947738Y-83385690D01*
X141095920Y-83434475D01*
X141980395Y-82550000D01*
X141095920Y-81665525D01*
X140947738Y-81714310D01*
X140852312Y-81571495D01*
X140638505Y-81357688D01*
X140387095Y-81189701D01*
X140107743Y-81073989D01*
X139811184Y-81015000D01*
X139508816Y-81015000D01*
X139212257Y-81073989D01*
X138932905Y-81189701D01*
X138681495Y-81357688D01*
X138643880Y-81395303D01*
X138590537Y-81295506D01*
X138511185Y-81198815D01*
X138414494Y-81119463D01*
X138304180Y-81060498D01*
X138184482Y-81024188D01*
X138060000Y-81011928D01*
X136260000Y-81011928D01*
X136135518Y-81024188D01*
X136015820Y-81060498D01*
X135905506Y-81119463D01*
X135808815Y-81198815D01*
X135729463Y-81295506D01*
X135670498Y-81405820D01*
X135634188Y-81525518D01*
X135621928Y-81650000D01*
X132332000Y-81650000D01*
X132332000Y-80967711D01*
X132375937Y-80923774D01*
X132489205Y-80754256D01*
X132567226Y-80565898D01*
X132607000Y-80365939D01*
X132607000Y-80162061D01*
X132567226Y-79962102D01*
X132489205Y-79773744D01*
X132375937Y-79604226D01*
X132231774Y-79460063D01*
X132062256Y-79346795D01*
X131873898Y-79268774D01*
X131673939Y-79229000D01*
X131470061Y-79229000D01*
X131270102Y-79268774D01*
X131081744Y-79346795D01*
X130912226Y-79460063D01*
X130768063Y-79604226D01*
X130654795Y-79773744D01*
X130576774Y-79962102D01*
X130537000Y-80162061D01*
X126098072Y-80162061D01*
X126098072Y-79350000D01*
X126085812Y-79225518D01*
X126049502Y-79105820D01*
X125990537Y-78995506D01*
X125911185Y-78898815D01*
X125814494Y-78819463D01*
X125704180Y-78760498D01*
X125584482Y-78724188D01*
X125460000Y-78711928D01*
X123460000Y-78711928D01*
X123335518Y-78724188D01*
X123215820Y-78760498D01*
X123105506Y-78819463D01*
X123008815Y-78898815D01*
X122929463Y-78995506D01*
X122870498Y-79105820D01*
X122834188Y-79225518D01*
X122821928Y-79350000D01*
X114298000Y-79350000D01*
X114298000Y-78427711D01*
X114341937Y-78383774D01*
X114455205Y-78214256D01*
X114533226Y-78025898D01*
X114573000Y-77825939D01*
X114573000Y-77622061D01*
X114533226Y-77422102D01*
X114455205Y-77233744D01*
X114341937Y-77064226D01*
X114197774Y-76920063D01*
X114028256Y-76806795D01*
X113839898Y-76728774D01*
X113639939Y-76689000D01*
X113436061Y-76689000D01*
X113236102Y-76728774D01*
X113047744Y-76806795D01*
X112878226Y-76920063D01*
X112734063Y-77064226D01*
X112620795Y-77233744D01*
X112542774Y-77422102D01*
X112503000Y-77622061D01*
X105117010Y-77622061D01*
X105117010Y-74512002D01*
X132865000Y-74512002D01*
X132865000Y-75587997D01*
X132893867Y-75881087D01*
X133007943Y-76257146D01*
X133193193Y-76603725D01*
X133442497Y-76907503D01*
X133746275Y-77156807D01*
X134092853Y-77342057D01*
X134468912Y-77456133D01*
X134860000Y-77494652D01*
X135251087Y-77456133D01*
X135627146Y-77342057D01*
X135973725Y-77156807D01*
X136277503Y-76907503D01*
X136526807Y-76603725D01*
X136712057Y-76257147D01*
X136826133Y-75881088D01*
X136855000Y-75587998D01*
X136855000Y-74512003D01*
X136826133Y-74218913D01*
X136712057Y-73842853D01*
X136526807Y-73496275D01*
X136277503Y-73192497D01*
X135973725Y-72943193D01*
X135627147Y-72757943D01*
X135251088Y-72643867D01*
X134860000Y-72605348D01*
X134468913Y-72643867D01*
X134092854Y-72757943D01*
X133746276Y-72943193D01*
X133442498Y-73192497D01*
X133193194Y-73496275D01*
X133007943Y-73842853D01*
X132893867Y-74218912D01*
X132865000Y-74512002D01*
X105117010Y-74512002D01*
X105117010Y-73910509D01*
X105203898Y-73893226D01*
X105392256Y-73815205D01*
X105561774Y-73701937D01*
X105705937Y-73557774D01*
X105819205Y-73388256D01*
X105897226Y-73199898D01*
X105937000Y-72999939D01*
X105937000Y-72796061D01*
X105897226Y-72596102D01*
X105874842Y-72542061D01*
X107169000Y-72542061D01*
X107169000Y-72745939D01*
X107208774Y-72945898D01*
X107286795Y-73134256D01*
X107400063Y-73303774D01*
X107544226Y-73447937D01*
X107713744Y-73561205D01*
X107902102Y-73639226D01*
X108102061Y-73679000D01*
X108161329Y-73679000D01*
X108171999Y-73692001D01*
X108287724Y-73786974D01*
X108419753Y-73857546D01*
X108563014Y-73901003D01*
X108674667Y-73912000D01*
X108674676Y-73912000D01*
X108711999Y-73915676D01*
X108749322Y-73912000D01*
X109278289Y-73912000D01*
X109322226Y-73955937D01*
X109491744Y-74069205D01*
X109680102Y-74147226D01*
X109880061Y-74187000D01*
X110083939Y-74187000D01*
X110283898Y-74147226D01*
X110472256Y-74069205D01*
X110641774Y-73955937D01*
X110785937Y-73811774D01*
X110899205Y-73642256D01*
X110977226Y-73453898D01*
X111017000Y-73253939D01*
X111017000Y-73050061D01*
X110977226Y-72850102D01*
X110899205Y-72661744D01*
X110785937Y-72492226D01*
X110641774Y-72348063D01*
X110472256Y-72234795D01*
X110283898Y-72156774D01*
X110083939Y-72117000D01*
X109880061Y-72117000D01*
X109680102Y-72156774D01*
X109491744Y-72234795D01*
X109322226Y-72348063D01*
X109278289Y-72392000D01*
X109209151Y-72392000D01*
X109199226Y-72342102D01*
X109121205Y-72153744D01*
X109051886Y-72050000D01*
X122821928Y-72050000D01*
X122834188Y-72174482D01*
X122870498Y-72294180D01*
X122929463Y-72404494D01*
X123008815Y-72501185D01*
X123105506Y-72580537D01*
X123215820Y-72639502D01*
X123335518Y-72675812D01*
X123460000Y-72688072D01*
X124174250Y-72685000D01*
X124333000Y-72526250D01*
X124333000Y-71677000D01*
X124587000Y-71677000D01*
X124587000Y-72526250D01*
X124745750Y-72685000D01*
X125460000Y-72688072D01*
X125584482Y-72675812D01*
X125704180Y-72639502D01*
X125814494Y-72580537D01*
X125911185Y-72501185D01*
X125990537Y-72404494D01*
X126049502Y-72294180D01*
X126085812Y-72174482D01*
X126098072Y-72050000D01*
X126095000Y-71835750D01*
X125936250Y-71677000D01*
X124587000Y-71677000D01*
X124333000Y-71677000D01*
X122983750Y-71677000D01*
X122825000Y-71835750D01*
X122821928Y-72050000D01*
X109051886Y-72050000D01*
X109007937Y-71984226D01*
X108863774Y-71840063D01*
X108694256Y-71726795D01*
X108505898Y-71648774D01*
X108305939Y-71609000D01*
X108102061Y-71609000D01*
X107902102Y-71648774D01*
X107713744Y-71726795D01*
X107544226Y-71840063D01*
X107400063Y-71984226D01*
X107286795Y-72153744D01*
X107208774Y-72342102D01*
X107169000Y-72542061D01*
X105874842Y-72542061D01*
X105819205Y-72407744D01*
X105705937Y-72238226D01*
X105561774Y-72094063D01*
X105392256Y-71980795D01*
X105203898Y-71902774D01*
X105003939Y-71863000D01*
X104800061Y-71863000D01*
X104600102Y-71902774D01*
X104411744Y-71980795D01*
X104392000Y-71993987D01*
X104392000Y-71050000D01*
X122821928Y-71050000D01*
X122825000Y-71264250D01*
X122983750Y-71423000D01*
X124333000Y-71423000D01*
X124333000Y-70573750D01*
X124587000Y-70573750D01*
X124587000Y-71423000D01*
X125936250Y-71423000D01*
X126095000Y-71264250D01*
X126098072Y-71050000D01*
X126085812Y-70925518D01*
X126049502Y-70805820D01*
X125990537Y-70695506D01*
X125911185Y-70598815D01*
X125814494Y-70519463D01*
X125704180Y-70460498D01*
X125584482Y-70424188D01*
X125460000Y-70411928D01*
X124745750Y-70415000D01*
X124587000Y-70573750D01*
X124333000Y-70573750D01*
X124174250Y-70415000D01*
X123460000Y-70411928D01*
X123335518Y-70424188D01*
X123215820Y-70460498D01*
X123105506Y-70519463D01*
X123008815Y-70598815D01*
X122929463Y-70695506D01*
X122870498Y-70805820D01*
X122834188Y-70925518D01*
X122821928Y-71050000D01*
X104392000Y-71050000D01*
X104392000Y-69715000D01*
X122921928Y-69715000D01*
X122934188Y-69839482D01*
X122970498Y-69959180D01*
X123029463Y-70069494D01*
X123108815Y-70166185D01*
X123205506Y-70245537D01*
X123315820Y-70304502D01*
X123435518Y-70340812D01*
X123560000Y-70353072D01*
X124174250Y-70350000D01*
X124333000Y-70191250D01*
X124333000Y-69342000D01*
X124587000Y-69342000D01*
X124587000Y-70191250D01*
X124745750Y-70350000D01*
X125360000Y-70353072D01*
X125484482Y-70340812D01*
X125604180Y-70304502D01*
X125714494Y-70245537D01*
X125811185Y-70166185D01*
X125890537Y-70069494D01*
X125949502Y-69959180D01*
X125985812Y-69839482D01*
X125998072Y-69715000D01*
X125995000Y-69500750D01*
X125836250Y-69342000D01*
X124587000Y-69342000D01*
X124333000Y-69342000D01*
X123083750Y-69342000D01*
X122925000Y-69500750D01*
X122921928Y-69715000D01*
X104392000Y-69715000D01*
X104392000Y-68715000D01*
X122921928Y-68715000D01*
X122925000Y-68929250D01*
X123083750Y-69088000D01*
X124333000Y-69088000D01*
X124333000Y-68238750D01*
X124587000Y-68238750D01*
X124587000Y-69088000D01*
X125836250Y-69088000D01*
X125995000Y-68929250D01*
X125998072Y-68715000D01*
X125985812Y-68590518D01*
X125949502Y-68470820D01*
X125890537Y-68360506D01*
X125811185Y-68263815D01*
X125714494Y-68184463D01*
X125604180Y-68125498D01*
X125484482Y-68089188D01*
X125360000Y-68076928D01*
X124745750Y-68080000D01*
X124587000Y-68238750D01*
X124333000Y-68238750D01*
X124174250Y-68080000D01*
X123560000Y-68076928D01*
X123435518Y-68089188D01*
X123315820Y-68125498D01*
X123205506Y-68184463D01*
X123108815Y-68263815D01*
X123029463Y-68360506D01*
X122970498Y-68470820D01*
X122934188Y-68590518D01*
X122921928Y-68715000D01*
X104392000Y-68715000D01*
X104392000Y-66100801D01*
X104941802Y-65551000D01*
X105003939Y-65551000D01*
X105203898Y-65511226D01*
X105392256Y-65433205D01*
X105561774Y-65319937D01*
X105705937Y-65175774D01*
X105819205Y-65006256D01*
X105897226Y-64817898D01*
X105937000Y-64617939D01*
X105937000Y-64414061D01*
X105897226Y-64214102D01*
X105819205Y-64025744D01*
X105705937Y-63856226D01*
X105603711Y-63754000D01*
X105605711Y-63752000D01*
X106478969Y-63752000D01*
X106379408Y-63851561D01*
X106266140Y-64021079D01*
X106188119Y-64209437D01*
X106148345Y-64409396D01*
X106148345Y-64613274D01*
X106188119Y-64813233D01*
X106266140Y-65001591D01*
X106379408Y-65171109D01*
X106523571Y-65315272D01*
X106693089Y-65428540D01*
X106881447Y-65506561D01*
X107081406Y-65546335D01*
X107285284Y-65546335D01*
X107485243Y-65506561D01*
X107673601Y-65428540D01*
X107843119Y-65315272D01*
X107882391Y-65276000D01*
X108770289Y-65276000D01*
X108814226Y-65319937D01*
X108983744Y-65433205D01*
X109172102Y-65511226D01*
X109372061Y-65551000D01*
X109575939Y-65551000D01*
X109775898Y-65511226D01*
X109964256Y-65433205D01*
X110133774Y-65319937D01*
X110277937Y-65175774D01*
X110391205Y-65006256D01*
X110469226Y-64817898D01*
X110509000Y-64617939D01*
X110509000Y-64414061D01*
X110469226Y-64214102D01*
X110426106Y-64110000D01*
X122821928Y-64110000D01*
X122821928Y-65110000D01*
X122834188Y-65234482D01*
X122870498Y-65354180D01*
X122929463Y-65464494D01*
X123008815Y-65561185D01*
X123105506Y-65640537D01*
X123215820Y-65699502D01*
X123335518Y-65735812D01*
X123460000Y-65748072D01*
X125460000Y-65748072D01*
X125584482Y-65735812D01*
X125704180Y-65699502D01*
X125814494Y-65640537D01*
X125911185Y-65561185D01*
X125990537Y-65464494D01*
X126049502Y-65354180D01*
X126085812Y-65234482D01*
X126091565Y-65176061D01*
X126219000Y-65176061D01*
X126219000Y-65379939D01*
X126258774Y-65579898D01*
X126336795Y-65768256D01*
X126450063Y-65937774D01*
X126494001Y-65981712D01*
X126494000Y-68384289D01*
X126450063Y-68428226D01*
X126336795Y-68597744D01*
X126258774Y-68786102D01*
X126219000Y-68986061D01*
X126219000Y-69189939D01*
X126258774Y-69389898D01*
X126336795Y-69578256D01*
X126450063Y-69747774D01*
X126594226Y-69891937D01*
X126763744Y-70005205D01*
X126952102Y-70083226D01*
X127152061Y-70123000D01*
X127355939Y-70123000D01*
X127555898Y-70083226D01*
X127744256Y-70005205D01*
X127913774Y-69891937D01*
X128057937Y-69747774D01*
X128171205Y-69578256D01*
X128249226Y-69389898D01*
X128289000Y-69189939D01*
X128289000Y-68986061D01*
X128249226Y-68786102D01*
X128171205Y-68597744D01*
X128057937Y-68428226D01*
X128014000Y-68384289D01*
X128014000Y-66410000D01*
X135621928Y-66410000D01*
X135621928Y-68210000D01*
X135634188Y-68334482D01*
X135670498Y-68454180D01*
X135729463Y-68564494D01*
X135808815Y-68661185D01*
X135905506Y-68740537D01*
X136015820Y-68799502D01*
X136135518Y-68835812D01*
X136260000Y-68848072D01*
X138060000Y-68848072D01*
X138184482Y-68835812D01*
X138304180Y-68799502D01*
X138414494Y-68740537D01*
X138511185Y-68661185D01*
X138590537Y-68564494D01*
X138643880Y-68464697D01*
X138681495Y-68502312D01*
X138932905Y-68670299D01*
X139212257Y-68786011D01*
X139508816Y-68845000D01*
X139811184Y-68845000D01*
X140107743Y-68786011D01*
X140387095Y-68670299D01*
X140638505Y-68502312D01*
X140852312Y-68288505D01*
X140947738Y-68145690D01*
X141095920Y-68194475D01*
X141980395Y-67310000D01*
X141095920Y-66425525D01*
X140947738Y-66474310D01*
X140852312Y-66331495D01*
X140638505Y-66117688D01*
X140387095Y-65949701D01*
X140107743Y-65833989D01*
X139811184Y-65775000D01*
X139508816Y-65775000D01*
X139212257Y-65833989D01*
X138932905Y-65949701D01*
X138681495Y-66117688D01*
X138643880Y-66155303D01*
X138590537Y-66055506D01*
X138511185Y-65958815D01*
X138414494Y-65879463D01*
X138304180Y-65820498D01*
X138184482Y-65784188D01*
X138060000Y-65771928D01*
X136260000Y-65771928D01*
X136135518Y-65784188D01*
X136015820Y-65820498D01*
X135905506Y-65879463D01*
X135808815Y-65958815D01*
X135729463Y-66055506D01*
X135670498Y-66165820D01*
X135634188Y-66285518D01*
X135621928Y-66410000D01*
X128014000Y-66410000D01*
X128014000Y-65981711D01*
X128057937Y-65937774D01*
X128171205Y-65768256D01*
X128249226Y-65579898D01*
X128289000Y-65379939D01*
X128289000Y-65176061D01*
X128249226Y-64976102D01*
X128171205Y-64787744D01*
X128057937Y-64618226D01*
X127913774Y-64474063D01*
X127744256Y-64360795D01*
X127555898Y-64282774D01*
X127355939Y-64243000D01*
X127152061Y-64243000D01*
X126952102Y-64282774D01*
X126763744Y-64360795D01*
X126594226Y-64474063D01*
X126450063Y-64618226D01*
X126336795Y-64787744D01*
X126258774Y-64976102D01*
X126219000Y-65176061D01*
X126091565Y-65176061D01*
X126098072Y-65110000D01*
X126098072Y-64110000D01*
X126085812Y-63985518D01*
X126049502Y-63865820D01*
X125990537Y-63755506D01*
X125911185Y-63658815D01*
X125814494Y-63579463D01*
X125704180Y-63520498D01*
X125584482Y-63484188D01*
X125460000Y-63471928D01*
X123460000Y-63471928D01*
X123335518Y-63484188D01*
X123215820Y-63520498D01*
X123105506Y-63579463D01*
X123008815Y-63658815D01*
X122929463Y-63755506D01*
X122870498Y-63865820D01*
X122834188Y-63985518D01*
X122821928Y-64110000D01*
X110426106Y-64110000D01*
X110391205Y-64025744D01*
X110277937Y-63856226D01*
X110133774Y-63712063D01*
X109964256Y-63598795D01*
X109839786Y-63547237D01*
X109883205Y-63482256D01*
X109961226Y-63293898D01*
X110001000Y-63093939D01*
X110001000Y-62890061D01*
X109961226Y-62690102D01*
X109883205Y-62501744D01*
X109769937Y-62332226D01*
X109625774Y-62188063D01*
X109456256Y-62074795D01*
X109267898Y-61996774D01*
X109067939Y-61957000D01*
X108864061Y-61957000D01*
X108664102Y-61996774D01*
X108475744Y-62074795D01*
X108306226Y-62188063D01*
X108262289Y-62232000D01*
X105605711Y-62232000D01*
X105561774Y-62188063D01*
X105392256Y-62074795D01*
X105203898Y-61996774D01*
X105003939Y-61957000D01*
X104800061Y-61957000D01*
X104600102Y-61996774D01*
X104411744Y-62074795D01*
X104242226Y-62188063D01*
X104098063Y-62332226D01*
X103984795Y-62501744D01*
X103906774Y-62690102D01*
X103867000Y-62890061D01*
X103867000Y-63093939D01*
X103906774Y-63293898D01*
X103984795Y-63482256D01*
X104098063Y-63651774D01*
X104200289Y-63754000D01*
X104098063Y-63856226D01*
X103984795Y-64025744D01*
X103906774Y-64214102D01*
X103867000Y-64414061D01*
X103867000Y-64476198D01*
X103530000Y-64813199D01*
X103530000Y-59272002D01*
X132865000Y-59272002D01*
X132865000Y-60347997D01*
X132893867Y-60641087D01*
X133007943Y-61017146D01*
X133193193Y-61363725D01*
X133442497Y-61667503D01*
X133746275Y-61916807D01*
X134092853Y-62102057D01*
X134468912Y-62216133D01*
X134860000Y-62254652D01*
X135251087Y-62216133D01*
X135627146Y-62102057D01*
X135973725Y-61916807D01*
X136277503Y-61667503D01*
X136526807Y-61363725D01*
X136712057Y-61017147D01*
X136826133Y-60641088D01*
X136855000Y-60347998D01*
X136855000Y-59272003D01*
X136826133Y-58978913D01*
X136712057Y-58602853D01*
X136526807Y-58256275D01*
X136277503Y-57952497D01*
X135973725Y-57703193D01*
X135627147Y-57517943D01*
X135251088Y-57403867D01*
X134860000Y-57365348D01*
X134468913Y-57403867D01*
X134092854Y-57517943D01*
X133746276Y-57703193D01*
X133442498Y-57952497D01*
X133193194Y-58256275D01*
X133007943Y-58602853D01*
X132893867Y-58978912D01*
X132865000Y-59272002D01*
X103530000Y-59272002D01*
X103530000Y-56810000D01*
X122821928Y-56810000D01*
X122834188Y-56934482D01*
X122870498Y-57054180D01*
X122929463Y-57164494D01*
X123008815Y-57261185D01*
X123105506Y-57340537D01*
X123215820Y-57399502D01*
X123335518Y-57435812D01*
X123460000Y-57448072D01*
X124174250Y-57445000D01*
X124333000Y-57286250D01*
X124333000Y-56437000D01*
X124587000Y-56437000D01*
X124587000Y-57286250D01*
X124745750Y-57445000D01*
X125460000Y-57448072D01*
X125584482Y-57435812D01*
X125704180Y-57399502D01*
X125814494Y-57340537D01*
X125911185Y-57261185D01*
X125990537Y-57164494D01*
X126049502Y-57054180D01*
X126085812Y-56934482D01*
X126098072Y-56810000D01*
X126095000Y-56595750D01*
X125936250Y-56437000D01*
X124587000Y-56437000D01*
X124333000Y-56437000D01*
X122983750Y-56437000D01*
X122825000Y-56595750D01*
X122821928Y-56810000D01*
X103530000Y-56810000D01*
X103530000Y-55810000D01*
X122821928Y-55810000D01*
X122825000Y-56024250D01*
X122983750Y-56183000D01*
X124333000Y-56183000D01*
X124333000Y-55333750D01*
X124587000Y-55333750D01*
X124587000Y-56183000D01*
X125936250Y-56183000D01*
X126095000Y-56024250D01*
X126098072Y-55810000D01*
X126085812Y-55685518D01*
X126049502Y-55565820D01*
X125990537Y-55455506D01*
X125911185Y-55358815D01*
X125814494Y-55279463D01*
X125704180Y-55220498D01*
X125584482Y-55184188D01*
X125460000Y-55171928D01*
X124745750Y-55175000D01*
X124587000Y-55333750D01*
X124333000Y-55333750D01*
X124174250Y-55175000D01*
X123460000Y-55171928D01*
X123335518Y-55184188D01*
X123215820Y-55220498D01*
X123105506Y-55279463D01*
X123008815Y-55358815D01*
X122929463Y-55455506D01*
X122870498Y-55565820D01*
X122834188Y-55685518D01*
X122821928Y-55810000D01*
X103530000Y-55810000D01*
X103530000Y-54475000D01*
X122921928Y-54475000D01*
X122934188Y-54599482D01*
X122970498Y-54719180D01*
X123029463Y-54829494D01*
X123108815Y-54926185D01*
X123205506Y-55005537D01*
X123315820Y-55064502D01*
X123435518Y-55100812D01*
X123560000Y-55113072D01*
X124174250Y-55110000D01*
X124333000Y-54951250D01*
X124333000Y-54102000D01*
X124587000Y-54102000D01*
X124587000Y-54951250D01*
X124745750Y-55110000D01*
X125360000Y-55113072D01*
X125484482Y-55100812D01*
X125604180Y-55064502D01*
X125714494Y-55005537D01*
X125811185Y-54926185D01*
X125890537Y-54829494D01*
X125949502Y-54719180D01*
X125985812Y-54599482D01*
X125998072Y-54475000D01*
X125995000Y-54260750D01*
X125836250Y-54102000D01*
X124587000Y-54102000D01*
X124333000Y-54102000D01*
X123083750Y-54102000D01*
X122925000Y-54260750D01*
X122921928Y-54475000D01*
X103530000Y-54475000D01*
X103530000Y-53475000D01*
X122921928Y-53475000D01*
X122925000Y-53689250D01*
X123083750Y-53848000D01*
X124333000Y-53848000D01*
X124333000Y-52998750D01*
X124587000Y-52998750D01*
X124587000Y-53848000D01*
X125836250Y-53848000D01*
X125995000Y-53689250D01*
X125998072Y-53475000D01*
X125985812Y-53350518D01*
X125949502Y-53230820D01*
X125890537Y-53120506D01*
X125811185Y-53023815D01*
X125714494Y-52944463D01*
X125604180Y-52885498D01*
X125484482Y-52849188D01*
X125360000Y-52836928D01*
X124745750Y-52840000D01*
X124587000Y-52998750D01*
X124333000Y-52998750D01*
X124174250Y-52840000D01*
X123560000Y-52836928D01*
X123435518Y-52849188D01*
X123315820Y-52885498D01*
X123205506Y-52944463D01*
X123108815Y-53023815D01*
X123029463Y-53120506D01*
X122970498Y-53230820D01*
X122934188Y-53350518D01*
X122921928Y-53475000D01*
X103530000Y-53475000D01*
X103530000Y-51010801D01*
X104121000Y-51601802D01*
X104121000Y-51663939D01*
X104160774Y-51863898D01*
X104238795Y-52052256D01*
X104352063Y-52221774D01*
X104496226Y-52365937D01*
X104665744Y-52479205D01*
X104854102Y-52557226D01*
X105054061Y-52597000D01*
X105257939Y-52597000D01*
X105457898Y-52557226D01*
X105646256Y-52479205D01*
X105815774Y-52365937D01*
X105959937Y-52221774D01*
X106073205Y-52052256D01*
X106151226Y-51863898D01*
X106191000Y-51663939D01*
X106191000Y-51460061D01*
X106151226Y-51260102D01*
X106073205Y-51071744D01*
X105959937Y-50902226D01*
X105821783Y-50764072D01*
X106260000Y-50764072D01*
X106384482Y-50751812D01*
X106504180Y-50715502D01*
X106614494Y-50656537D01*
X106711185Y-50577185D01*
X106790537Y-50480494D01*
X106849502Y-50370180D01*
X106871513Y-50297620D01*
X107003368Y-50429475D01*
X107246589Y-50591990D01*
X107516842Y-50703932D01*
X107803740Y-50761000D01*
X108096260Y-50761000D01*
X108383158Y-50703932D01*
X108653411Y-50591990D01*
X108896632Y-50429475D01*
X109103475Y-50222632D01*
X109220000Y-50048240D01*
X109336525Y-50222632D01*
X109543368Y-50429475D01*
X109786589Y-50591990D01*
X110056842Y-50703932D01*
X110343740Y-50761000D01*
X110636260Y-50761000D01*
X110923158Y-50703932D01*
X111193411Y-50591990D01*
X111436632Y-50429475D01*
X111643475Y-50222632D01*
X111760000Y-50048240D01*
X111876525Y-50222632D01*
X112083368Y-50429475D01*
X112326589Y-50591990D01*
X112596842Y-50703932D01*
X112883740Y-50761000D01*
X113176260Y-50761000D01*
X113463158Y-50703932D01*
X113733411Y-50591990D01*
X113976632Y-50429475D01*
X114183475Y-50222632D01*
X114300000Y-50048240D01*
X114416525Y-50222632D01*
X114623368Y-50429475D01*
X114866589Y-50591990D01*
X115136842Y-50703932D01*
X115423740Y-50761000D01*
X115716260Y-50761000D01*
X116003158Y-50703932D01*
X116273411Y-50591990D01*
X116516632Y-50429475D01*
X116723475Y-50222632D01*
X116840000Y-50048240D01*
X116956525Y-50222632D01*
X117163368Y-50429475D01*
X117406589Y-50591990D01*
X117676842Y-50703932D01*
X117963740Y-50761000D01*
X118256260Y-50761000D01*
X118543158Y-50703932D01*
X118813411Y-50591990D01*
X119056632Y-50429475D01*
X119263475Y-50222632D01*
X119380000Y-50048240D01*
X119496525Y-50222632D01*
X119703368Y-50429475D01*
X119946589Y-50591990D01*
X120216842Y-50703932D01*
X120503740Y-50761000D01*
X120796260Y-50761000D01*
X121083158Y-50703932D01*
X121353411Y-50591990D01*
X121596632Y-50429475D01*
X121803475Y-50222632D01*
X121920000Y-50048240D01*
X122036525Y-50222632D01*
X122243368Y-50429475D01*
X122486589Y-50591990D01*
X122756842Y-50703932D01*
X123043740Y-50761000D01*
X123336260Y-50761000D01*
X123623158Y-50703932D01*
X123893411Y-50591990D01*
X124136632Y-50429475D01*
X124343475Y-50222632D01*
X124460000Y-50048240D01*
X124576525Y-50222632D01*
X124783368Y-50429475D01*
X125026589Y-50591990D01*
X125296842Y-50703932D01*
X125583740Y-50761000D01*
X125876260Y-50761000D01*
X126163158Y-50703932D01*
X126433411Y-50591990D01*
X126676632Y-50429475D01*
X126883475Y-50222632D01*
X127000000Y-50048240D01*
X127116525Y-50222632D01*
X127323368Y-50429475D01*
X127566589Y-50591990D01*
X127836842Y-50703932D01*
X128123740Y-50761000D01*
X128416260Y-50761000D01*
X128703158Y-50703932D01*
X128973411Y-50591990D01*
X129216632Y-50429475D01*
X129423475Y-50222632D01*
X129540000Y-50048240D01*
X129656525Y-50222632D01*
X129863368Y-50429475D01*
X130106589Y-50591990D01*
X130376842Y-50703932D01*
X130663740Y-50761000D01*
X130956260Y-50761000D01*
X131243158Y-50703932D01*
X131513411Y-50591990D01*
X131756632Y-50429475D01*
X131963475Y-50222632D01*
X132080000Y-50048240D01*
X132196525Y-50222632D01*
X132403368Y-50429475D01*
X132646589Y-50591990D01*
X132916842Y-50703932D01*
X133203740Y-50761000D01*
X133496260Y-50761000D01*
X133783158Y-50703932D01*
X134053411Y-50591990D01*
X134296632Y-50429475D01*
X134503475Y-50222632D01*
X134620000Y-50048240D01*
X134736525Y-50222632D01*
X134943368Y-50429475D01*
X135186589Y-50591990D01*
X135456842Y-50703932D01*
X135743740Y-50761000D01*
X136036260Y-50761000D01*
X136323158Y-50703932D01*
X136593411Y-50591990D01*
X136836632Y-50429475D01*
X137043475Y-50222632D01*
X137160000Y-50048240D01*
X137276525Y-50222632D01*
X137483368Y-50429475D01*
X137726589Y-50591990D01*
X137996842Y-50703932D01*
X138283740Y-50761000D01*
X138576260Y-50761000D01*
X138863158Y-50703932D01*
X139133411Y-50591990D01*
X139376632Y-50429475D01*
X139583475Y-50222632D01*
X139700000Y-50048240D01*
X139816525Y-50222632D01*
X140023368Y-50429475D01*
X140266589Y-50591990D01*
X140536842Y-50703932D01*
X140823740Y-50761000D01*
X141116260Y-50761000D01*
X141403158Y-50703932D01*
X141673411Y-50591990D01*
X141916632Y-50429475D01*
X142123475Y-50222632D01*
X142240000Y-50048240D01*
X142356525Y-50222632D01*
G37*
X142356525Y-50222632D02*
X142563368Y-50429475D01*
X142806589Y-50591990D01*
X143076842Y-50703932D01*
X143129000Y-50714307D01*
X143129000Y-57881507D01*
X143042498Y-57952497D01*
X142793194Y-58256275D01*
X142607943Y-58602853D01*
X142493867Y-58978912D01*
X142465000Y-59272002D01*
X142465000Y-60347997D01*
X142493867Y-60641087D01*
X142607943Y-61017146D01*
X142793193Y-61363725D01*
X143042497Y-61667503D01*
X143129000Y-61738494D01*
X143129000Y-66161392D01*
X143044474Y-66245918D01*
X142960792Y-65991739D01*
X142688225Y-65860842D01*
X142395358Y-65785635D01*
X142093447Y-65769009D01*
X141794093Y-65811603D01*
X141508801Y-65911778D01*
X141359208Y-65991739D01*
X141275525Y-66245920D01*
X142160000Y-67130395D01*
X142174143Y-67116253D01*
X142353748Y-67295858D01*
X142339605Y-67310000D01*
X142353748Y-67324143D01*
X142174143Y-67503748D01*
X142160000Y-67489605D01*
X141275525Y-68374080D01*
X141359208Y-68628261D01*
X141631775Y-68759158D01*
X141924642Y-68834365D01*
X142226553Y-68850991D01*
X142525907Y-68808397D01*
X142811199Y-68708222D01*
X142960792Y-68628261D01*
X143044474Y-68374082D01*
X143129000Y-68458608D01*
X143129000Y-73121507D01*
X143042498Y-73192497D01*
X142793194Y-73496275D01*
X142607943Y-73842853D01*
X142493867Y-74218912D01*
X142465000Y-74512002D01*
X142465000Y-75587997D01*
X142493867Y-75881087D01*
X142607943Y-76257146D01*
X142793193Y-76603725D01*
X143042497Y-76907503D01*
X143129000Y-76978494D01*
X143129000Y-81401392D01*
X143044474Y-81485918D01*
X142960792Y-81231739D01*
X142688225Y-81100842D01*
X142395358Y-81025635D01*
X142093447Y-81009009D01*
X141794093Y-81051603D01*
X141508801Y-81151778D01*
X141359208Y-81231739D01*
X141275525Y-81485920D01*
X142160000Y-82370395D01*
X142174143Y-82356253D01*
X142353748Y-82535858D01*
X142339605Y-82550000D01*
X142353748Y-82564143D01*
X142174143Y-82743748D01*
X142160000Y-82729605D01*
X141275525Y-83614080D01*
X141359208Y-83868261D01*
X141631775Y-83999158D01*
X141924642Y-84074365D01*
X142226553Y-84090991D01*
X142525907Y-84048397D01*
X142811199Y-83948222D01*
X142960792Y-83868261D01*
X143044474Y-83614082D01*
X143129000Y-83698608D01*
X143129000Y-84328000D01*
X143131440Y-84352776D01*
X143138667Y-84376601D01*
X143150403Y-84398557D01*
X143166197Y-84417803D01*
X143185443Y-84433597D01*
X143207399Y-84445333D01*
X143231224Y-84452560D01*
X143256000Y-84455000D01*
X147810983Y-84455000D01*
X147828000Y-84456676D01*
X147845017Y-84455000D01*
X153799001Y-84455000D01*
X153799000Y-97341989D01*
X152543650Y-97341989D01*
X152581185Y-97311185D01*
X152660537Y-97214494D01*
X152719502Y-97104180D01*
X152755812Y-96984482D01*
X152768072Y-96860000D01*
X152768072Y-95860000D01*
X152755812Y-95735518D01*
X152719502Y-95615820D01*
X152660537Y-95505506D01*
X152581185Y-95408815D01*
X152484494Y-95329463D01*
X152374180Y-95270498D01*
X152254482Y-95234188D01*
X152130000Y-95221928D01*
X150130000Y-95221928D01*
X150005518Y-95234188D01*
X149885820Y-95270498D01*
X149775506Y-95329463D01*
X149678815Y-95408815D01*
X149599463Y-95505506D01*
X149540498Y-95615820D01*
X149504188Y-95735518D01*
X149491928Y-95860000D01*
X149491928Y-96860000D01*
X149504188Y-96984482D01*
X149540498Y-97104180D01*
X149599463Y-97214494D01*
X149678815Y-97311185D01*
X149716350Y-97341989D01*
X143145650Y-97341989D01*
X143183185Y-97311185D01*
X143262537Y-97214494D01*
X143321502Y-97104180D01*
X143357812Y-96984482D01*
X143370072Y-96860000D01*
X143370072Y-95860000D01*
X143357812Y-95735518D01*
X143321502Y-95615820D01*
X143262537Y-95505506D01*
X143183185Y-95408815D01*
X143086494Y-95329463D01*
X142976180Y-95270498D01*
X142856482Y-95234188D01*
X142732000Y-95221928D01*
X140732000Y-95221928D01*
X140607518Y-95234188D01*
X140487820Y-95270498D01*
X140377506Y-95329463D01*
X140280815Y-95408815D01*
X140201463Y-95505506D01*
X140142498Y-95615820D01*
X140106188Y-95735518D01*
X140093928Y-95860000D01*
X140093928Y-96860000D01*
X140106188Y-96984482D01*
X140142498Y-97104180D01*
X140201463Y-97214494D01*
X140280815Y-97311185D01*
X140318350Y-97341989D01*
X133747650Y-97341989D01*
X133785185Y-97311185D01*
X133864537Y-97214494D01*
X133923502Y-97104180D01*
X133959812Y-96984482D01*
X133972072Y-96860000D01*
X133972072Y-95860000D01*
X133959812Y-95735518D01*
X133923502Y-95615820D01*
X133864537Y-95505506D01*
X133785185Y-95408815D01*
X133688494Y-95329463D01*
X133578180Y-95270498D01*
X133458482Y-95234188D01*
X133334000Y-95221928D01*
X131334000Y-95221928D01*
X131209518Y-95234188D01*
X131089820Y-95270498D01*
X130979506Y-95329463D01*
X130882815Y-95408815D01*
X130803463Y-95505506D01*
X130744498Y-95615820D01*
X130708188Y-95735518D01*
X130695928Y-95860000D01*
X130695928Y-96860000D01*
X130708188Y-96984482D01*
X130744498Y-97104180D01*
X130803463Y-97214494D01*
X130882815Y-97311185D01*
X130920350Y-97341989D01*
X124349650Y-97341989D01*
X124387185Y-97311185D01*
X124466537Y-97214494D01*
X124525502Y-97104180D01*
X124561812Y-96984482D01*
X124574072Y-96860000D01*
X124574072Y-95860000D01*
X124561812Y-95735518D01*
X124525502Y-95615820D01*
X124466537Y-95505506D01*
X124387185Y-95408815D01*
X124290494Y-95329463D01*
X124180180Y-95270498D01*
X124060482Y-95234188D01*
X123936000Y-95221928D01*
X121936000Y-95221928D01*
X121811518Y-95234188D01*
X121691820Y-95270498D01*
X121581506Y-95329463D01*
X121484815Y-95408815D01*
X121405463Y-95505506D01*
X121346498Y-95615820D01*
X121310188Y-95735518D01*
X121297928Y-95860000D01*
X121297928Y-96860000D01*
X121310188Y-96984482D01*
X121346498Y-97104180D01*
X121405463Y-97214494D01*
X121484815Y-97311185D01*
X121522350Y-97341989D01*
X106036791Y-97341989D01*
X105810000Y-97115198D01*
X105810000Y-97053061D01*
X105770226Y-96853102D01*
X105692205Y-96664744D01*
X105578937Y-96495226D01*
X105434774Y-96351063D01*
X105265256Y-96237795D01*
X105117010Y-96176389D01*
X105117010Y-87560000D01*
X121297928Y-87560000D01*
X121297928Y-88560000D01*
X121310188Y-88684482D01*
X121346498Y-88804180D01*
X121405463Y-88914494D01*
X121484815Y-89011185D01*
X121581506Y-89090537D01*
X121691820Y-89149502D01*
X121811518Y-89185812D01*
X121936000Y-89198072D01*
X123936000Y-89198072D01*
X124060482Y-89185812D01*
X124180180Y-89149502D01*
X124290494Y-89090537D01*
X124387185Y-89011185D01*
X124466537Y-88914494D01*
X124525502Y-88804180D01*
X124561812Y-88684482D01*
X124574072Y-88560000D01*
X124574072Y-87560000D01*
X130695928Y-87560000D01*
X130695928Y-88560000D01*
X130708188Y-88684482D01*
X130744498Y-88804180D01*
X130803463Y-88914494D01*
X130882815Y-89011185D01*
X130979506Y-89090537D01*
X131089820Y-89149502D01*
X131209518Y-89185812D01*
X131334000Y-89198072D01*
X133334000Y-89198072D01*
X133458482Y-89185812D01*
X133578180Y-89149502D01*
X133688494Y-89090537D01*
X133785185Y-89011185D01*
X133864537Y-88914494D01*
X133923502Y-88804180D01*
X133959812Y-88684482D01*
X133972072Y-88560000D01*
X133972072Y-87560000D01*
X140093928Y-87560000D01*
X140093928Y-88560000D01*
X140106188Y-88684482D01*
X140142498Y-88804180D01*
X140201463Y-88914494D01*
X140280815Y-89011185D01*
X140377506Y-89090537D01*
X140487820Y-89149502D01*
X140607518Y-89185812D01*
X140732000Y-89198072D01*
X142732000Y-89198072D01*
X142856482Y-89185812D01*
X142976180Y-89149502D01*
X143086494Y-89090537D01*
X143183185Y-89011185D01*
X143262537Y-88914494D01*
X143321502Y-88804180D01*
X143357812Y-88684482D01*
X143370072Y-88560000D01*
X143370072Y-87560000D01*
X149491928Y-87560000D01*
X149491928Y-88560000D01*
X149504188Y-88684482D01*
X149540498Y-88804180D01*
X149599463Y-88914494D01*
X149678815Y-89011185D01*
X149775506Y-89090537D01*
X149885820Y-89149502D01*
X150005518Y-89185812D01*
X150130000Y-89198072D01*
X152130000Y-89198072D01*
X152254482Y-89185812D01*
X152374180Y-89149502D01*
X152484494Y-89090537D01*
X152581185Y-89011185D01*
X152660537Y-88914494D01*
X152719502Y-88804180D01*
X152755812Y-88684482D01*
X152768072Y-88560000D01*
X152768072Y-87560000D01*
X152755812Y-87435518D01*
X152719502Y-87315820D01*
X152660537Y-87205506D01*
X152581185Y-87108815D01*
X152484494Y-87029463D01*
X152374180Y-86970498D01*
X152254482Y-86934188D01*
X152130000Y-86921928D01*
X150130000Y-86921928D01*
X150005518Y-86934188D01*
X149885820Y-86970498D01*
X149775506Y-87029463D01*
X149678815Y-87108815D01*
X149599463Y-87205506D01*
X149540498Y-87315820D01*
X149504188Y-87435518D01*
X149491928Y-87560000D01*
X143370072Y-87560000D01*
X143357812Y-87435518D01*
X143321502Y-87315820D01*
X143262537Y-87205506D01*
X143183185Y-87108815D01*
X143086494Y-87029463D01*
X142976180Y-86970498D01*
X142856482Y-86934188D01*
X142732000Y-86921928D01*
X140732000Y-86921928D01*
X140607518Y-86934188D01*
X140487820Y-86970498D01*
X140377506Y-87029463D01*
X140280815Y-87108815D01*
X140201463Y-87205506D01*
X140142498Y-87315820D01*
X140106188Y-87435518D01*
X140093928Y-87560000D01*
X133972072Y-87560000D01*
X133959812Y-87435518D01*
X133923502Y-87315820D01*
X133864537Y-87205506D01*
X133785185Y-87108815D01*
X133688494Y-87029463D01*
X133578180Y-86970498D01*
X133458482Y-86934188D01*
X133334000Y-86921928D01*
X131334000Y-86921928D01*
X131209518Y-86934188D01*
X131089820Y-86970498D01*
X130979506Y-87029463D01*
X130882815Y-87108815D01*
X130803463Y-87205506D01*
X130744498Y-87315820D01*
X130708188Y-87435518D01*
X130695928Y-87560000D01*
X124574072Y-87560000D01*
X124561812Y-87435518D01*
X124525502Y-87315820D01*
X124466537Y-87205506D01*
X124387185Y-87108815D01*
X124290494Y-87029463D01*
X124180180Y-86970498D01*
X124060482Y-86934188D01*
X123936000Y-86921928D01*
X121936000Y-86921928D01*
X121811518Y-86934188D01*
X121691820Y-86970498D01*
X121581506Y-87029463D01*
X121484815Y-87108815D01*
X121405463Y-87205506D01*
X121346498Y-87315820D01*
X121310188Y-87435518D01*
X121297928Y-87560000D01*
X105117010Y-87560000D01*
X105117010Y-85225000D01*
X121397928Y-85225000D01*
X121397928Y-86225000D01*
X121410188Y-86349482D01*
X121446498Y-86469180D01*
X121505463Y-86579494D01*
X121584815Y-86676185D01*
X121681506Y-86755537D01*
X121791820Y-86814502D01*
X121911518Y-86850812D01*
X122036000Y-86863072D01*
X123836000Y-86863072D01*
X123960482Y-86850812D01*
X124080180Y-86814502D01*
X124190494Y-86755537D01*
X124287185Y-86676185D01*
X124366537Y-86579494D01*
X124425502Y-86469180D01*
X124461812Y-86349482D01*
X124474072Y-86225000D01*
X124474072Y-85623061D01*
X127870000Y-85623061D01*
X127870000Y-85826939D01*
X127909774Y-86026898D01*
X127987795Y-86215256D01*
X128101063Y-86384774D01*
X128245226Y-86528937D01*
X128414744Y-86642205D01*
X128603102Y-86720226D01*
X128803061Y-86760000D01*
X129006939Y-86760000D01*
X129206898Y-86720226D01*
X129395256Y-86642205D01*
X129564774Y-86528937D01*
X129608711Y-86485000D01*
X130852954Y-86485000D01*
X130903463Y-86579494D01*
X130982815Y-86676185D01*
X131079506Y-86755537D01*
X131189820Y-86814502D01*
X131309518Y-86850812D01*
X131434000Y-86863072D01*
X133234000Y-86863072D01*
X133358482Y-86850812D01*
X133478180Y-86814502D01*
X133588494Y-86755537D01*
X133685185Y-86676185D01*
X133764537Y-86579494D01*
X133823502Y-86469180D01*
X133859812Y-86349482D01*
X133872072Y-86225000D01*
X140193928Y-86225000D01*
X140206188Y-86349482D01*
X140242498Y-86469180D01*
X140301463Y-86579494D01*
X140380815Y-86676185D01*
X140477506Y-86755537D01*
X140587820Y-86814502D01*
X140707518Y-86850812D01*
X140832000Y-86863072D01*
X141446250Y-86860000D01*
X141605000Y-86701250D01*
X141605000Y-85852000D01*
X141859000Y-85852000D01*
X141859000Y-86701250D01*
X142017750Y-86860000D01*
X142632000Y-86863072D01*
X142756482Y-86850812D01*
X142876180Y-86814502D01*
X142986494Y-86755537D01*
X143083185Y-86676185D01*
X143162537Y-86579494D01*
X143221502Y-86469180D01*
X143257812Y-86349482D01*
X143270072Y-86225000D01*
X149591928Y-86225000D01*
X149604188Y-86349482D01*
X149640498Y-86469180D01*
X149699463Y-86579494D01*
X149778815Y-86676185D01*
X149875506Y-86755537D01*
X149985820Y-86814502D01*
X150105518Y-86850812D01*
X150230000Y-86863072D01*
X150844250Y-86860000D01*
X151003000Y-86701250D01*
X151003000Y-85852000D01*
X151257000Y-85852000D01*
X151257000Y-86701250D01*
X151415750Y-86860000D01*
X152030000Y-86863072D01*
X152154482Y-86850812D01*
X152274180Y-86814502D01*
X152384494Y-86755537D01*
X152481185Y-86676185D01*
X152560537Y-86579494D01*
X152619502Y-86469180D01*
X152655812Y-86349482D01*
X152668072Y-86225000D01*
X152665000Y-86010750D01*
X152506250Y-85852000D01*
X151257000Y-85852000D01*
X151003000Y-85852000D01*
X149753750Y-85852000D01*
X149595000Y-86010750D01*
X149591928Y-86225000D01*
X143270072Y-86225000D01*
X143267000Y-86010750D01*
X143108250Y-85852000D01*
X141859000Y-85852000D01*
X141605000Y-85852000D01*
X140355750Y-85852000D01*
X140197000Y-86010750D01*
X140193928Y-86225000D01*
X133872072Y-86225000D01*
X133872072Y-85225000D01*
X140193928Y-85225000D01*
X140197000Y-85439250D01*
X140355750Y-85598000D01*
X141605000Y-85598000D01*
X141605000Y-84748750D01*
X141859000Y-84748750D01*
X141859000Y-85598000D01*
X143108250Y-85598000D01*
X143267000Y-85439250D01*
X143270072Y-85225000D01*
X149591928Y-85225000D01*
X149595000Y-85439250D01*
X149753750Y-85598000D01*
X151003000Y-85598000D01*
X151003000Y-84748750D01*
X151257000Y-84748750D01*
X151257000Y-85598000D01*
X152506250Y-85598000D01*
X152665000Y-85439250D01*
X152668072Y-85225000D01*
X152655812Y-85100518D01*
X152619502Y-84980820D01*
X152560537Y-84870506D01*
X152481185Y-84773815D01*
X152384494Y-84694463D01*
X152274180Y-84635498D01*
X152154482Y-84599188D01*
X152030000Y-84586928D01*
X151415750Y-84590000D01*
X151257000Y-84748750D01*
X151003000Y-84748750D01*
X150844250Y-84590000D01*
X150230000Y-84586928D01*
X150105518Y-84599188D01*
X149985820Y-84635498D01*
X149875506Y-84694463D01*
X149778815Y-84773815D01*
X149699463Y-84870506D01*
X149640498Y-84980820D01*
X149604188Y-85100518D01*
X149591928Y-85225000D01*
X143270072Y-85225000D01*
X143257812Y-85100518D01*
X143221502Y-84980820D01*
X143162537Y-84870506D01*
X143083185Y-84773815D01*
X142986494Y-84694463D01*
X142876180Y-84635498D01*
X142756482Y-84599188D01*
X142632000Y-84586928D01*
X142017750Y-84590000D01*
X141859000Y-84748750D01*
X141605000Y-84748750D01*
X141446250Y-84590000D01*
X140832000Y-84586928D01*
X140707518Y-84599188D01*
X140587820Y-84635498D01*
X140477506Y-84694463D01*
X140380815Y-84773815D01*
X140301463Y-84870506D01*
X140242498Y-84980820D01*
X140206188Y-85100518D01*
X140193928Y-85225000D01*
X133872072Y-85225000D01*
X133859812Y-85100518D01*
X133823502Y-84980820D01*
X133764537Y-84870506D01*
X133685185Y-84773815D01*
X133588494Y-84694463D01*
X133478180Y-84635498D01*
X133358482Y-84599188D01*
X133234000Y-84586928D01*
X131434000Y-84586928D01*
X131309518Y-84599188D01*
X131189820Y-84635498D01*
X131079506Y-84694463D01*
X130982815Y-84773815D01*
X130903463Y-84870506D01*
X130852954Y-84965000D01*
X129608711Y-84965000D01*
X129564774Y-84921063D01*
X129395256Y-84807795D01*
X129206898Y-84729774D01*
X129006939Y-84690000D01*
X128803061Y-84690000D01*
X128603102Y-84729774D01*
X128414744Y-84807795D01*
X128245226Y-84921063D01*
X128101063Y-85065226D01*
X127987795Y-85234744D01*
X127909774Y-85423102D01*
X127870000Y-85623061D01*
X124474072Y-85623061D01*
X124474072Y-85225000D01*
X124461812Y-85100518D01*
X124425502Y-84980820D01*
X124366537Y-84870506D01*
X124287185Y-84773815D01*
X124190494Y-84694463D01*
X124080180Y-84635498D01*
X123960482Y-84599188D01*
X123836000Y-84586928D01*
X122036000Y-84586928D01*
X121911518Y-84599188D01*
X121791820Y-84635498D01*
X121681506Y-84694463D01*
X121584815Y-84773815D01*
X121505463Y-84870506D01*
X121446498Y-84980820D01*
X121410188Y-85100518D01*
X121397928Y-85225000D01*
X105117010Y-85225000D01*
X105117010Y-82729278D01*
X105160947Y-82685341D01*
X105274215Y-82515823D01*
X105352236Y-82327465D01*
X105392010Y-82127506D01*
X105392010Y-81923628D01*
X105352236Y-81723669D01*
X105274215Y-81535311D01*
X105160947Y-81365793D01*
X105117010Y-81321856D01*
X105117010Y-77622061D01*
X112503000Y-77622061D01*
X112503000Y-77825939D01*
X112542774Y-78025898D01*
X112620795Y-78214256D01*
X112734063Y-78383774D01*
X112778000Y-78427711D01*
X112778001Y-80068288D01*
X112734063Y-80112226D01*
X112620795Y-80281744D01*
X112542774Y-80470102D01*
X112503000Y-80670061D01*
X112503000Y-80873939D01*
X112542774Y-81073898D01*
X112620795Y-81262256D01*
X112734063Y-81431774D01*
X112878226Y-81575937D01*
X113047744Y-81689205D01*
X113236102Y-81767226D01*
X113436061Y-81807000D01*
X113639939Y-81807000D01*
X113839898Y-81767226D01*
X114028256Y-81689205D01*
X114197774Y-81575937D01*
X114341937Y-81431774D01*
X114455205Y-81262256D01*
X114533226Y-81073898D01*
X114573000Y-80873939D01*
X114573000Y-80670061D01*
X114533226Y-80470102D01*
X114455205Y-80281744D01*
X114341937Y-80112226D01*
X114298000Y-80068289D01*
X114298000Y-79350000D01*
X122821928Y-79350000D01*
X122821928Y-80350000D01*
X122834188Y-80474482D01*
X122870498Y-80594180D01*
X122929463Y-80704494D01*
X123008815Y-80801185D01*
X123105506Y-80880537D01*
X123215820Y-80939502D01*
X123335518Y-80975812D01*
X123460000Y-80988072D01*
X125460000Y-80988072D01*
X125584482Y-80975812D01*
X125704180Y-80939502D01*
X125814494Y-80880537D01*
X125911185Y-80801185D01*
X125990537Y-80704494D01*
X126049502Y-80594180D01*
X126085812Y-80474482D01*
X126098072Y-80350000D01*
X126098072Y-80162061D01*
X130537000Y-80162061D01*
X130537000Y-80365939D01*
X130576774Y-80565898D01*
X130654795Y-80754256D01*
X130768063Y-80923774D01*
X130812000Y-80967711D01*
X130812001Y-81846288D01*
X130768063Y-81890226D01*
X130654795Y-82059744D01*
X130576774Y-82248102D01*
X130537000Y-82448061D01*
X130537000Y-82651939D01*
X130576774Y-82851898D01*
X130654795Y-83040256D01*
X130768063Y-83209774D01*
X130912226Y-83353937D01*
X131081744Y-83467205D01*
X131270102Y-83545226D01*
X131470061Y-83585000D01*
X131673939Y-83585000D01*
X131873898Y-83545226D01*
X132062256Y-83467205D01*
X132231774Y-83353937D01*
X132375937Y-83209774D01*
X132489205Y-83040256D01*
X132567226Y-82851898D01*
X132607000Y-82651939D01*
X132607000Y-82448061D01*
X132567226Y-82248102D01*
X132489205Y-82059744D01*
X132375937Y-81890226D01*
X132332000Y-81846289D01*
X132332000Y-81650000D01*
X135621928Y-81650000D01*
X135621928Y-83450000D01*
X135634188Y-83574482D01*
X135670498Y-83694180D01*
X135729463Y-83804494D01*
X135808815Y-83901185D01*
X135905506Y-83980537D01*
X136015820Y-84039502D01*
X136135518Y-84075812D01*
X136260000Y-84088072D01*
X138060000Y-84088072D01*
X138184482Y-84075812D01*
X138304180Y-84039502D01*
X138414494Y-83980537D01*
X138511185Y-83901185D01*
X138590537Y-83804494D01*
X138643880Y-83704697D01*
X138681495Y-83742312D01*
X138932905Y-83910299D01*
X139212257Y-84026011D01*
X139508816Y-84085000D01*
X139811184Y-84085000D01*
X140107743Y-84026011D01*
X140387095Y-83910299D01*
X140638505Y-83742312D01*
X140852312Y-83528505D01*
X140947738Y-83385690D01*
X141095920Y-83434475D01*
X141980395Y-82550000D01*
X141095920Y-81665525D01*
X140947738Y-81714310D01*
X140852312Y-81571495D01*
X140638505Y-81357688D01*
X140387095Y-81189701D01*
X140107743Y-81073989D01*
X139811184Y-81015000D01*
X139508816Y-81015000D01*
X139212257Y-81073989D01*
X138932905Y-81189701D01*
X138681495Y-81357688D01*
X138643880Y-81395303D01*
X138590537Y-81295506D01*
X138511185Y-81198815D01*
X138414494Y-81119463D01*
X138304180Y-81060498D01*
X138184482Y-81024188D01*
X138060000Y-81011928D01*
X136260000Y-81011928D01*
X136135518Y-81024188D01*
X136015820Y-81060498D01*
X135905506Y-81119463D01*
X135808815Y-81198815D01*
X135729463Y-81295506D01*
X135670498Y-81405820D01*
X135634188Y-81525518D01*
X135621928Y-81650000D01*
X132332000Y-81650000D01*
X132332000Y-80967711D01*
X132375937Y-80923774D01*
X132489205Y-80754256D01*
X132567226Y-80565898D01*
X132607000Y-80365939D01*
X132607000Y-80162061D01*
X132567226Y-79962102D01*
X132489205Y-79773744D01*
X132375937Y-79604226D01*
X132231774Y-79460063D01*
X132062256Y-79346795D01*
X131873898Y-79268774D01*
X131673939Y-79229000D01*
X131470061Y-79229000D01*
X131270102Y-79268774D01*
X131081744Y-79346795D01*
X130912226Y-79460063D01*
X130768063Y-79604226D01*
X130654795Y-79773744D01*
X130576774Y-79962102D01*
X130537000Y-80162061D01*
X126098072Y-80162061D01*
X126098072Y-79350000D01*
X126085812Y-79225518D01*
X126049502Y-79105820D01*
X125990537Y-78995506D01*
X125911185Y-78898815D01*
X125814494Y-78819463D01*
X125704180Y-78760498D01*
X125584482Y-78724188D01*
X125460000Y-78711928D01*
X123460000Y-78711928D01*
X123335518Y-78724188D01*
X123215820Y-78760498D01*
X123105506Y-78819463D01*
X123008815Y-78898815D01*
X122929463Y-78995506D01*
X122870498Y-79105820D01*
X122834188Y-79225518D01*
X122821928Y-79350000D01*
X114298000Y-79350000D01*
X114298000Y-78427711D01*
X114341937Y-78383774D01*
X114455205Y-78214256D01*
X114533226Y-78025898D01*
X114573000Y-77825939D01*
X114573000Y-77622061D01*
X114533226Y-77422102D01*
X114455205Y-77233744D01*
X114341937Y-77064226D01*
X114197774Y-76920063D01*
X114028256Y-76806795D01*
X113839898Y-76728774D01*
X113639939Y-76689000D01*
X113436061Y-76689000D01*
X113236102Y-76728774D01*
X113047744Y-76806795D01*
X112878226Y-76920063D01*
X112734063Y-77064226D01*
X112620795Y-77233744D01*
X112542774Y-77422102D01*
X112503000Y-77622061D01*
X105117010Y-77622061D01*
X105117010Y-74512002D01*
X132865000Y-74512002D01*
X132865000Y-75587997D01*
X132893867Y-75881087D01*
X133007943Y-76257146D01*
X133193193Y-76603725D01*
X133442497Y-76907503D01*
X133746275Y-77156807D01*
X134092853Y-77342057D01*
X134468912Y-77456133D01*
X134860000Y-77494652D01*
X135251087Y-77456133D01*
X135627146Y-77342057D01*
X135973725Y-77156807D01*
X136277503Y-76907503D01*
X136526807Y-76603725D01*
X136712057Y-76257147D01*
X136826133Y-75881088D01*
X136855000Y-75587998D01*
X136855000Y-74512003D01*
X136826133Y-74218913D01*
X136712057Y-73842853D01*
X136526807Y-73496275D01*
X136277503Y-73192497D01*
X135973725Y-72943193D01*
X135627147Y-72757943D01*
X135251088Y-72643867D01*
X134860000Y-72605348D01*
X134468913Y-72643867D01*
X134092854Y-72757943D01*
X133746276Y-72943193D01*
X133442498Y-73192497D01*
X133193194Y-73496275D01*
X133007943Y-73842853D01*
X132893867Y-74218912D01*
X132865000Y-74512002D01*
X105117010Y-74512002D01*
X105117010Y-73910509D01*
X105203898Y-73893226D01*
X105392256Y-73815205D01*
X105561774Y-73701937D01*
X105705937Y-73557774D01*
X105819205Y-73388256D01*
X105897226Y-73199898D01*
X105937000Y-72999939D01*
X105937000Y-72796061D01*
X105897226Y-72596102D01*
X105874842Y-72542061D01*
X107169000Y-72542061D01*
X107169000Y-72745939D01*
X107208774Y-72945898D01*
X107286795Y-73134256D01*
X107400063Y-73303774D01*
X107544226Y-73447937D01*
X107713744Y-73561205D01*
X107902102Y-73639226D01*
X108102061Y-73679000D01*
X108161329Y-73679000D01*
X108171999Y-73692001D01*
X108287724Y-73786974D01*
X108419753Y-73857546D01*
X108563014Y-73901003D01*
X108674667Y-73912000D01*
X108674676Y-73912000D01*
X108711999Y-73915676D01*
X108749322Y-73912000D01*
X109278289Y-73912000D01*
X109322226Y-73955937D01*
X109491744Y-74069205D01*
X109680102Y-74147226D01*
X109880061Y-74187000D01*
X110083939Y-74187000D01*
X110283898Y-74147226D01*
X110472256Y-74069205D01*
X110641774Y-73955937D01*
X110785937Y-73811774D01*
X110899205Y-73642256D01*
X110977226Y-73453898D01*
X111017000Y-73253939D01*
X111017000Y-73050061D01*
X110977226Y-72850102D01*
X110899205Y-72661744D01*
X110785937Y-72492226D01*
X110641774Y-72348063D01*
X110472256Y-72234795D01*
X110283898Y-72156774D01*
X110083939Y-72117000D01*
X109880061Y-72117000D01*
X109680102Y-72156774D01*
X109491744Y-72234795D01*
X109322226Y-72348063D01*
X109278289Y-72392000D01*
X109209151Y-72392000D01*
X109199226Y-72342102D01*
X109121205Y-72153744D01*
X109051886Y-72050000D01*
X122821928Y-72050000D01*
X122834188Y-72174482D01*
X122870498Y-72294180D01*
X122929463Y-72404494D01*
X123008815Y-72501185D01*
X123105506Y-72580537D01*
X123215820Y-72639502D01*
X123335518Y-72675812D01*
X123460000Y-72688072D01*
X124174250Y-72685000D01*
X124333000Y-72526250D01*
X124333000Y-71677000D01*
X124587000Y-71677000D01*
X124587000Y-72526250D01*
X124745750Y-72685000D01*
X125460000Y-72688072D01*
X125584482Y-72675812D01*
X125704180Y-72639502D01*
X125814494Y-72580537D01*
X125911185Y-72501185D01*
X125990537Y-72404494D01*
X126049502Y-72294180D01*
X126085812Y-72174482D01*
X126098072Y-72050000D01*
X126095000Y-71835750D01*
X125936250Y-71677000D01*
X124587000Y-71677000D01*
X124333000Y-71677000D01*
X122983750Y-71677000D01*
X122825000Y-71835750D01*
X122821928Y-72050000D01*
X109051886Y-72050000D01*
X109007937Y-71984226D01*
X108863774Y-71840063D01*
X108694256Y-71726795D01*
X108505898Y-71648774D01*
X108305939Y-71609000D01*
X108102061Y-71609000D01*
X107902102Y-71648774D01*
X107713744Y-71726795D01*
X107544226Y-71840063D01*
X107400063Y-71984226D01*
X107286795Y-72153744D01*
X107208774Y-72342102D01*
X107169000Y-72542061D01*
X105874842Y-72542061D01*
X105819205Y-72407744D01*
X105705937Y-72238226D01*
X105561774Y-72094063D01*
X105392256Y-71980795D01*
X105203898Y-71902774D01*
X105003939Y-71863000D01*
X104800061Y-71863000D01*
X104600102Y-71902774D01*
X104411744Y-71980795D01*
X104392000Y-71993987D01*
X104392000Y-71050000D01*
X122821928Y-71050000D01*
X122825000Y-71264250D01*
X122983750Y-71423000D01*
X124333000Y-71423000D01*
X124333000Y-70573750D01*
X124587000Y-70573750D01*
X124587000Y-71423000D01*
X125936250Y-71423000D01*
X126095000Y-71264250D01*
X126098072Y-71050000D01*
X126085812Y-70925518D01*
X126049502Y-70805820D01*
X125990537Y-70695506D01*
X125911185Y-70598815D01*
X125814494Y-70519463D01*
X125704180Y-70460498D01*
X125584482Y-70424188D01*
X125460000Y-70411928D01*
X124745750Y-70415000D01*
X124587000Y-70573750D01*
X124333000Y-70573750D01*
X124174250Y-70415000D01*
X123460000Y-70411928D01*
X123335518Y-70424188D01*
X123215820Y-70460498D01*
X123105506Y-70519463D01*
X123008815Y-70598815D01*
X122929463Y-70695506D01*
X122870498Y-70805820D01*
X122834188Y-70925518D01*
X122821928Y-71050000D01*
X104392000Y-71050000D01*
X104392000Y-69715000D01*
X122921928Y-69715000D01*
X122934188Y-69839482D01*
X122970498Y-69959180D01*
X123029463Y-70069494D01*
X123108815Y-70166185D01*
X123205506Y-70245537D01*
X123315820Y-70304502D01*
X123435518Y-70340812D01*
X123560000Y-70353072D01*
X124174250Y-70350000D01*
X124333000Y-70191250D01*
X124333000Y-69342000D01*
X124587000Y-69342000D01*
X124587000Y-70191250D01*
X124745750Y-70350000D01*
X125360000Y-70353072D01*
X125484482Y-70340812D01*
X125604180Y-70304502D01*
X125714494Y-70245537D01*
X125811185Y-70166185D01*
X125890537Y-70069494D01*
X125949502Y-69959180D01*
X125985812Y-69839482D01*
X125998072Y-69715000D01*
X125995000Y-69500750D01*
X125836250Y-69342000D01*
X124587000Y-69342000D01*
X124333000Y-69342000D01*
X123083750Y-69342000D01*
X122925000Y-69500750D01*
X122921928Y-69715000D01*
X104392000Y-69715000D01*
X104392000Y-68715000D01*
X122921928Y-68715000D01*
X122925000Y-68929250D01*
X123083750Y-69088000D01*
X124333000Y-69088000D01*
X124333000Y-68238750D01*
X124587000Y-68238750D01*
X124587000Y-69088000D01*
X125836250Y-69088000D01*
X125995000Y-68929250D01*
X125998072Y-68715000D01*
X125985812Y-68590518D01*
X125949502Y-68470820D01*
X125890537Y-68360506D01*
X125811185Y-68263815D01*
X125714494Y-68184463D01*
X125604180Y-68125498D01*
X125484482Y-68089188D01*
X125360000Y-68076928D01*
X124745750Y-68080000D01*
X124587000Y-68238750D01*
X124333000Y-68238750D01*
X124174250Y-68080000D01*
X123560000Y-68076928D01*
X123435518Y-68089188D01*
X123315820Y-68125498D01*
X123205506Y-68184463D01*
X123108815Y-68263815D01*
X123029463Y-68360506D01*
X122970498Y-68470820D01*
X122934188Y-68590518D01*
X122921928Y-68715000D01*
X104392000Y-68715000D01*
X104392000Y-66100801D01*
X104941802Y-65551000D01*
X105003939Y-65551000D01*
X105203898Y-65511226D01*
X105392256Y-65433205D01*
X105561774Y-65319937D01*
X105705937Y-65175774D01*
X105819205Y-65006256D01*
X105897226Y-64817898D01*
X105937000Y-64617939D01*
X105937000Y-64414061D01*
X105897226Y-64214102D01*
X105819205Y-64025744D01*
X105705937Y-63856226D01*
X105603711Y-63754000D01*
X105605711Y-63752000D01*
X106478969Y-63752000D01*
X106379408Y-63851561D01*
X106266140Y-64021079D01*
X106188119Y-64209437D01*
X106148345Y-64409396D01*
X106148345Y-64613274D01*
X106188119Y-64813233D01*
X106266140Y-65001591D01*
X106379408Y-65171109D01*
X106523571Y-65315272D01*
X106693089Y-65428540D01*
X106881447Y-65506561D01*
X107081406Y-65546335D01*
X107285284Y-65546335D01*
X107485243Y-65506561D01*
X107673601Y-65428540D01*
X107843119Y-65315272D01*
X107882391Y-65276000D01*
X108770289Y-65276000D01*
X108814226Y-65319937D01*
X108983744Y-65433205D01*
X109172102Y-65511226D01*
X109372061Y-65551000D01*
X109575939Y-65551000D01*
X109775898Y-65511226D01*
X109964256Y-65433205D01*
X110133774Y-65319937D01*
X110277937Y-65175774D01*
X110391205Y-65006256D01*
X110469226Y-64817898D01*
X110509000Y-64617939D01*
X110509000Y-64414061D01*
X110469226Y-64214102D01*
X110426106Y-64110000D01*
X122821928Y-64110000D01*
X122821928Y-65110000D01*
X122834188Y-65234482D01*
X122870498Y-65354180D01*
X122929463Y-65464494D01*
X123008815Y-65561185D01*
X123105506Y-65640537D01*
X123215820Y-65699502D01*
X123335518Y-65735812D01*
X123460000Y-65748072D01*
X125460000Y-65748072D01*
X125584482Y-65735812D01*
X125704180Y-65699502D01*
X125814494Y-65640537D01*
X125911185Y-65561185D01*
X125990537Y-65464494D01*
X126049502Y-65354180D01*
X126085812Y-65234482D01*
X126091565Y-65176061D01*
X126219000Y-65176061D01*
X126219000Y-65379939D01*
X126258774Y-65579898D01*
X126336795Y-65768256D01*
X126450063Y-65937774D01*
X126494001Y-65981712D01*
X126494000Y-68384289D01*
X126450063Y-68428226D01*
X126336795Y-68597744D01*
X126258774Y-68786102D01*
X126219000Y-68986061D01*
X126219000Y-69189939D01*
X126258774Y-69389898D01*
X126336795Y-69578256D01*
X126450063Y-69747774D01*
X126594226Y-69891937D01*
X126763744Y-70005205D01*
X126952102Y-70083226D01*
X127152061Y-70123000D01*
X127355939Y-70123000D01*
X127555898Y-70083226D01*
X127744256Y-70005205D01*
X127913774Y-69891937D01*
X128057937Y-69747774D01*
X128171205Y-69578256D01*
X128249226Y-69389898D01*
X128289000Y-69189939D01*
X128289000Y-68986061D01*
X128249226Y-68786102D01*
X128171205Y-68597744D01*
X128057937Y-68428226D01*
X128014000Y-68384289D01*
X128014000Y-66410000D01*
X135621928Y-66410000D01*
X135621928Y-68210000D01*
X135634188Y-68334482D01*
X135670498Y-68454180D01*
X135729463Y-68564494D01*
X135808815Y-68661185D01*
X135905506Y-68740537D01*
X136015820Y-68799502D01*
X136135518Y-68835812D01*
X136260000Y-68848072D01*
X138060000Y-68848072D01*
X138184482Y-68835812D01*
X138304180Y-68799502D01*
X138414494Y-68740537D01*
X138511185Y-68661185D01*
X138590537Y-68564494D01*
X138643880Y-68464697D01*
X138681495Y-68502312D01*
X138932905Y-68670299D01*
X139212257Y-68786011D01*
X139508816Y-68845000D01*
X139811184Y-68845000D01*
X140107743Y-68786011D01*
X140387095Y-68670299D01*
X140638505Y-68502312D01*
X140852312Y-68288505D01*
X140947738Y-68145690D01*
X141095920Y-68194475D01*
X141980395Y-67310000D01*
X141095920Y-66425525D01*
X140947738Y-66474310D01*
X140852312Y-66331495D01*
X140638505Y-66117688D01*
X140387095Y-65949701D01*
X140107743Y-65833989D01*
X139811184Y-65775000D01*
X139508816Y-65775000D01*
X139212257Y-65833989D01*
X138932905Y-65949701D01*
X138681495Y-66117688D01*
X138643880Y-66155303D01*
X138590537Y-66055506D01*
X138511185Y-65958815D01*
X138414494Y-65879463D01*
X138304180Y-65820498D01*
X138184482Y-65784188D01*
X138060000Y-65771928D01*
X136260000Y-65771928D01*
X136135518Y-65784188D01*
X136015820Y-65820498D01*
X135905506Y-65879463D01*
X135808815Y-65958815D01*
X135729463Y-66055506D01*
X135670498Y-66165820D01*
X135634188Y-66285518D01*
X135621928Y-66410000D01*
X128014000Y-66410000D01*
X128014000Y-65981711D01*
X128057937Y-65937774D01*
X128171205Y-65768256D01*
X128249226Y-65579898D01*
X128289000Y-65379939D01*
X128289000Y-65176061D01*
X128249226Y-64976102D01*
X128171205Y-64787744D01*
X128057937Y-64618226D01*
X127913774Y-64474063D01*
X127744256Y-64360795D01*
X127555898Y-64282774D01*
X127355939Y-64243000D01*
X127152061Y-64243000D01*
X126952102Y-64282774D01*
X126763744Y-64360795D01*
X126594226Y-64474063D01*
X126450063Y-64618226D01*
X126336795Y-64787744D01*
X126258774Y-64976102D01*
X126219000Y-65176061D01*
X126091565Y-65176061D01*
X126098072Y-65110000D01*
X126098072Y-64110000D01*
X126085812Y-63985518D01*
X126049502Y-63865820D01*
X125990537Y-63755506D01*
X125911185Y-63658815D01*
X125814494Y-63579463D01*
X125704180Y-63520498D01*
X125584482Y-63484188D01*
X125460000Y-63471928D01*
X123460000Y-63471928D01*
X123335518Y-63484188D01*
X123215820Y-63520498D01*
X123105506Y-63579463D01*
X123008815Y-63658815D01*
X122929463Y-63755506D01*
X122870498Y-63865820D01*
X122834188Y-63985518D01*
X122821928Y-64110000D01*
X110426106Y-64110000D01*
X110391205Y-64025744D01*
X110277937Y-63856226D01*
X110133774Y-63712063D01*
X109964256Y-63598795D01*
X109839786Y-63547237D01*
X109883205Y-63482256D01*
X109961226Y-63293898D01*
X110001000Y-63093939D01*
X110001000Y-62890061D01*
X109961226Y-62690102D01*
X109883205Y-62501744D01*
X109769937Y-62332226D01*
X109625774Y-62188063D01*
X109456256Y-62074795D01*
X109267898Y-61996774D01*
X109067939Y-61957000D01*
X108864061Y-61957000D01*
X108664102Y-61996774D01*
X108475744Y-62074795D01*
X108306226Y-62188063D01*
X108262289Y-62232000D01*
X105605711Y-62232000D01*
X105561774Y-62188063D01*
X105392256Y-62074795D01*
X105203898Y-61996774D01*
X105003939Y-61957000D01*
X104800061Y-61957000D01*
X104600102Y-61996774D01*
X104411744Y-62074795D01*
X104242226Y-62188063D01*
X104098063Y-62332226D01*
X103984795Y-62501744D01*
X103906774Y-62690102D01*
X103867000Y-62890061D01*
X103867000Y-63093939D01*
X103906774Y-63293898D01*
X103984795Y-63482256D01*
X104098063Y-63651774D01*
X104200289Y-63754000D01*
X104098063Y-63856226D01*
X103984795Y-64025744D01*
X103906774Y-64214102D01*
X103867000Y-64414061D01*
X103867000Y-64476198D01*
X103530000Y-64813199D01*
X103530000Y-59272002D01*
X132865000Y-59272002D01*
X132865000Y-60347997D01*
X132893867Y-60641087D01*
X133007943Y-61017146D01*
X133193193Y-61363725D01*
X133442497Y-61667503D01*
X133746275Y-61916807D01*
X134092853Y-62102057D01*
X134468912Y-62216133D01*
X134860000Y-62254652D01*
X135251087Y-62216133D01*
X135627146Y-62102057D01*
X135973725Y-61916807D01*
X136277503Y-61667503D01*
X136526807Y-61363725D01*
X136712057Y-61017147D01*
X136826133Y-60641088D01*
X136855000Y-60347998D01*
X136855000Y-59272003D01*
X136826133Y-58978913D01*
X136712057Y-58602853D01*
X136526807Y-58256275D01*
X136277503Y-57952497D01*
X135973725Y-57703193D01*
X135627147Y-57517943D01*
X135251088Y-57403867D01*
X134860000Y-57365348D01*
X134468913Y-57403867D01*
X134092854Y-57517943D01*
X133746276Y-57703193D01*
X133442498Y-57952497D01*
X133193194Y-58256275D01*
X133007943Y-58602853D01*
X132893867Y-58978912D01*
X132865000Y-59272002D01*
X103530000Y-59272002D01*
X103530000Y-56810000D01*
X122821928Y-56810000D01*
X122834188Y-56934482D01*
X122870498Y-57054180D01*
X122929463Y-57164494D01*
X123008815Y-57261185D01*
X123105506Y-57340537D01*
X123215820Y-57399502D01*
X123335518Y-57435812D01*
X123460000Y-57448072D01*
X124174250Y-57445000D01*
X124333000Y-57286250D01*
X124333000Y-56437000D01*
X124587000Y-56437000D01*
X124587000Y-57286250D01*
X124745750Y-57445000D01*
X125460000Y-57448072D01*
X125584482Y-57435812D01*
X125704180Y-57399502D01*
X125814494Y-57340537D01*
X125911185Y-57261185D01*
X125990537Y-57164494D01*
X126049502Y-57054180D01*
X126085812Y-56934482D01*
X126098072Y-56810000D01*
X126095000Y-56595750D01*
X125936250Y-56437000D01*
X124587000Y-56437000D01*
X124333000Y-56437000D01*
X122983750Y-56437000D01*
X122825000Y-56595750D01*
X122821928Y-56810000D01*
X103530000Y-56810000D01*
X103530000Y-55810000D01*
X122821928Y-55810000D01*
X122825000Y-56024250D01*
X122983750Y-56183000D01*
X124333000Y-56183000D01*
X124333000Y-55333750D01*
X124587000Y-55333750D01*
X124587000Y-56183000D01*
X125936250Y-56183000D01*
X126095000Y-56024250D01*
X126098072Y-55810000D01*
X126085812Y-55685518D01*
X126049502Y-55565820D01*
X125990537Y-55455506D01*
X125911185Y-55358815D01*
X125814494Y-55279463D01*
X125704180Y-55220498D01*
X125584482Y-55184188D01*
X125460000Y-55171928D01*
X124745750Y-55175000D01*
X124587000Y-55333750D01*
X124333000Y-55333750D01*
X124174250Y-55175000D01*
X123460000Y-55171928D01*
X123335518Y-55184188D01*
X123215820Y-55220498D01*
X123105506Y-55279463D01*
X123008815Y-55358815D01*
X122929463Y-55455506D01*
X122870498Y-55565820D01*
X122834188Y-55685518D01*
X122821928Y-55810000D01*
X103530000Y-55810000D01*
X103530000Y-54475000D01*
X122921928Y-54475000D01*
X122934188Y-54599482D01*
X122970498Y-54719180D01*
X123029463Y-54829494D01*
X123108815Y-54926185D01*
X123205506Y-55005537D01*
X123315820Y-55064502D01*
X123435518Y-55100812D01*
X123560000Y-55113072D01*
X124174250Y-55110000D01*
X124333000Y-54951250D01*
X124333000Y-54102000D01*
X124587000Y-54102000D01*
X124587000Y-54951250D01*
X124745750Y-55110000D01*
X125360000Y-55113072D01*
X125484482Y-55100812D01*
X125604180Y-55064502D01*
X125714494Y-55005537D01*
X125811185Y-54926185D01*
X125890537Y-54829494D01*
X125949502Y-54719180D01*
X125985812Y-54599482D01*
X125998072Y-54475000D01*
X125995000Y-54260750D01*
X125836250Y-54102000D01*
X124587000Y-54102000D01*
X124333000Y-54102000D01*
X123083750Y-54102000D01*
X122925000Y-54260750D01*
X122921928Y-54475000D01*
X103530000Y-54475000D01*
X103530000Y-53475000D01*
X122921928Y-53475000D01*
X122925000Y-53689250D01*
X123083750Y-53848000D01*
X124333000Y-53848000D01*
X124333000Y-52998750D01*
X124587000Y-52998750D01*
X124587000Y-53848000D01*
X125836250Y-53848000D01*
X125995000Y-53689250D01*
X125998072Y-53475000D01*
X125985812Y-53350518D01*
X125949502Y-53230820D01*
X125890537Y-53120506D01*
X125811185Y-53023815D01*
X125714494Y-52944463D01*
X125604180Y-52885498D01*
X125484482Y-52849188D01*
X125360000Y-52836928D01*
X124745750Y-52840000D01*
X124587000Y-52998750D01*
X124333000Y-52998750D01*
X124174250Y-52840000D01*
X123560000Y-52836928D01*
X123435518Y-52849188D01*
X123315820Y-52885498D01*
X123205506Y-52944463D01*
X123108815Y-53023815D01*
X123029463Y-53120506D01*
X122970498Y-53230820D01*
X122934188Y-53350518D01*
X122921928Y-53475000D01*
X103530000Y-53475000D01*
X103530000Y-51010801D01*
X104121000Y-51601802D01*
X104121000Y-51663939D01*
X104160774Y-51863898D01*
X104238795Y-52052256D01*
X104352063Y-52221774D01*
X104496226Y-52365937D01*
X104665744Y-52479205D01*
X104854102Y-52557226D01*
X105054061Y-52597000D01*
X105257939Y-52597000D01*
X105457898Y-52557226D01*
X105646256Y-52479205D01*
X105815774Y-52365937D01*
X105959937Y-52221774D01*
X106073205Y-52052256D01*
X106151226Y-51863898D01*
X106191000Y-51663939D01*
X106191000Y-51460061D01*
X106151226Y-51260102D01*
X106073205Y-51071744D01*
X105959937Y-50902226D01*
X105821783Y-50764072D01*
X106260000Y-50764072D01*
X106384482Y-50751812D01*
X106504180Y-50715502D01*
X106614494Y-50656537D01*
X106711185Y-50577185D01*
X106790537Y-50480494D01*
X106849502Y-50370180D01*
X106871513Y-50297620D01*
X107003368Y-50429475D01*
X107246589Y-50591990D01*
X107516842Y-50703932D01*
X107803740Y-50761000D01*
X108096260Y-50761000D01*
X108383158Y-50703932D01*
X108653411Y-50591990D01*
X108896632Y-50429475D01*
X109103475Y-50222632D01*
X109220000Y-50048240D01*
X109336525Y-50222632D01*
X109543368Y-50429475D01*
X109786589Y-50591990D01*
X110056842Y-50703932D01*
X110343740Y-50761000D01*
X110636260Y-50761000D01*
X110923158Y-50703932D01*
X111193411Y-50591990D01*
X111436632Y-50429475D01*
X111643475Y-50222632D01*
X111760000Y-50048240D01*
X111876525Y-50222632D01*
X112083368Y-50429475D01*
X112326589Y-50591990D01*
X112596842Y-50703932D01*
X112883740Y-50761000D01*
X113176260Y-50761000D01*
X113463158Y-50703932D01*
X113733411Y-50591990D01*
X113976632Y-50429475D01*
X114183475Y-50222632D01*
X114300000Y-50048240D01*
X114416525Y-50222632D01*
X114623368Y-50429475D01*
X114866589Y-50591990D01*
X115136842Y-50703932D01*
X115423740Y-50761000D01*
X115716260Y-50761000D01*
X116003158Y-50703932D01*
X116273411Y-50591990D01*
X116516632Y-50429475D01*
X116723475Y-50222632D01*
X116840000Y-50048240D01*
X116956525Y-50222632D01*
X117163368Y-50429475D01*
X117406589Y-50591990D01*
X117676842Y-50703932D01*
X117963740Y-50761000D01*
X118256260Y-50761000D01*
X118543158Y-50703932D01*
X118813411Y-50591990D01*
X119056632Y-50429475D01*
X119263475Y-50222632D01*
X119380000Y-50048240D01*
X119496525Y-50222632D01*
X119703368Y-50429475D01*
X119946589Y-50591990D01*
X120216842Y-50703932D01*
X120503740Y-50761000D01*
X120796260Y-50761000D01*
X121083158Y-50703932D01*
X121353411Y-50591990D01*
X121596632Y-50429475D01*
X121803475Y-50222632D01*
X121920000Y-50048240D01*
X122036525Y-50222632D01*
X122243368Y-50429475D01*
X122486589Y-50591990D01*
X122756842Y-50703932D01*
X123043740Y-50761000D01*
X123336260Y-50761000D01*
X123623158Y-50703932D01*
X123893411Y-50591990D01*
X124136632Y-50429475D01*
X124343475Y-50222632D01*
X124460000Y-50048240D01*
X124576525Y-50222632D01*
X124783368Y-50429475D01*
X125026589Y-50591990D01*
X125296842Y-50703932D01*
X125583740Y-50761000D01*
X125876260Y-50761000D01*
X126163158Y-50703932D01*
X126433411Y-50591990D01*
X126676632Y-50429475D01*
X126883475Y-50222632D01*
X127000000Y-50048240D01*
X127116525Y-50222632D01*
X127323368Y-50429475D01*
X127566589Y-50591990D01*
X127836842Y-50703932D01*
X128123740Y-50761000D01*
X128416260Y-50761000D01*
X128703158Y-50703932D01*
X128973411Y-50591990D01*
X129216632Y-50429475D01*
X129423475Y-50222632D01*
X129540000Y-50048240D01*
X129656525Y-50222632D01*
X129863368Y-50429475D01*
X130106589Y-50591990D01*
X130376842Y-50703932D01*
X130663740Y-50761000D01*
X130956260Y-50761000D01*
X131243158Y-50703932D01*
X131513411Y-50591990D01*
X131756632Y-50429475D01*
X131963475Y-50222632D01*
X132080000Y-50048240D01*
X132196525Y-50222632D01*
X132403368Y-50429475D01*
X132646589Y-50591990D01*
X132916842Y-50703932D01*
X133203740Y-50761000D01*
X133496260Y-50761000D01*
X133783158Y-50703932D01*
X134053411Y-50591990D01*
X134296632Y-50429475D01*
X134503475Y-50222632D01*
X134620000Y-50048240D01*
X134736525Y-50222632D01*
X134943368Y-50429475D01*
X135186589Y-50591990D01*
X135456842Y-50703932D01*
X135743740Y-50761000D01*
X136036260Y-50761000D01*
X136323158Y-50703932D01*
X136593411Y-50591990D01*
X136836632Y-50429475D01*
X137043475Y-50222632D01*
X137160000Y-50048240D01*
X137276525Y-50222632D01*
X137483368Y-50429475D01*
X137726589Y-50591990D01*
X137996842Y-50703932D01*
X138283740Y-50761000D01*
X138576260Y-50761000D01*
X138863158Y-50703932D01*
X139133411Y-50591990D01*
X139376632Y-50429475D01*
X139583475Y-50222632D01*
X139700000Y-50048240D01*
X139816525Y-50222632D01*
X140023368Y-50429475D01*
X140266589Y-50591990D01*
X140536842Y-50703932D01*
X140823740Y-50761000D01*
X141116260Y-50761000D01*
X141403158Y-50703932D01*
X141673411Y-50591990D01*
X141916632Y-50429475D01*
X142123475Y-50222632D01*
X142240000Y-50048240D01*
X142356525Y-50222632D01*
%TO.N,GNDD*%
G36*
X149976525Y-50222632D02*
G01*
X150183368Y-50429475D01*
X150426589Y-50591990D01*
X150696842Y-50703932D01*
X150983740Y-50761000D01*
X151276260Y-50761000D01*
X151563158Y-50703932D01*
X151734999Y-50632753D01*
X151735000Y-54391928D01*
X150280000Y-54391928D01*
X150155518Y-54404188D01*
X150035820Y-54440498D01*
X149925506Y-54499463D01*
X149828815Y-54578815D01*
X149749463Y-54675506D01*
X149690498Y-54785820D01*
X149654188Y-54905518D01*
X149641928Y-55030000D01*
X149641928Y-56730000D01*
X149654188Y-56854482D01*
X149690498Y-56974180D01*
X149749463Y-57084494D01*
X149828815Y-57181185D01*
X149925506Y-57260537D01*
X150035820Y-57319502D01*
X150116466Y-57343966D01*
X150032412Y-57419731D01*
X149858359Y-57653080D01*
X149733175Y-57915901D01*
X149688524Y-58063110D01*
X149809845Y-58293000D01*
X151003000Y-58293000D01*
X151003000Y-58273000D01*
X151257000Y-58273000D01*
X151257000Y-58293000D01*
X153543000Y-58293000D01*
X153543000Y-58273000D01*
X153797000Y-58273000D01*
X153797000Y-58293000D01*
X153817000Y-58293000D01*
X153817000Y-58547000D01*
X153797000Y-58547000D01*
X153797000Y-60833000D01*
X153817000Y-60833000D01*
X153817000Y-61087000D01*
X153797000Y-61087000D01*
X153797000Y-63373000D01*
X153817000Y-63373000D01*
X153817000Y-63627000D01*
X153797000Y-63627000D01*
X153797000Y-63647000D01*
X153543000Y-63647000D01*
X153543000Y-63627000D01*
X151257000Y-63627000D01*
X151257000Y-63647000D01*
X151003000Y-63647000D01*
X151003000Y-63627000D01*
X149809845Y-63627000D01*
X149688524Y-63856890D01*
X149733175Y-64004099D01*
X149858359Y-64266920D01*
X150032412Y-64500269D01*
X150248645Y-64695178D01*
X150365534Y-64764805D01*
X150183368Y-64886525D01*
X149976525Y-65093368D01*
X149814010Y-65336589D01*
X149702068Y-65606842D01*
X149645000Y-65893740D01*
X149645000Y-66186260D01*
X149702068Y-66473158D01*
X149814010Y-66743411D01*
X149976525Y-66986632D01*
X150183368Y-67193475D01*
X150357760Y-67310000D01*
X150183368Y-67426525D01*
X149976525Y-67633368D01*
X149814010Y-67876589D01*
X149702068Y-68146842D01*
X149645000Y-68433740D01*
X149645000Y-68726260D01*
X149702068Y-69013158D01*
X149814010Y-69283411D01*
X149976525Y-69526632D01*
X150183368Y-69733475D01*
X150357760Y-69850000D01*
X150183368Y-69966525D01*
X149976525Y-70173368D01*
X149814010Y-70416589D01*
X149702068Y-70686842D01*
X149645000Y-70973740D01*
X149645000Y-71266260D01*
X149702068Y-71553158D01*
X149814010Y-71823411D01*
X149976525Y-72066632D01*
X150183368Y-72273475D01*
X150357760Y-72390000D01*
X150183368Y-72506525D01*
X149976525Y-72713368D01*
X149814010Y-72956589D01*
X149702068Y-73226842D01*
X149645000Y-73513740D01*
X149645000Y-73806260D01*
X149702068Y-74093158D01*
X149814010Y-74363411D01*
X149976525Y-74606632D01*
X150183368Y-74813475D01*
X150426589Y-74975990D01*
X150696842Y-75087932D01*
X150983740Y-75145000D01*
X151276260Y-75145000D01*
X151563158Y-75087932D01*
X151833411Y-74975990D01*
X152076632Y-74813475D01*
X152283475Y-74606632D01*
X152400000Y-74432240D01*
X152516525Y-74606632D01*
X152723368Y-74813475D01*
X152966589Y-74975990D01*
X153236842Y-75087932D01*
X153523740Y-75145000D01*
X153816260Y-75145000D01*
X154103158Y-75087932D01*
X154373411Y-74975990D01*
X154616632Y-74813475D01*
X154823475Y-74606632D01*
X154942001Y-74429246D01*
X154942001Y-82169000D01*
X147378801Y-82169000D01*
X146617000Y-81407199D01*
X146617000Y-80017711D01*
X146660937Y-79973774D01*
X146774205Y-79804256D01*
X146852226Y-79615898D01*
X146892000Y-79415939D01*
X146892000Y-79212061D01*
X146852226Y-79012102D01*
X146843899Y-78992000D01*
X148044678Y-78992000D01*
X148082000Y-78995676D01*
X148119322Y-78992000D01*
X148119333Y-78992000D01*
X148230986Y-78981003D01*
X148374247Y-78937546D01*
X148506276Y-78866974D01*
X148622001Y-78772001D01*
X148632671Y-78759000D01*
X148691939Y-78759000D01*
X148891898Y-78719226D01*
X149080256Y-78641205D01*
X149249774Y-78527937D01*
X149393937Y-78383774D01*
X149507205Y-78214256D01*
X149585226Y-78025898D01*
X149625000Y-77825939D01*
X149625000Y-77622061D01*
X149585226Y-77422102D01*
X149507205Y-77233744D01*
X149393937Y-77064226D01*
X149249774Y-76920063D01*
X149080256Y-76806795D01*
X148891898Y-76728774D01*
X148691939Y-76689000D01*
X148488061Y-76689000D01*
X148288102Y-76728774D01*
X148099744Y-76806795D01*
X147930226Y-76920063D01*
X147786063Y-77064226D01*
X147672795Y-77233744D01*
X147594774Y-77422102D01*
X147584849Y-77472000D01*
X145991711Y-77472000D01*
X145947774Y-77428063D01*
X145778256Y-77314795D01*
X145589898Y-77236774D01*
X145469078Y-77212742D01*
X145573725Y-77156807D01*
X145877503Y-76907503D01*
X146126807Y-76603725D01*
X146312057Y-76257147D01*
X146426133Y-75881088D01*
X146455000Y-75587998D01*
X146455000Y-74512003D01*
X146426133Y-74218913D01*
X146312057Y-73842853D01*
X146126807Y-73496275D01*
X145877503Y-73192497D01*
X145573725Y-72943193D01*
X145227147Y-72757943D01*
X144907000Y-72660828D01*
X144907000Y-62199172D01*
X145227146Y-62102057D01*
X145573725Y-61916807D01*
X145877503Y-61667503D01*
X146126807Y-61363725D01*
X146151840Y-61316890D01*
X149688524Y-61316890D01*
X149733175Y-61464099D01*
X149858359Y-61726920D01*
X150032412Y-61960269D01*
X150248645Y-62155178D01*
X150374255Y-62230000D01*
X150248645Y-62304822D01*
X150032412Y-62499731D01*
X149858359Y-62733080D01*
X149733175Y-62995901D01*
X149688524Y-63143110D01*
X149809845Y-63373000D01*
X151003000Y-63373000D01*
X151003000Y-61087000D01*
X151257000Y-61087000D01*
X151257000Y-63373000D01*
X153543000Y-63373000D01*
X153543000Y-61087000D01*
X151257000Y-61087000D01*
X151003000Y-61087000D01*
X149809845Y-61087000D01*
X149688524Y-61316890D01*
X146151840Y-61316890D01*
X146312057Y-61017147D01*
X146426133Y-60641088D01*
X146455000Y-60347998D01*
X146455000Y-59272003D01*
X146426133Y-58978913D01*
X146364851Y-58776890D01*
X149688524Y-58776890D01*
X149733175Y-58924099D01*
X149858359Y-59186920D01*
X150032412Y-59420269D01*
X150248645Y-59615178D01*
X150374255Y-59690000D01*
X150248645Y-59764822D01*
X150032412Y-59959731D01*
X149858359Y-60193080D01*
X149733175Y-60455901D01*
X149688524Y-60603110D01*
X149809845Y-60833000D01*
X151003000Y-60833000D01*
X151003000Y-58547000D01*
X151257000Y-58547000D01*
X151257000Y-60833000D01*
X153543000Y-60833000D01*
X153543000Y-58547000D01*
X151257000Y-58547000D01*
X151003000Y-58547000D01*
X149809845Y-58547000D01*
X149688524Y-58776890D01*
X146364851Y-58776890D01*
X146312057Y-58602853D01*
X146126807Y-58256275D01*
X145877503Y-57952497D01*
X145573725Y-57703193D01*
X145227147Y-57517943D01*
X144907000Y-57420828D01*
X144907000Y-50233107D01*
X145103368Y-50429475D01*
X145346589Y-50591990D01*
X145616842Y-50703932D01*
X145903740Y-50761000D01*
X146196260Y-50761000D01*
X146483158Y-50703932D01*
X146753411Y-50591990D01*
X146996632Y-50429475D01*
X147203475Y-50222632D01*
X147320000Y-50048240D01*
X147436525Y-50222632D01*
X147643368Y-50429475D01*
X147886589Y-50591990D01*
X148156842Y-50703932D01*
X148443740Y-50761000D01*
X148736260Y-50761000D01*
X149023158Y-50703932D01*
X149293411Y-50591990D01*
X149536632Y-50429475D01*
X149743475Y-50222632D01*
X149860000Y-50048240D01*
X149976525Y-50222632D01*
G37*
X149976525Y-50222632D02*
X150183368Y-50429475D01*
X150426589Y-50591990D01*
X150696842Y-50703932D01*
X150983740Y-50761000D01*
X151276260Y-50761000D01*
X151563158Y-50703932D01*
X151734999Y-50632753D01*
X151735000Y-54391928D01*
X150280000Y-54391928D01*
X150155518Y-54404188D01*
X150035820Y-54440498D01*
X149925506Y-54499463D01*
X149828815Y-54578815D01*
X149749463Y-54675506D01*
X149690498Y-54785820D01*
X149654188Y-54905518D01*
X149641928Y-55030000D01*
X149641928Y-56730000D01*
X149654188Y-56854482D01*
X149690498Y-56974180D01*
X149749463Y-57084494D01*
X149828815Y-57181185D01*
X149925506Y-57260537D01*
X150035820Y-57319502D01*
X150116466Y-57343966D01*
X150032412Y-57419731D01*
X149858359Y-57653080D01*
X149733175Y-57915901D01*
X149688524Y-58063110D01*
X149809845Y-58293000D01*
X151003000Y-58293000D01*
X151003000Y-58273000D01*
X151257000Y-58273000D01*
X151257000Y-58293000D01*
X153543000Y-58293000D01*
X153543000Y-58273000D01*
X153797000Y-58273000D01*
X153797000Y-58293000D01*
X153817000Y-58293000D01*
X153817000Y-58547000D01*
X153797000Y-58547000D01*
X153797000Y-60833000D01*
X153817000Y-60833000D01*
X153817000Y-61087000D01*
X153797000Y-61087000D01*
X153797000Y-63373000D01*
X153817000Y-63373000D01*
X153817000Y-63627000D01*
X153797000Y-63627000D01*
X153797000Y-63647000D01*
X153543000Y-63647000D01*
X153543000Y-63627000D01*
X151257000Y-63627000D01*
X151257000Y-63647000D01*
X151003000Y-63647000D01*
X151003000Y-63627000D01*
X149809845Y-63627000D01*
X149688524Y-63856890D01*
X149733175Y-64004099D01*
X149858359Y-64266920D01*
X150032412Y-64500269D01*
X150248645Y-64695178D01*
X150365534Y-64764805D01*
X150183368Y-64886525D01*
X149976525Y-65093368D01*
X149814010Y-65336589D01*
X149702068Y-65606842D01*
X149645000Y-65893740D01*
X149645000Y-66186260D01*
X149702068Y-66473158D01*
X149814010Y-66743411D01*
X149976525Y-66986632D01*
X150183368Y-67193475D01*
X150357760Y-67310000D01*
X150183368Y-67426525D01*
X149976525Y-67633368D01*
X149814010Y-67876589D01*
X149702068Y-68146842D01*
X149645000Y-68433740D01*
X149645000Y-68726260D01*
X149702068Y-69013158D01*
X149814010Y-69283411D01*
X149976525Y-69526632D01*
X150183368Y-69733475D01*
X150357760Y-69850000D01*
X150183368Y-69966525D01*
X149976525Y-70173368D01*
X149814010Y-70416589D01*
X149702068Y-70686842D01*
X149645000Y-70973740D01*
X149645000Y-71266260D01*
X149702068Y-71553158D01*
X149814010Y-71823411D01*
X149976525Y-72066632D01*
X150183368Y-72273475D01*
X150357760Y-72390000D01*
X150183368Y-72506525D01*
X149976525Y-72713368D01*
X149814010Y-72956589D01*
X149702068Y-73226842D01*
X149645000Y-73513740D01*
X149645000Y-73806260D01*
X149702068Y-74093158D01*
X149814010Y-74363411D01*
X149976525Y-74606632D01*
X150183368Y-74813475D01*
X150426589Y-74975990D01*
X150696842Y-75087932D01*
X150983740Y-75145000D01*
X151276260Y-75145000D01*
X151563158Y-75087932D01*
X151833411Y-74975990D01*
X152076632Y-74813475D01*
X152283475Y-74606632D01*
X152400000Y-74432240D01*
X152516525Y-74606632D01*
X152723368Y-74813475D01*
X152966589Y-74975990D01*
X153236842Y-75087932D01*
X153523740Y-75145000D01*
X153816260Y-75145000D01*
X154103158Y-75087932D01*
X154373411Y-74975990D01*
X154616632Y-74813475D01*
X154823475Y-74606632D01*
X154942001Y-74429246D01*
X154942001Y-82169000D01*
X147378801Y-82169000D01*
X146617000Y-81407199D01*
X146617000Y-80017711D01*
X146660937Y-79973774D01*
X146774205Y-79804256D01*
X146852226Y-79615898D01*
X146892000Y-79415939D01*
X146892000Y-79212061D01*
X146852226Y-79012102D01*
X146843899Y-78992000D01*
X148044678Y-78992000D01*
X148082000Y-78995676D01*
X148119322Y-78992000D01*
X148119333Y-78992000D01*
X148230986Y-78981003D01*
X148374247Y-78937546D01*
X148506276Y-78866974D01*
X148622001Y-78772001D01*
X148632671Y-78759000D01*
X148691939Y-78759000D01*
X148891898Y-78719226D01*
X149080256Y-78641205D01*
X149249774Y-78527937D01*
X149393937Y-78383774D01*
X149507205Y-78214256D01*
X149585226Y-78025898D01*
X149625000Y-77825939D01*
X149625000Y-77622061D01*
X149585226Y-77422102D01*
X149507205Y-77233744D01*
X149393937Y-77064226D01*
X149249774Y-76920063D01*
X149080256Y-76806795D01*
X148891898Y-76728774D01*
X148691939Y-76689000D01*
X148488061Y-76689000D01*
X148288102Y-76728774D01*
X148099744Y-76806795D01*
X147930226Y-76920063D01*
X147786063Y-77064226D01*
X147672795Y-77233744D01*
X147594774Y-77422102D01*
X147584849Y-77472000D01*
X145991711Y-77472000D01*
X145947774Y-77428063D01*
X145778256Y-77314795D01*
X145589898Y-77236774D01*
X145469078Y-77212742D01*
X145573725Y-77156807D01*
X145877503Y-76907503D01*
X146126807Y-76603725D01*
X146312057Y-76257147D01*
X146426133Y-75881088D01*
X146455000Y-75587998D01*
X146455000Y-74512003D01*
X146426133Y-74218913D01*
X146312057Y-73842853D01*
X146126807Y-73496275D01*
X145877503Y-73192497D01*
X145573725Y-72943193D01*
X145227147Y-72757943D01*
X144907000Y-72660828D01*
X144907000Y-62199172D01*
X145227146Y-62102057D01*
X145573725Y-61916807D01*
X145877503Y-61667503D01*
X146126807Y-61363725D01*
X146151840Y-61316890D01*
X149688524Y-61316890D01*
X149733175Y-61464099D01*
X149858359Y-61726920D01*
X150032412Y-61960269D01*
X150248645Y-62155178D01*
X150374255Y-62230000D01*
X150248645Y-62304822D01*
X150032412Y-62499731D01*
X149858359Y-62733080D01*
X149733175Y-62995901D01*
X149688524Y-63143110D01*
X149809845Y-63373000D01*
X151003000Y-63373000D01*
X151003000Y-61087000D01*
X151257000Y-61087000D01*
X151257000Y-63373000D01*
X153543000Y-63373000D01*
X153543000Y-61087000D01*
X151257000Y-61087000D01*
X151003000Y-61087000D01*
X149809845Y-61087000D01*
X149688524Y-61316890D01*
X146151840Y-61316890D01*
X146312057Y-61017147D01*
X146426133Y-60641088D01*
X146455000Y-60347998D01*
X146455000Y-59272003D01*
X146426133Y-58978913D01*
X146364851Y-58776890D01*
X149688524Y-58776890D01*
X149733175Y-58924099D01*
X149858359Y-59186920D01*
X150032412Y-59420269D01*
X150248645Y-59615178D01*
X150374255Y-59690000D01*
X150248645Y-59764822D01*
X150032412Y-59959731D01*
X149858359Y-60193080D01*
X149733175Y-60455901D01*
X149688524Y-60603110D01*
X149809845Y-60833000D01*
X151003000Y-60833000D01*
X151003000Y-58547000D01*
X151257000Y-58547000D01*
X151257000Y-60833000D01*
X153543000Y-60833000D01*
X153543000Y-58547000D01*
X151257000Y-58547000D01*
X151003000Y-58547000D01*
X149809845Y-58547000D01*
X149688524Y-58776890D01*
X146364851Y-58776890D01*
X146312057Y-58602853D01*
X146126807Y-58256275D01*
X145877503Y-57952497D01*
X145573725Y-57703193D01*
X145227147Y-57517943D01*
X144907000Y-57420828D01*
X144907000Y-50233107D01*
X145103368Y-50429475D01*
X145346589Y-50591990D01*
X145616842Y-50703932D01*
X145903740Y-50761000D01*
X146196260Y-50761000D01*
X146483158Y-50703932D01*
X146753411Y-50591990D01*
X146996632Y-50429475D01*
X147203475Y-50222632D01*
X147320000Y-50048240D01*
X147436525Y-50222632D01*
X147643368Y-50429475D01*
X147886589Y-50591990D01*
X148156842Y-50703932D01*
X148443740Y-50761000D01*
X148736260Y-50761000D01*
X149023158Y-50703932D01*
X149293411Y-50591990D01*
X149536632Y-50429475D01*
X149743475Y-50222632D01*
X149860000Y-50048240D01*
X149976525Y-50222632D01*
G36*
X155550000Y-41087663D02*
G01*
X155488904Y-40996226D01*
X155344741Y-40852063D01*
X155175223Y-40738795D01*
X154986865Y-40660774D01*
X154786906Y-40621000D01*
X154583028Y-40621000D01*
X154383069Y-40660774D01*
X154194711Y-40738795D01*
X154025193Y-40852063D01*
X153881030Y-40996226D01*
X153767762Y-41165744D01*
X153689741Y-41354102D01*
X153649967Y-41554061D01*
X153649967Y-41757939D01*
X153689741Y-41957898D01*
X153767762Y-42146256D01*
X153881030Y-42315774D01*
X154025193Y-42459937D01*
X154194711Y-42573205D01*
X154383069Y-42651226D01*
X154399980Y-42654590D01*
X154399980Y-47986764D01*
X154174099Y-47879175D01*
X154026890Y-47834524D01*
X153797000Y-47955845D01*
X153797000Y-49149000D01*
X153817000Y-49149000D01*
X153817000Y-49403000D01*
X153797000Y-49403000D01*
X153797000Y-50596155D01*
X154026890Y-50717476D01*
X154174099Y-50672825D01*
X154399980Y-50565236D01*
X154399981Y-54581763D01*
X154373411Y-54564010D01*
X154103158Y-54452068D01*
X153816260Y-54395000D01*
X153523740Y-54395000D01*
X153303592Y-54438791D01*
X153254999Y-54390198D01*
X153254999Y-50699850D01*
X153313110Y-50717476D01*
X153543000Y-50596155D01*
X153543000Y-49403000D01*
X153523000Y-49403000D01*
X153523000Y-49149000D01*
X153543000Y-49149000D01*
X153543000Y-47955845D01*
X153313110Y-47834524D01*
X153254999Y-47852150D01*
X153254999Y-47249322D01*
X153258675Y-47211999D01*
X153254999Y-47174676D01*
X153254999Y-47174666D01*
X153244002Y-47063013D01*
X153200545Y-46919752D01*
X153129974Y-46787724D01*
X153129973Y-46787722D01*
X153058798Y-46700996D01*
X153035000Y-46671998D01*
X153006003Y-46648201D01*
X151820804Y-45463003D01*
X151797001Y-45433999D01*
X151681276Y-45339026D01*
X151549247Y-45268454D01*
X151405986Y-45224997D01*
X151294333Y-45214000D01*
X151294322Y-45214000D01*
X151257000Y-45210324D01*
X151219678Y-45214000D01*
X144907000Y-45214000D01*
X144907000Y-29913107D01*
X145103368Y-30109475D01*
X145346589Y-30271990D01*
X145616842Y-30383932D01*
X145903740Y-30441000D01*
X146196260Y-30441000D01*
X146483158Y-30383932D01*
X146753411Y-30271990D01*
X146996632Y-30109475D01*
X147203475Y-29902632D01*
X147320000Y-29728240D01*
X147436525Y-29902632D01*
X147643368Y-30109475D01*
X147886589Y-30271990D01*
X148156842Y-30383932D01*
X148443740Y-30441000D01*
X148570198Y-30441000D01*
X146554998Y-32456201D01*
X146526000Y-32479999D01*
X146502202Y-32508997D01*
X146502201Y-32508998D01*
X146431026Y-32595724D01*
X146360454Y-32727754D01*
X146316998Y-32871015D01*
X146302324Y-33020000D01*
X146306001Y-33057332D01*
X146306000Y-38412289D01*
X146262063Y-38456226D01*
X146148795Y-38625744D01*
X146070774Y-38814102D01*
X146031000Y-39014061D01*
X146031000Y-39217939D01*
X146070774Y-39417898D01*
X146148795Y-39606256D01*
X146262063Y-39775774D01*
X146406226Y-39919937D01*
X146575744Y-40033205D01*
X146764102Y-40111226D01*
X146964061Y-40151000D01*
X147167939Y-40151000D01*
X147367898Y-40111226D01*
X147556256Y-40033205D01*
X147725774Y-39919937D01*
X147869937Y-39775774D01*
X147983205Y-39606256D01*
X148061226Y-39417898D01*
X148101000Y-39217939D01*
X148101000Y-39014061D01*
X148061226Y-38814102D01*
X147983205Y-38625744D01*
X147869937Y-38456226D01*
X147826000Y-38412289D01*
X147826000Y-33334801D01*
X150763592Y-30397210D01*
X150983740Y-30441000D01*
X151276260Y-30441000D01*
X151563158Y-30383932D01*
X151833411Y-30271990D01*
X152076632Y-30109475D01*
X152283475Y-29902632D01*
X152405195Y-29720466D01*
X152474822Y-29837355D01*
X152669731Y-30053588D01*
X152903080Y-30227641D01*
X153165901Y-30352825D01*
X153313110Y-30397476D01*
X153543000Y-30276155D01*
X153543000Y-29083000D01*
X153797000Y-29083000D01*
X153797000Y-30276155D01*
X154026890Y-30397476D01*
X154174099Y-30352825D01*
X154436920Y-30227641D01*
X154670269Y-30053588D01*
X154865178Y-29837355D01*
X155014157Y-29587252D01*
X155111481Y-29312891D01*
X154990814Y-29083000D01*
X153797000Y-29083000D01*
X153543000Y-29083000D01*
X153523000Y-29083000D01*
X153523000Y-28829000D01*
X153543000Y-28829000D01*
X153543000Y-27635845D01*
X153797000Y-27635845D01*
X153797000Y-28829000D01*
X154990814Y-28829000D01*
X155111481Y-28599109D01*
X155014157Y-28324748D01*
X154865178Y-28074645D01*
X154670269Y-27858412D01*
X154436920Y-27684359D01*
X154174099Y-27559175D01*
X154026890Y-27514524D01*
X153797000Y-27635845D01*
X153543000Y-27635845D01*
X153313110Y-27514524D01*
X153165901Y-27559175D01*
X152903080Y-27684359D01*
X152669731Y-27858412D01*
X152474822Y-28074645D01*
X152405195Y-28191534D01*
X152283475Y-28009368D01*
X152076632Y-27802525D01*
X151833411Y-27640010D01*
X151563158Y-27528068D01*
X151276260Y-27471000D01*
X150983740Y-27471000D01*
X150696842Y-27528068D01*
X150426589Y-27640010D01*
X150183368Y-27802525D01*
X149976525Y-28009368D01*
X149860000Y-28183760D01*
X149743475Y-28009368D01*
X149536632Y-27802525D01*
X149293411Y-27640010D01*
X149023158Y-27528068D01*
X148736260Y-27471000D01*
X148443740Y-27471000D01*
X148156842Y-27528068D01*
X147886589Y-27640010D01*
X147643368Y-27802525D01*
X147436525Y-28009368D01*
X147320000Y-28183760D01*
X147203475Y-28009368D01*
X146996632Y-27802525D01*
X146753411Y-27640010D01*
X146483158Y-27528068D01*
X146196260Y-27471000D01*
X145903740Y-27471000D01*
X145616842Y-27528068D01*
X145346589Y-27640010D01*
X145103368Y-27802525D01*
X144907000Y-27998893D01*
X144907000Y-27330000D01*
X155550000Y-27330000D01*
X155550000Y-41087663D01*
G37*
X155550000Y-41087663D02*
X155488904Y-40996226D01*
X155344741Y-40852063D01*
X155175223Y-40738795D01*
X154986865Y-40660774D01*
X154786906Y-40621000D01*
X154583028Y-40621000D01*
X154383069Y-40660774D01*
X154194711Y-40738795D01*
X154025193Y-40852063D01*
X153881030Y-40996226D01*
X153767762Y-41165744D01*
X153689741Y-41354102D01*
X153649967Y-41554061D01*
X153649967Y-41757939D01*
X153689741Y-41957898D01*
X153767762Y-42146256D01*
X153881030Y-42315774D01*
X154025193Y-42459937D01*
X154194711Y-42573205D01*
X154383069Y-42651226D01*
X154399980Y-42654590D01*
X154399980Y-47986764D01*
X154174099Y-47879175D01*
X154026890Y-47834524D01*
X153797000Y-47955845D01*
X153797000Y-49149000D01*
X153817000Y-49149000D01*
X153817000Y-49403000D01*
X153797000Y-49403000D01*
X153797000Y-50596155D01*
X154026890Y-50717476D01*
X154174099Y-50672825D01*
X154399980Y-50565236D01*
X154399981Y-54581763D01*
X154373411Y-54564010D01*
X154103158Y-54452068D01*
X153816260Y-54395000D01*
X153523740Y-54395000D01*
X153303592Y-54438791D01*
X153254999Y-54390198D01*
X153254999Y-50699850D01*
X153313110Y-50717476D01*
X153543000Y-50596155D01*
X153543000Y-49403000D01*
X153523000Y-49403000D01*
X153523000Y-49149000D01*
X153543000Y-49149000D01*
X153543000Y-47955845D01*
X153313110Y-47834524D01*
X153254999Y-47852150D01*
X153254999Y-47249322D01*
X153258675Y-47211999D01*
X153254999Y-47174676D01*
X153254999Y-47174666D01*
X153244002Y-47063013D01*
X153200545Y-46919752D01*
X153129974Y-46787724D01*
X153129973Y-46787722D01*
X153058798Y-46700996D01*
X153035000Y-46671998D01*
X153006003Y-46648201D01*
X151820804Y-45463003D01*
X151797001Y-45433999D01*
X151681276Y-45339026D01*
X151549247Y-45268454D01*
X151405986Y-45224997D01*
X151294333Y-45214000D01*
X151294322Y-45214000D01*
X151257000Y-45210324D01*
X151219678Y-45214000D01*
X144907000Y-45214000D01*
X144907000Y-29913107D01*
X145103368Y-30109475D01*
X145346589Y-30271990D01*
X145616842Y-30383932D01*
X145903740Y-30441000D01*
X146196260Y-30441000D01*
X146483158Y-30383932D01*
X146753411Y-30271990D01*
X146996632Y-30109475D01*
X147203475Y-29902632D01*
X147320000Y-29728240D01*
X147436525Y-29902632D01*
X147643368Y-30109475D01*
X147886589Y-30271990D01*
X148156842Y-30383932D01*
X148443740Y-30441000D01*
X148570198Y-30441000D01*
X146554998Y-32456201D01*
X146526000Y-32479999D01*
X146502202Y-32508997D01*
X146502201Y-32508998D01*
X146431026Y-32595724D01*
X146360454Y-32727754D01*
X146316998Y-32871015D01*
X146302324Y-33020000D01*
X146306001Y-33057332D01*
X146306000Y-38412289D01*
X146262063Y-38456226D01*
X146148795Y-38625744D01*
X146070774Y-38814102D01*
X146031000Y-39014061D01*
X146031000Y-39217939D01*
X146070774Y-39417898D01*
X146148795Y-39606256D01*
X146262063Y-39775774D01*
X146406226Y-39919937D01*
X146575744Y-40033205D01*
X146764102Y-40111226D01*
X146964061Y-40151000D01*
X147167939Y-40151000D01*
X147367898Y-40111226D01*
X147556256Y-40033205D01*
X147725774Y-39919937D01*
X147869937Y-39775774D01*
X147983205Y-39606256D01*
X148061226Y-39417898D01*
X148101000Y-39217939D01*
X148101000Y-39014061D01*
X148061226Y-38814102D01*
X147983205Y-38625744D01*
X147869937Y-38456226D01*
X147826000Y-38412289D01*
X147826000Y-33334801D01*
X150763592Y-30397210D01*
X150983740Y-30441000D01*
X151276260Y-30441000D01*
X151563158Y-30383932D01*
X151833411Y-30271990D01*
X152076632Y-30109475D01*
X152283475Y-29902632D01*
X152405195Y-29720466D01*
X152474822Y-29837355D01*
X152669731Y-30053588D01*
X152903080Y-30227641D01*
X153165901Y-30352825D01*
X153313110Y-30397476D01*
X153543000Y-30276155D01*
X153543000Y-29083000D01*
X153797000Y-29083000D01*
X153797000Y-30276155D01*
X154026890Y-30397476D01*
X154174099Y-30352825D01*
X154436920Y-30227641D01*
X154670269Y-30053588D01*
X154865178Y-29837355D01*
X155014157Y-29587252D01*
X155111481Y-29312891D01*
X154990814Y-29083000D01*
X153797000Y-29083000D01*
X153543000Y-29083000D01*
X153523000Y-29083000D01*
X153523000Y-28829000D01*
X153543000Y-28829000D01*
X153543000Y-27635845D01*
X153797000Y-27635845D01*
X153797000Y-28829000D01*
X154990814Y-28829000D01*
X155111481Y-28599109D01*
X155014157Y-28324748D01*
X154865178Y-28074645D01*
X154670269Y-27858412D01*
X154436920Y-27684359D01*
X154174099Y-27559175D01*
X154026890Y-27514524D01*
X153797000Y-27635845D01*
X153543000Y-27635845D01*
X153313110Y-27514524D01*
X153165901Y-27559175D01*
X152903080Y-27684359D01*
X152669731Y-27858412D01*
X152474822Y-28074645D01*
X152405195Y-28191534D01*
X152283475Y-28009368D01*
X152076632Y-27802525D01*
X151833411Y-27640010D01*
X151563158Y-27528068D01*
X151276260Y-27471000D01*
X150983740Y-27471000D01*
X150696842Y-27528068D01*
X150426589Y-27640010D01*
X150183368Y-27802525D01*
X149976525Y-28009368D01*
X149860000Y-28183760D01*
X149743475Y-28009368D01*
X149536632Y-27802525D01*
X149293411Y-27640010D01*
X149023158Y-27528068D01*
X148736260Y-27471000D01*
X148443740Y-27471000D01*
X148156842Y-27528068D01*
X147886589Y-27640010D01*
X147643368Y-27802525D01*
X147436525Y-28009368D01*
X147320000Y-28183760D01*
X147203475Y-28009368D01*
X146996632Y-27802525D01*
X146753411Y-27640010D01*
X146483158Y-27528068D01*
X146196260Y-27471000D01*
X145903740Y-27471000D01*
X145616842Y-27528068D01*
X145346589Y-27640010D01*
X145103368Y-27802525D01*
X144907000Y-27998893D01*
X144907000Y-27330000D01*
X155550000Y-27330000D01*
X155550000Y-41087663D01*
%TD*%
M02*
