M48
; DRILL file {KiCad 5.1.6+dfsg1-1} date Wed Aug  5 10:24:01 2020
; FORMAT={-:-/ absolute / inch / decimal}
; #@! TF.CreationDate,2020-08-05T10:24:01+08:00
; #@! TF.GenerationSoftware,Kicad,Pcbnew,5.1.6+dfsg1-1
; #@! TF.FileFunction,Plated,1,2,PTH
FMAT,2
INCH
T1C0.0157
T2C0.0197
T3C0.0236
T4C0.0394
T5C0.0433
%
G90
G05
T1
X4.1085Y-3.2294
X4.125Y-3.825
X4.13Y-2.48
X4.13Y-2.54
X4.13Y-2.87
X4.14Y-2.03
X4.15Y-3.77
X4.19Y-2.35
X4.2198Y-2.5398
X4.26Y-2.86
X4.26Y-3.28
X4.29Y-2.48
X4.31Y-2.54
X4.33Y-2.88
X4.39Y-2.38
X4.395Y-3.76
X4.4Y-3.32
X4.47Y-3.06
X4.47Y-3.18
X4.535Y-3.25
X4.72Y-2.02
X4.725Y-3.04
X4.78Y-2.02
X5.01Y-2.57
X5.01Y-2.72
X5.075Y-3.375
X5.18Y-3.16
X5.18Y-3.25
X5.49Y-1.65
X5.57Y-2.04
X5.57Y-2.08
X5.65Y-1.67
X5.72Y-3.08
X5.74Y-1.37
X5.7424Y-3.1226
X5.77Y-2.04
X5.77Y-2.09
X5.79Y-1.54
X5.798Y-3.178
X5.83Y-1.47
X5.85Y-3.06
X5.94Y-1.57
X5.97Y-2.04
X5.97Y-2.09
X5.98Y-1.32
X6.03Y-1.27
X6.05Y-1.69
X6.08Y-3.065
X6.09Y-1.64
X6.1077Y-2.55
T4
X5.4Y-2.65
X5.4984Y-2.65
X5.5969Y-2.65
X4.15Y-1.14
X4.25Y-1.14
X4.35Y-1.14
X4.45Y-1.14
X4.55Y-1.14
X4.65Y-1.14
X4.75Y-1.14
X4.85Y-1.14
X4.95Y-1.14
X5.05Y-1.14
X5.15Y-1.14
X5.25Y-1.14
X5.35Y-1.14
X5.45Y-1.14
X5.55Y-1.14
X5.65Y-1.14
X5.75Y-1.14
X5.85Y-1.14
X5.95Y-1.14
X6.05Y-1.14
X4.15Y-1.94
X4.25Y-1.94
X4.35Y-1.94
X4.45Y-1.94
X4.55Y-1.94
X4.65Y-1.94
X4.75Y-1.94
X4.85Y-1.94
X4.95Y-1.94
X5.05Y-1.94
X5.15Y-1.94
X5.25Y-1.94
X5.35Y-1.94
X5.45Y-1.94
X5.55Y-1.94
X5.65Y-1.94
X5.75Y-1.94
X5.85Y-1.94
X5.95Y-1.94
X6.05Y-1.94
X5.4Y-3.25
X5.4984Y-3.25
X5.5969Y-3.25
X5.95Y-2.2
X5.95Y-2.3
X5.95Y-2.4
X5.95Y-2.5
X5.95Y-2.6
X5.95Y-2.7
X5.95Y-2.8
X5.95Y-2.9
X6.05Y-2.2
X6.05Y-2.3
X6.05Y-2.4
X6.05Y-2.5
X6.05Y-2.6
X6.05Y-2.7
X6.05Y-2.8
X6.05Y-2.9
T2
G00X4.9197Y-2.5437
M15
G01X4.8803Y-2.5437
M16
G05
G00X5.2297Y-3.7937
M15
G01X5.1903Y-3.7937
M16
G05
G00X4.9197Y-3.1437
M15
G01X4.8803Y-3.1437
M16
G05
G00X5.9697Y-3.7937
M15
G01X5.9303Y-3.7937
M16
G05
G00X4.8597Y-3.7937
M15
G01X4.8203Y-3.7937
M16
G05
G00X5.5997Y-3.7937
M15
G01X5.5603Y-3.7937
M16
G05
T3
G00X5.5938Y-3.375
M15
G01X5.5662Y-3.375
M16
G05
G00X5.5977Y-3.4669
M15
G01X5.5623Y-3.4669
M16
G05
G00X4.9138Y-2.125
M15
G01X4.8862Y-2.125
M16
G05
G00X4.9177Y-2.2169
M15
G01X4.8823Y-2.2169
M16
G05
G00X5.2238Y-3.375
M15
G01X5.1962Y-3.375
M16
G05
G00X5.2277Y-3.4669
M15
G01X5.1923Y-3.4669
M16
G05
G00X4.9138Y-2.725
M15
G01X4.8862Y-2.725
M16
G05
G00X4.9177Y-2.8169
M15
G01X4.8823Y-2.8169
M16
G05
G00X5.9638Y-3.375
M15
G01X5.9362Y-3.375
M16
G05
G00X5.9677Y-3.4669
M15
G01X5.9323Y-3.4669
M16
G05
G00X4.8538Y-3.375
M15
G01X4.8262Y-3.375
M16
G05
G00X4.8577Y-3.4669
M15
G01X4.8223Y-3.4669
M16
G05
T5
G00X5.3094Y-2.3744
M15
G01X5.3094Y-2.335
M16
G05
G00X5.6874Y-2.3744
M15
G01X5.6874Y-2.335
M16
G05
G00X5.3094Y-2.9744
M15
G01X5.3094Y-2.935
M16
G05
G00X5.6874Y-2.9744
M15
G01X5.6874Y-2.935
M16
G05
T0
M30
