%TF.GenerationSoftware,KiCad,Pcbnew,5.1.6+dfsg1-1*%
%TF.CreationDate,2020-08-05T10:42:46+08:00*%
%TF.ProjectId,stm32dev-analog,73746d33-3264-4657-962d-616e616c6f67,rev?*%
%TF.SameCoordinates,Original*%
%TF.FileFunction,Paste,Top*%
%TF.FilePolarity,Positive*%
%FSLAX46Y46*%
G04 Gerber Fmt 4.6, Leading zero omitted, Abs format (unit mm)*
G04 Created by KiCad (PCBNEW 5.1.6+dfsg1-1) date 2020-08-05 10:42:46*
%MOMM*%
%LPD*%
G01*
G04 APERTURE LIST*
%ADD10R,1.200000X0.900000*%
%ADD11R,0.800000X0.900000*%
%ADD12R,1.060000X0.650000*%
G04 APERTURE END LIST*
D10*
%TO.C,D2*%
X151638000Y-78360000D03*
X151638000Y-81660000D03*
%TD*%
%TO.C,D1*%
X154178000Y-81660000D03*
X154178000Y-78360000D03*
%TD*%
%TO.C,C13*%
G36*
G01*
X112364000Y-73408250D02*
X112364000Y-72895750D01*
G75*
G02*
X112582750Y-72677000I218750J0D01*
G01*
X113020250Y-72677000D01*
G75*
G02*
X113239000Y-72895750I0J-218750D01*
G01*
X113239000Y-73408250D01*
G75*
G02*
X113020250Y-73627000I-218750J0D01*
G01*
X112582750Y-73627000D01*
G75*
G02*
X112364000Y-73408250I0J218750D01*
G01*
G37*
G36*
G01*
X110789000Y-73408250D02*
X110789000Y-72895750D01*
G75*
G02*
X111007750Y-72677000I218750J0D01*
G01*
X111445250Y-72677000D01*
G75*
G02*
X111664000Y-72895750I0J-218750D01*
G01*
X111664000Y-73408250D01*
G75*
G02*
X111445250Y-73627000I-218750J0D01*
G01*
X111007750Y-73627000D01*
G75*
G02*
X110789000Y-73408250I0J218750D01*
G01*
G37*
%TD*%
D11*
%TO.C,Q2*%
X144780000Y-38116000D03*
X145730000Y-40116000D03*
X143830000Y-40116000D03*
%TD*%
%TO.C,R23*%
G36*
G01*
X130050250Y-83216000D02*
X129537750Y-83216000D01*
G75*
G02*
X129319000Y-82997250I0J218750D01*
G01*
X129319000Y-82559750D01*
G75*
G02*
X129537750Y-82341000I218750J0D01*
G01*
X130050250Y-82341000D01*
G75*
G02*
X130269000Y-82559750I0J-218750D01*
G01*
X130269000Y-82997250D01*
G75*
G02*
X130050250Y-83216000I-218750J0D01*
G01*
G37*
G36*
G01*
X130050250Y-84791000D02*
X129537750Y-84791000D01*
G75*
G02*
X129319000Y-84572250I0J218750D01*
G01*
X129319000Y-84134750D01*
G75*
G02*
X129537750Y-83916000I218750J0D01*
G01*
X130050250Y-83916000D01*
G75*
G02*
X130269000Y-84134750I0J-218750D01*
G01*
X130269000Y-84572250D01*
G75*
G02*
X130050250Y-84791000I-218750J0D01*
G01*
G37*
%TD*%
%TO.C,Q1*%
X140462000Y-38116000D03*
X141412000Y-40116000D03*
X139512000Y-40116000D03*
%TD*%
%TO.C,C12*%
G36*
G01*
X110078000Y-95760250D02*
X110078000Y-95247750D01*
G75*
G02*
X110296750Y-95029000I218750J0D01*
G01*
X110734250Y-95029000D01*
G75*
G02*
X110953000Y-95247750I0J-218750D01*
G01*
X110953000Y-95760250D01*
G75*
G02*
X110734250Y-95979000I-218750J0D01*
G01*
X110296750Y-95979000D01*
G75*
G02*
X110078000Y-95760250I0J218750D01*
G01*
G37*
G36*
G01*
X108503000Y-95760250D02*
X108503000Y-95247750D01*
G75*
G02*
X108721750Y-95029000I218750J0D01*
G01*
X109159250Y-95029000D01*
G75*
G02*
X109378000Y-95247750I0J-218750D01*
G01*
X109378000Y-95760250D01*
G75*
G02*
X109159250Y-95979000I-218750J0D01*
G01*
X108721750Y-95979000D01*
G75*
G02*
X108503000Y-95760250I0J218750D01*
G01*
G37*
%TD*%
%TO.C,C11*%
G36*
G01*
X117190000Y-89664250D02*
X117190000Y-89151750D01*
G75*
G02*
X117408750Y-88933000I218750J0D01*
G01*
X117846250Y-88933000D01*
G75*
G02*
X118065000Y-89151750I0J-218750D01*
G01*
X118065000Y-89664250D01*
G75*
G02*
X117846250Y-89883000I-218750J0D01*
G01*
X117408750Y-89883000D01*
G75*
G02*
X117190000Y-89664250I0J218750D01*
G01*
G37*
G36*
G01*
X115615000Y-89664250D02*
X115615000Y-89151750D01*
G75*
G02*
X115833750Y-88933000I218750J0D01*
G01*
X116271250Y-88933000D01*
G75*
G02*
X116490000Y-89151750I0J-218750D01*
G01*
X116490000Y-89664250D01*
G75*
G02*
X116271250Y-89883000I-218750J0D01*
G01*
X115833750Y-89883000D01*
G75*
G02*
X115615000Y-89664250I0J218750D01*
G01*
G37*
%TD*%
%TO.C,U2*%
G36*
G01*
X114276000Y-77747000D02*
X114276000Y-77447000D01*
G75*
G02*
X114426000Y-77297000I150000J0D01*
G01*
X116076000Y-77297000D01*
G75*
G02*
X116226000Y-77447000I0J-150000D01*
G01*
X116226000Y-77747000D01*
G75*
G02*
X116076000Y-77897000I-150000J0D01*
G01*
X114426000Y-77897000D01*
G75*
G02*
X114276000Y-77747000I0J150000D01*
G01*
G37*
G36*
G01*
X114276000Y-79017000D02*
X114276000Y-78717000D01*
G75*
G02*
X114426000Y-78567000I150000J0D01*
G01*
X116076000Y-78567000D01*
G75*
G02*
X116226000Y-78717000I0J-150000D01*
G01*
X116226000Y-79017000D01*
G75*
G02*
X116076000Y-79167000I-150000J0D01*
G01*
X114426000Y-79167000D01*
G75*
G02*
X114276000Y-79017000I0J150000D01*
G01*
G37*
G36*
G01*
X114276000Y-80287000D02*
X114276000Y-79987000D01*
G75*
G02*
X114426000Y-79837000I150000J0D01*
G01*
X116076000Y-79837000D01*
G75*
G02*
X116226000Y-79987000I0J-150000D01*
G01*
X116226000Y-80287000D01*
G75*
G02*
X116076000Y-80437000I-150000J0D01*
G01*
X114426000Y-80437000D01*
G75*
G02*
X114276000Y-80287000I0J150000D01*
G01*
G37*
G36*
G01*
X114276000Y-81557000D02*
X114276000Y-81257000D01*
G75*
G02*
X114426000Y-81107000I150000J0D01*
G01*
X116076000Y-81107000D01*
G75*
G02*
X116226000Y-81257000I0J-150000D01*
G01*
X116226000Y-81557000D01*
G75*
G02*
X116076000Y-81707000I-150000J0D01*
G01*
X114426000Y-81707000D01*
G75*
G02*
X114276000Y-81557000I0J150000D01*
G01*
G37*
G36*
G01*
X109326000Y-81557000D02*
X109326000Y-81257000D01*
G75*
G02*
X109476000Y-81107000I150000J0D01*
G01*
X111126000Y-81107000D01*
G75*
G02*
X111276000Y-81257000I0J-150000D01*
G01*
X111276000Y-81557000D01*
G75*
G02*
X111126000Y-81707000I-150000J0D01*
G01*
X109476000Y-81707000D01*
G75*
G02*
X109326000Y-81557000I0J150000D01*
G01*
G37*
G36*
G01*
X109326000Y-80287000D02*
X109326000Y-79987000D01*
G75*
G02*
X109476000Y-79837000I150000J0D01*
G01*
X111126000Y-79837000D01*
G75*
G02*
X111276000Y-79987000I0J-150000D01*
G01*
X111276000Y-80287000D01*
G75*
G02*
X111126000Y-80437000I-150000J0D01*
G01*
X109476000Y-80437000D01*
G75*
G02*
X109326000Y-80287000I0J150000D01*
G01*
G37*
G36*
G01*
X109326000Y-79017000D02*
X109326000Y-78717000D01*
G75*
G02*
X109476000Y-78567000I150000J0D01*
G01*
X111126000Y-78567000D01*
G75*
G02*
X111276000Y-78717000I0J-150000D01*
G01*
X111276000Y-79017000D01*
G75*
G02*
X111126000Y-79167000I-150000J0D01*
G01*
X109476000Y-79167000D01*
G75*
G02*
X109326000Y-79017000I0J150000D01*
G01*
G37*
G36*
G01*
X109326000Y-77747000D02*
X109326000Y-77447000D01*
G75*
G02*
X109476000Y-77297000I150000J0D01*
G01*
X111126000Y-77297000D01*
G75*
G02*
X111276000Y-77447000I0J-150000D01*
G01*
X111276000Y-77747000D01*
G75*
G02*
X111126000Y-77897000I-150000J0D01*
G01*
X109476000Y-77897000D01*
G75*
G02*
X109326000Y-77747000I0J150000D01*
G01*
G37*
%TD*%
%TO.C,C14*%
G36*
G01*
X117698000Y-66169250D02*
X117698000Y-65656750D01*
G75*
G02*
X117916750Y-65438000I218750J0D01*
G01*
X118354250Y-65438000D01*
G75*
G02*
X118573000Y-65656750I0J-218750D01*
G01*
X118573000Y-66169250D01*
G75*
G02*
X118354250Y-66388000I-218750J0D01*
G01*
X117916750Y-66388000D01*
G75*
G02*
X117698000Y-66169250I0J218750D01*
G01*
G37*
G36*
G01*
X116123000Y-66169250D02*
X116123000Y-65656750D01*
G75*
G02*
X116341750Y-65438000I218750J0D01*
G01*
X116779250Y-65438000D01*
G75*
G02*
X116998000Y-65656750I0J-218750D01*
G01*
X116998000Y-66169250D01*
G75*
G02*
X116779250Y-66388000I-218750J0D01*
G01*
X116341750Y-66388000D01*
G75*
G02*
X116123000Y-66169250I0J218750D01*
G01*
G37*
%TD*%
%TO.C,C10*%
G36*
G01*
X111348000Y-83314250D02*
X111348000Y-82801750D01*
G75*
G02*
X111566750Y-82583000I218750J0D01*
G01*
X112004250Y-82583000D01*
G75*
G02*
X112223000Y-82801750I0J-218750D01*
G01*
X112223000Y-83314250D01*
G75*
G02*
X112004250Y-83533000I-218750J0D01*
G01*
X111566750Y-83533000D01*
G75*
G02*
X111348000Y-83314250I0J218750D01*
G01*
G37*
G36*
G01*
X109773000Y-83314250D02*
X109773000Y-82801750D01*
G75*
G02*
X109991750Y-82583000I218750J0D01*
G01*
X110429250Y-82583000D01*
G75*
G02*
X110648000Y-82801750I0J-218750D01*
G01*
X110648000Y-83314250D01*
G75*
G02*
X110429250Y-83533000I-218750J0D01*
G01*
X109991750Y-83533000D01*
G75*
G02*
X109773000Y-83314250I0J218750D01*
G01*
G37*
%TD*%
%TO.C,C9*%
G36*
G01*
X111094000Y-59438250D02*
X111094000Y-58925750D01*
G75*
G02*
X111312750Y-58707000I218750J0D01*
G01*
X111750250Y-58707000D01*
G75*
G02*
X111969000Y-58925750I0J-218750D01*
G01*
X111969000Y-59438250D01*
G75*
G02*
X111750250Y-59657000I-218750J0D01*
G01*
X111312750Y-59657000D01*
G75*
G02*
X111094000Y-59438250I0J218750D01*
G01*
G37*
G36*
G01*
X109519000Y-59438250D02*
X109519000Y-58925750D01*
G75*
G02*
X109737750Y-58707000I218750J0D01*
G01*
X110175250Y-58707000D01*
G75*
G02*
X110394000Y-58925750I0J-218750D01*
G01*
X110394000Y-59438250D01*
G75*
G02*
X110175250Y-59657000I-218750J0D01*
G01*
X109737750Y-59657000D01*
G75*
G02*
X109519000Y-59438250I0J218750D01*
G01*
G37*
%TD*%
%TO.C,C8*%
G36*
G01*
X118206000Y-53850250D02*
X118206000Y-53337750D01*
G75*
G02*
X118424750Y-53119000I218750J0D01*
G01*
X118862250Y-53119000D01*
G75*
G02*
X119081000Y-53337750I0J-218750D01*
G01*
X119081000Y-53850250D01*
G75*
G02*
X118862250Y-54069000I-218750J0D01*
G01*
X118424750Y-54069000D01*
G75*
G02*
X118206000Y-53850250I0J218750D01*
G01*
G37*
G36*
G01*
X116631000Y-53850250D02*
X116631000Y-53337750D01*
G75*
G02*
X116849750Y-53119000I218750J0D01*
G01*
X117287250Y-53119000D01*
G75*
G02*
X117506000Y-53337750I0J-218750D01*
G01*
X117506000Y-53850250D01*
G75*
G02*
X117287250Y-54069000I-218750J0D01*
G01*
X116849750Y-54069000D01*
G75*
G02*
X116631000Y-53850250I0J218750D01*
G01*
G37*
%TD*%
%TO.C,C7*%
G36*
G01*
X118460000Y-77472250D02*
X118460000Y-76959750D01*
G75*
G02*
X118678750Y-76741000I218750J0D01*
G01*
X119116250Y-76741000D01*
G75*
G02*
X119335000Y-76959750I0J-218750D01*
G01*
X119335000Y-77472250D01*
G75*
G02*
X119116250Y-77691000I-218750J0D01*
G01*
X118678750Y-77691000D01*
G75*
G02*
X118460000Y-77472250I0J218750D01*
G01*
G37*
G36*
G01*
X116885000Y-77472250D02*
X116885000Y-76959750D01*
G75*
G02*
X117103750Y-76741000I218750J0D01*
G01*
X117541250Y-76741000D01*
G75*
G02*
X117760000Y-76959750I0J-218750D01*
G01*
X117760000Y-77472250D01*
G75*
G02*
X117541250Y-77691000I-218750J0D01*
G01*
X117103750Y-77691000D01*
G75*
G02*
X116885000Y-77472250I0J218750D01*
G01*
G37*
%TD*%
%TO.C,U5*%
G36*
G01*
X115292000Y-67841000D02*
X115292000Y-67541000D01*
G75*
G02*
X115442000Y-67391000I150000J0D01*
G01*
X117092000Y-67391000D01*
G75*
G02*
X117242000Y-67541000I0J-150000D01*
G01*
X117242000Y-67841000D01*
G75*
G02*
X117092000Y-67991000I-150000J0D01*
G01*
X115442000Y-67991000D01*
G75*
G02*
X115292000Y-67841000I0J150000D01*
G01*
G37*
G36*
G01*
X115292000Y-69111000D02*
X115292000Y-68811000D01*
G75*
G02*
X115442000Y-68661000I150000J0D01*
G01*
X117092000Y-68661000D01*
G75*
G02*
X117242000Y-68811000I0J-150000D01*
G01*
X117242000Y-69111000D01*
G75*
G02*
X117092000Y-69261000I-150000J0D01*
G01*
X115442000Y-69261000D01*
G75*
G02*
X115292000Y-69111000I0J150000D01*
G01*
G37*
G36*
G01*
X115292000Y-70381000D02*
X115292000Y-70081000D01*
G75*
G02*
X115442000Y-69931000I150000J0D01*
G01*
X117092000Y-69931000D01*
G75*
G02*
X117242000Y-70081000I0J-150000D01*
G01*
X117242000Y-70381000D01*
G75*
G02*
X117092000Y-70531000I-150000J0D01*
G01*
X115442000Y-70531000D01*
G75*
G02*
X115292000Y-70381000I0J150000D01*
G01*
G37*
G36*
G01*
X115292000Y-71651000D02*
X115292000Y-71351000D01*
G75*
G02*
X115442000Y-71201000I150000J0D01*
G01*
X117092000Y-71201000D01*
G75*
G02*
X117242000Y-71351000I0J-150000D01*
G01*
X117242000Y-71651000D01*
G75*
G02*
X117092000Y-71801000I-150000J0D01*
G01*
X115442000Y-71801000D01*
G75*
G02*
X115292000Y-71651000I0J150000D01*
G01*
G37*
G36*
G01*
X110342000Y-71651000D02*
X110342000Y-71351000D01*
G75*
G02*
X110492000Y-71201000I150000J0D01*
G01*
X112142000Y-71201000D01*
G75*
G02*
X112292000Y-71351000I0J-150000D01*
G01*
X112292000Y-71651000D01*
G75*
G02*
X112142000Y-71801000I-150000J0D01*
G01*
X110492000Y-71801000D01*
G75*
G02*
X110342000Y-71651000I0J150000D01*
G01*
G37*
G36*
G01*
X110342000Y-70381000D02*
X110342000Y-70081000D01*
G75*
G02*
X110492000Y-69931000I150000J0D01*
G01*
X112142000Y-69931000D01*
G75*
G02*
X112292000Y-70081000I0J-150000D01*
G01*
X112292000Y-70381000D01*
G75*
G02*
X112142000Y-70531000I-150000J0D01*
G01*
X110492000Y-70531000D01*
G75*
G02*
X110342000Y-70381000I0J150000D01*
G01*
G37*
G36*
G01*
X110342000Y-69111000D02*
X110342000Y-68811000D01*
G75*
G02*
X110492000Y-68661000I150000J0D01*
G01*
X112142000Y-68661000D01*
G75*
G02*
X112292000Y-68811000I0J-150000D01*
G01*
X112292000Y-69111000D01*
G75*
G02*
X112142000Y-69261000I-150000J0D01*
G01*
X110492000Y-69261000D01*
G75*
G02*
X110342000Y-69111000I0J150000D01*
G01*
G37*
G36*
G01*
X110342000Y-67841000D02*
X110342000Y-67541000D01*
G75*
G02*
X110492000Y-67391000I150000J0D01*
G01*
X112142000Y-67391000D01*
G75*
G02*
X112292000Y-67541000I0J-150000D01*
G01*
X112292000Y-67841000D01*
G75*
G02*
X112142000Y-67991000I-150000J0D01*
G01*
X110492000Y-67991000D01*
G75*
G02*
X110342000Y-67841000I0J150000D01*
G01*
G37*
%TD*%
D12*
%TO.C,U4*%
X149436000Y-81026000D03*
X149436000Y-80076000D03*
X149436000Y-81976000D03*
X147236000Y-81976000D03*
X147236000Y-81026000D03*
X147236000Y-80076000D03*
%TD*%
%TO.C,U3*%
G36*
G01*
X113006000Y-90193000D02*
X113006000Y-89893000D01*
G75*
G02*
X113156000Y-89743000I150000J0D01*
G01*
X114806000Y-89743000D01*
G75*
G02*
X114956000Y-89893000I0J-150000D01*
G01*
X114956000Y-90193000D01*
G75*
G02*
X114806000Y-90343000I-150000J0D01*
G01*
X113156000Y-90343000D01*
G75*
G02*
X113006000Y-90193000I0J150000D01*
G01*
G37*
G36*
G01*
X113006000Y-91463000D02*
X113006000Y-91163000D01*
G75*
G02*
X113156000Y-91013000I150000J0D01*
G01*
X114806000Y-91013000D01*
G75*
G02*
X114956000Y-91163000I0J-150000D01*
G01*
X114956000Y-91463000D01*
G75*
G02*
X114806000Y-91613000I-150000J0D01*
G01*
X113156000Y-91613000D01*
G75*
G02*
X113006000Y-91463000I0J150000D01*
G01*
G37*
G36*
G01*
X113006000Y-92733000D02*
X113006000Y-92433000D01*
G75*
G02*
X113156000Y-92283000I150000J0D01*
G01*
X114806000Y-92283000D01*
G75*
G02*
X114956000Y-92433000I0J-150000D01*
G01*
X114956000Y-92733000D01*
G75*
G02*
X114806000Y-92883000I-150000J0D01*
G01*
X113156000Y-92883000D01*
G75*
G02*
X113006000Y-92733000I0J150000D01*
G01*
G37*
G36*
G01*
X113006000Y-94003000D02*
X113006000Y-93703000D01*
G75*
G02*
X113156000Y-93553000I150000J0D01*
G01*
X114806000Y-93553000D01*
G75*
G02*
X114956000Y-93703000I0J-150000D01*
G01*
X114956000Y-94003000D01*
G75*
G02*
X114806000Y-94153000I-150000J0D01*
G01*
X113156000Y-94153000D01*
G75*
G02*
X113006000Y-94003000I0J150000D01*
G01*
G37*
G36*
G01*
X108056000Y-94003000D02*
X108056000Y-93703000D01*
G75*
G02*
X108206000Y-93553000I150000J0D01*
G01*
X109856000Y-93553000D01*
G75*
G02*
X110006000Y-93703000I0J-150000D01*
G01*
X110006000Y-94003000D01*
G75*
G02*
X109856000Y-94153000I-150000J0D01*
G01*
X108206000Y-94153000D01*
G75*
G02*
X108056000Y-94003000I0J150000D01*
G01*
G37*
G36*
G01*
X108056000Y-92733000D02*
X108056000Y-92433000D01*
G75*
G02*
X108206000Y-92283000I150000J0D01*
G01*
X109856000Y-92283000D01*
G75*
G02*
X110006000Y-92433000I0J-150000D01*
G01*
X110006000Y-92733000D01*
G75*
G02*
X109856000Y-92883000I-150000J0D01*
G01*
X108206000Y-92883000D01*
G75*
G02*
X108056000Y-92733000I0J150000D01*
G01*
G37*
G36*
G01*
X108056000Y-91463000D02*
X108056000Y-91163000D01*
G75*
G02*
X108206000Y-91013000I150000J0D01*
G01*
X109856000Y-91013000D01*
G75*
G02*
X110006000Y-91163000I0J-150000D01*
G01*
X110006000Y-91463000D01*
G75*
G02*
X109856000Y-91613000I-150000J0D01*
G01*
X108206000Y-91613000D01*
G75*
G02*
X108056000Y-91463000I0J150000D01*
G01*
G37*
G36*
G01*
X108056000Y-90193000D02*
X108056000Y-89893000D01*
G75*
G02*
X108206000Y-89743000I150000J0D01*
G01*
X109856000Y-89743000D01*
G75*
G02*
X110006000Y-89893000I0J-150000D01*
G01*
X110006000Y-90193000D01*
G75*
G02*
X109856000Y-90343000I-150000J0D01*
G01*
X108206000Y-90343000D01*
G75*
G02*
X108056000Y-90193000I0J150000D01*
G01*
G37*
%TD*%
%TO.C,U1*%
G36*
G01*
X114022000Y-53871000D02*
X114022000Y-53571000D01*
G75*
G02*
X114172000Y-53421000I150000J0D01*
G01*
X115822000Y-53421000D01*
G75*
G02*
X115972000Y-53571000I0J-150000D01*
G01*
X115972000Y-53871000D01*
G75*
G02*
X115822000Y-54021000I-150000J0D01*
G01*
X114172000Y-54021000D01*
G75*
G02*
X114022000Y-53871000I0J150000D01*
G01*
G37*
G36*
G01*
X114022000Y-55141000D02*
X114022000Y-54841000D01*
G75*
G02*
X114172000Y-54691000I150000J0D01*
G01*
X115822000Y-54691000D01*
G75*
G02*
X115972000Y-54841000I0J-150000D01*
G01*
X115972000Y-55141000D01*
G75*
G02*
X115822000Y-55291000I-150000J0D01*
G01*
X114172000Y-55291000D01*
G75*
G02*
X114022000Y-55141000I0J150000D01*
G01*
G37*
G36*
G01*
X114022000Y-56411000D02*
X114022000Y-56111000D01*
G75*
G02*
X114172000Y-55961000I150000J0D01*
G01*
X115822000Y-55961000D01*
G75*
G02*
X115972000Y-56111000I0J-150000D01*
G01*
X115972000Y-56411000D01*
G75*
G02*
X115822000Y-56561000I-150000J0D01*
G01*
X114172000Y-56561000D01*
G75*
G02*
X114022000Y-56411000I0J150000D01*
G01*
G37*
G36*
G01*
X114022000Y-57681000D02*
X114022000Y-57381000D01*
G75*
G02*
X114172000Y-57231000I150000J0D01*
G01*
X115822000Y-57231000D01*
G75*
G02*
X115972000Y-57381000I0J-150000D01*
G01*
X115972000Y-57681000D01*
G75*
G02*
X115822000Y-57831000I-150000J0D01*
G01*
X114172000Y-57831000D01*
G75*
G02*
X114022000Y-57681000I0J150000D01*
G01*
G37*
G36*
G01*
X109072000Y-57681000D02*
X109072000Y-57381000D01*
G75*
G02*
X109222000Y-57231000I150000J0D01*
G01*
X110872000Y-57231000D01*
G75*
G02*
X111022000Y-57381000I0J-150000D01*
G01*
X111022000Y-57681000D01*
G75*
G02*
X110872000Y-57831000I-150000J0D01*
G01*
X109222000Y-57831000D01*
G75*
G02*
X109072000Y-57681000I0J150000D01*
G01*
G37*
G36*
G01*
X109072000Y-56411000D02*
X109072000Y-56111000D01*
G75*
G02*
X109222000Y-55961000I150000J0D01*
G01*
X110872000Y-55961000D01*
G75*
G02*
X111022000Y-56111000I0J-150000D01*
G01*
X111022000Y-56411000D01*
G75*
G02*
X110872000Y-56561000I-150000J0D01*
G01*
X109222000Y-56561000D01*
G75*
G02*
X109072000Y-56411000I0J150000D01*
G01*
G37*
G36*
G01*
X109072000Y-55141000D02*
X109072000Y-54841000D01*
G75*
G02*
X109222000Y-54691000I150000J0D01*
G01*
X110872000Y-54691000D01*
G75*
G02*
X111022000Y-54841000I0J-150000D01*
G01*
X111022000Y-55141000D01*
G75*
G02*
X110872000Y-55291000I-150000J0D01*
G01*
X109222000Y-55291000D01*
G75*
G02*
X109072000Y-55141000I0J150000D01*
G01*
G37*
G36*
G01*
X109072000Y-53871000D02*
X109072000Y-53571000D01*
G75*
G02*
X109222000Y-53421000I150000J0D01*
G01*
X110872000Y-53421000D01*
G75*
G02*
X111022000Y-53571000I0J-150000D01*
G01*
X111022000Y-53871000D01*
G75*
G02*
X110872000Y-54021000I-150000J0D01*
G01*
X109222000Y-54021000D01*
G75*
G02*
X109072000Y-53871000I0J150000D01*
G01*
G37*
%TD*%
%TO.C,R22*%
G36*
G01*
X154434250Y-84232000D02*
X153921750Y-84232000D01*
G75*
G02*
X153703000Y-84013250I0J218750D01*
G01*
X153703000Y-83575750D01*
G75*
G02*
X153921750Y-83357000I218750J0D01*
G01*
X154434250Y-83357000D01*
G75*
G02*
X154653000Y-83575750I0J-218750D01*
G01*
X154653000Y-84013250D01*
G75*
G02*
X154434250Y-84232000I-218750J0D01*
G01*
G37*
G36*
G01*
X154434250Y-85807000D02*
X153921750Y-85807000D01*
G75*
G02*
X153703000Y-85588250I0J218750D01*
G01*
X153703000Y-85150750D01*
G75*
G02*
X153921750Y-84932000I218750J0D01*
G01*
X154434250Y-84932000D01*
G75*
G02*
X154653000Y-85150750I0J-218750D01*
G01*
X154653000Y-85588250D01*
G75*
G02*
X154434250Y-85807000I-218750J0D01*
G01*
G37*
%TD*%
%TO.C,R21*%
G36*
G01*
X105153750Y-94076000D02*
X105666250Y-94076000D01*
G75*
G02*
X105885000Y-94294750I0J-218750D01*
G01*
X105885000Y-94732250D01*
G75*
G02*
X105666250Y-94951000I-218750J0D01*
G01*
X105153750Y-94951000D01*
G75*
G02*
X104935000Y-94732250I0J218750D01*
G01*
X104935000Y-94294750D01*
G75*
G02*
X105153750Y-94076000I218750J0D01*
G01*
G37*
G36*
G01*
X105153750Y-92501000D02*
X105666250Y-92501000D01*
G75*
G02*
X105885000Y-92719750I0J-218750D01*
G01*
X105885000Y-93157250D01*
G75*
G02*
X105666250Y-93376000I-218750J0D01*
G01*
X105153750Y-93376000D01*
G75*
G02*
X104935000Y-93157250I0J218750D01*
G01*
X104935000Y-92719750D01*
G75*
G02*
X105153750Y-92501000I218750J0D01*
G01*
G37*
%TD*%
%TO.C,R20*%
G36*
G01*
X116236000Y-96517750D02*
X116236000Y-97030250D01*
G75*
G02*
X116017250Y-97249000I-218750J0D01*
G01*
X115579750Y-97249000D01*
G75*
G02*
X115361000Y-97030250I0J218750D01*
G01*
X115361000Y-96517750D01*
G75*
G02*
X115579750Y-96299000I218750J0D01*
G01*
X116017250Y-96299000D01*
G75*
G02*
X116236000Y-96517750I0J-218750D01*
G01*
G37*
G36*
G01*
X117811000Y-96517750D02*
X117811000Y-97030250D01*
G75*
G02*
X117592250Y-97249000I-218750J0D01*
G01*
X117154750Y-97249000D01*
G75*
G02*
X116936000Y-97030250I0J218750D01*
G01*
X116936000Y-96517750D01*
G75*
G02*
X117154750Y-96299000I218750J0D01*
G01*
X117592250Y-96299000D01*
G75*
G02*
X117811000Y-96517750I0J-218750D01*
G01*
G37*
%TD*%
%TO.C,R19*%
G36*
G01*
X110140000Y-88135750D02*
X110140000Y-88648250D01*
G75*
G02*
X109921250Y-88867000I-218750J0D01*
G01*
X109483750Y-88867000D01*
G75*
G02*
X109265000Y-88648250I0J218750D01*
G01*
X109265000Y-88135750D01*
G75*
G02*
X109483750Y-87917000I218750J0D01*
G01*
X109921250Y-87917000D01*
G75*
G02*
X110140000Y-88135750I0J-218750D01*
G01*
G37*
G36*
G01*
X111715000Y-88135750D02*
X111715000Y-88648250D01*
G75*
G02*
X111496250Y-88867000I-218750J0D01*
G01*
X111058750Y-88867000D01*
G75*
G02*
X110840000Y-88648250I0J218750D01*
G01*
X110840000Y-88135750D01*
G75*
G02*
X111058750Y-87917000I218750J0D01*
G01*
X111496250Y-87917000D01*
G75*
G02*
X111715000Y-88135750I0J-218750D01*
G01*
G37*
%TD*%
%TO.C,R18*%
G36*
G01*
X104142250Y-90328000D02*
X103629750Y-90328000D01*
G75*
G02*
X103411000Y-90109250I0J218750D01*
G01*
X103411000Y-89671750D01*
G75*
G02*
X103629750Y-89453000I218750J0D01*
G01*
X104142250Y-89453000D01*
G75*
G02*
X104361000Y-89671750I0J-218750D01*
G01*
X104361000Y-90109250D01*
G75*
G02*
X104142250Y-90328000I-218750J0D01*
G01*
G37*
G36*
G01*
X104142250Y-91903000D02*
X103629750Y-91903000D01*
G75*
G02*
X103411000Y-91684250I0J218750D01*
G01*
X103411000Y-91246750D01*
G75*
G02*
X103629750Y-91028000I218750J0D01*
G01*
X104142250Y-91028000D01*
G75*
G02*
X104361000Y-91246750I0J-218750D01*
G01*
X104361000Y-91684250D01*
G75*
G02*
X104142250Y-91903000I-218750J0D01*
G01*
G37*
%TD*%
%TO.C,R17*%
G36*
G01*
X117345750Y-92044000D02*
X117858250Y-92044000D01*
G75*
G02*
X118077000Y-92262750I0J-218750D01*
G01*
X118077000Y-92700250D01*
G75*
G02*
X117858250Y-92919000I-218750J0D01*
G01*
X117345750Y-92919000D01*
G75*
G02*
X117127000Y-92700250I0J218750D01*
G01*
X117127000Y-92262750D01*
G75*
G02*
X117345750Y-92044000I218750J0D01*
G01*
G37*
G36*
G01*
X117345750Y-90469000D02*
X117858250Y-90469000D01*
G75*
G02*
X118077000Y-90687750I0J-218750D01*
G01*
X118077000Y-91125250D01*
G75*
G02*
X117858250Y-91344000I-218750J0D01*
G01*
X117345750Y-91344000D01*
G75*
G02*
X117127000Y-91125250I0J218750D01*
G01*
X117127000Y-90687750D01*
G75*
G02*
X117345750Y-90469000I218750J0D01*
G01*
G37*
%TD*%
%TO.C,R16*%
G36*
G01*
X105153750Y-91028000D02*
X105666250Y-91028000D01*
G75*
G02*
X105885000Y-91246750I0J-218750D01*
G01*
X105885000Y-91684250D01*
G75*
G02*
X105666250Y-91903000I-218750J0D01*
G01*
X105153750Y-91903000D01*
G75*
G02*
X104935000Y-91684250I0J218750D01*
G01*
X104935000Y-91246750D01*
G75*
G02*
X105153750Y-91028000I218750J0D01*
G01*
G37*
G36*
G01*
X105153750Y-89453000D02*
X105666250Y-89453000D01*
G75*
G02*
X105885000Y-89671750I0J-218750D01*
G01*
X105885000Y-90109250D01*
G75*
G02*
X105666250Y-90328000I-218750J0D01*
G01*
X105153750Y-90328000D01*
G75*
G02*
X104935000Y-90109250I0J218750D01*
G01*
X104935000Y-89671750D01*
G75*
G02*
X105153750Y-89453000I218750J0D01*
G01*
G37*
%TD*%
%TO.C,R15*%
G36*
G01*
X107190250Y-93376000D02*
X106677750Y-93376000D01*
G75*
G02*
X106459000Y-93157250I0J218750D01*
G01*
X106459000Y-92719750D01*
G75*
G02*
X106677750Y-92501000I218750J0D01*
G01*
X107190250Y-92501000D01*
G75*
G02*
X107409000Y-92719750I0J-218750D01*
G01*
X107409000Y-93157250D01*
G75*
G02*
X107190250Y-93376000I-218750J0D01*
G01*
G37*
G36*
G01*
X107190250Y-94951000D02*
X106677750Y-94951000D01*
G75*
G02*
X106459000Y-94732250I0J218750D01*
G01*
X106459000Y-94294750D01*
G75*
G02*
X106677750Y-94076000I218750J0D01*
G01*
X107190250Y-94076000D01*
G75*
G02*
X107409000Y-94294750I0J-218750D01*
G01*
X107409000Y-94732250D01*
G75*
G02*
X107190250Y-94951000I-218750J0D01*
G01*
G37*
%TD*%
%TO.C,R14*%
G36*
G01*
X143568000Y-52121750D02*
X143568000Y-53034250D01*
G75*
G02*
X143324250Y-53278000I-243750J0D01*
G01*
X142836750Y-53278000D01*
G75*
G02*
X142593000Y-53034250I0J243750D01*
G01*
X142593000Y-52121750D01*
G75*
G02*
X142836750Y-51878000I243750J0D01*
G01*
X143324250Y-51878000D01*
G75*
G02*
X143568000Y-52121750I0J-243750D01*
G01*
G37*
G36*
G01*
X145443000Y-52121750D02*
X145443000Y-53034250D01*
G75*
G02*
X145199250Y-53278000I-243750J0D01*
G01*
X144711750Y-53278000D01*
G75*
G02*
X144468000Y-53034250I0J243750D01*
G01*
X144468000Y-52121750D01*
G75*
G02*
X144711750Y-51878000I243750J0D01*
G01*
X145199250Y-51878000D01*
G75*
G02*
X145443000Y-52121750I0J-243750D01*
G01*
G37*
%TD*%
%TO.C,R13*%
G36*
G01*
X106682250Y-57308000D02*
X106169750Y-57308000D01*
G75*
G02*
X105951000Y-57089250I0J218750D01*
G01*
X105951000Y-56651750D01*
G75*
G02*
X106169750Y-56433000I218750J0D01*
G01*
X106682250Y-56433000D01*
G75*
G02*
X106901000Y-56651750I0J-218750D01*
G01*
X106901000Y-57089250D01*
G75*
G02*
X106682250Y-57308000I-218750J0D01*
G01*
G37*
G36*
G01*
X106682250Y-58883000D02*
X106169750Y-58883000D01*
G75*
G02*
X105951000Y-58664250I0J218750D01*
G01*
X105951000Y-58226750D01*
G75*
G02*
X106169750Y-58008000I218750J0D01*
G01*
X106682250Y-58008000D01*
G75*
G02*
X106901000Y-58226750I0J-218750D01*
G01*
X106901000Y-58664250D01*
G75*
G02*
X106682250Y-58883000I-218750J0D01*
G01*
G37*
%TD*%
%TO.C,R12*%
G36*
G01*
X118361750Y-62580000D02*
X118874250Y-62580000D01*
G75*
G02*
X119093000Y-62798750I0J-218750D01*
G01*
X119093000Y-63236250D01*
G75*
G02*
X118874250Y-63455000I-218750J0D01*
G01*
X118361750Y-63455000D01*
G75*
G02*
X118143000Y-63236250I0J218750D01*
G01*
X118143000Y-62798750D01*
G75*
G02*
X118361750Y-62580000I218750J0D01*
G01*
G37*
G36*
G01*
X118361750Y-61005000D02*
X118874250Y-61005000D01*
G75*
G02*
X119093000Y-61223750I0J-218750D01*
G01*
X119093000Y-61661250D01*
G75*
G02*
X118874250Y-61880000I-218750J0D01*
G01*
X118361750Y-61880000D01*
G75*
G02*
X118143000Y-61661250I0J218750D01*
G01*
X118143000Y-61223750D01*
G75*
G02*
X118361750Y-61005000I218750J0D01*
G01*
G37*
%TD*%
%TO.C,R11*%
G36*
G01*
X118361750Y-56230000D02*
X118874250Y-56230000D01*
G75*
G02*
X119093000Y-56448750I0J-218750D01*
G01*
X119093000Y-56886250D01*
G75*
G02*
X118874250Y-57105000I-218750J0D01*
G01*
X118361750Y-57105000D01*
G75*
G02*
X118143000Y-56886250I0J218750D01*
G01*
X118143000Y-56448750D01*
G75*
G02*
X118361750Y-56230000I218750J0D01*
G01*
G37*
G36*
G01*
X118361750Y-54655000D02*
X118874250Y-54655000D01*
G75*
G02*
X119093000Y-54873750I0J-218750D01*
G01*
X119093000Y-55311250D01*
G75*
G02*
X118874250Y-55530000I-218750J0D01*
G01*
X118361750Y-55530000D01*
G75*
G02*
X118143000Y-55311250I0J218750D01*
G01*
X118143000Y-54873750D01*
G75*
G02*
X118361750Y-54655000I218750J0D01*
G01*
G37*
%TD*%
%TO.C,R10*%
G36*
G01*
X107947750Y-81630000D02*
X108460250Y-81630000D01*
G75*
G02*
X108679000Y-81848750I0J-218750D01*
G01*
X108679000Y-82286250D01*
G75*
G02*
X108460250Y-82505000I-218750J0D01*
G01*
X107947750Y-82505000D01*
G75*
G02*
X107729000Y-82286250I0J218750D01*
G01*
X107729000Y-81848750D01*
G75*
G02*
X107947750Y-81630000I218750J0D01*
G01*
G37*
G36*
G01*
X107947750Y-80055000D02*
X108460250Y-80055000D01*
G75*
G02*
X108679000Y-80273750I0J-218750D01*
G01*
X108679000Y-80711250D01*
G75*
G02*
X108460250Y-80930000I-218750J0D01*
G01*
X107947750Y-80930000D01*
G75*
G02*
X107729000Y-80711250I0J218750D01*
G01*
X107729000Y-80273750D01*
G75*
G02*
X107947750Y-80055000I218750J0D01*
G01*
G37*
%TD*%
%TO.C,R9*%
G36*
G01*
X120652250Y-82454000D02*
X120139750Y-82454000D01*
G75*
G02*
X119921000Y-82235250I0J218750D01*
G01*
X119921000Y-81797750D01*
G75*
G02*
X120139750Y-81579000I218750J0D01*
G01*
X120652250Y-81579000D01*
G75*
G02*
X120871000Y-81797750I0J-218750D01*
G01*
X120871000Y-82235250D01*
G75*
G02*
X120652250Y-82454000I-218750J0D01*
G01*
G37*
G36*
G01*
X120652250Y-84029000D02*
X120139750Y-84029000D01*
G75*
G02*
X119921000Y-83810250I0J218750D01*
G01*
X119921000Y-83372750D01*
G75*
G02*
X120139750Y-83154000I218750J0D01*
G01*
X120652250Y-83154000D01*
G75*
G02*
X120871000Y-83372750I0J-218750D01*
G01*
X120871000Y-83810250D01*
G75*
G02*
X120652250Y-84029000I-218750J0D01*
G01*
G37*
%TD*%
%TO.C,R8*%
G36*
G01*
X111410000Y-75689750D02*
X111410000Y-76202250D01*
G75*
G02*
X111191250Y-76421000I-218750J0D01*
G01*
X110753750Y-76421000D01*
G75*
G02*
X110535000Y-76202250I0J218750D01*
G01*
X110535000Y-75689750D01*
G75*
G02*
X110753750Y-75471000I218750J0D01*
G01*
X111191250Y-75471000D01*
G75*
G02*
X111410000Y-75689750I0J-218750D01*
G01*
G37*
G36*
G01*
X112985000Y-75689750D02*
X112985000Y-76202250D01*
G75*
G02*
X112766250Y-76421000I-218750J0D01*
G01*
X112328750Y-76421000D01*
G75*
G02*
X112110000Y-76202250I0J218750D01*
G01*
X112110000Y-75689750D01*
G75*
G02*
X112328750Y-75471000I218750J0D01*
G01*
X112766250Y-75471000D01*
G75*
G02*
X112985000Y-75689750I0J-218750D01*
G01*
G37*
%TD*%
%TO.C,R7*%
G36*
G01*
X105412250Y-77882000D02*
X104899750Y-77882000D01*
G75*
G02*
X104681000Y-77663250I0J218750D01*
G01*
X104681000Y-77225750D01*
G75*
G02*
X104899750Y-77007000I218750J0D01*
G01*
X105412250Y-77007000D01*
G75*
G02*
X105631000Y-77225750I0J-218750D01*
G01*
X105631000Y-77663250D01*
G75*
G02*
X105412250Y-77882000I-218750J0D01*
G01*
G37*
G36*
G01*
X105412250Y-79457000D02*
X104899750Y-79457000D01*
G75*
G02*
X104681000Y-79238250I0J218750D01*
G01*
X104681000Y-78800750D01*
G75*
G02*
X104899750Y-78582000I218750J0D01*
G01*
X105412250Y-78582000D01*
G75*
G02*
X105631000Y-78800750I0J-218750D01*
G01*
X105631000Y-79238250D01*
G75*
G02*
X105412250Y-79457000I-218750J0D01*
G01*
G37*
%TD*%
%TO.C,R6*%
G36*
G01*
X118615750Y-79852000D02*
X119128250Y-79852000D01*
G75*
G02*
X119347000Y-80070750I0J-218750D01*
G01*
X119347000Y-80508250D01*
G75*
G02*
X119128250Y-80727000I-218750J0D01*
G01*
X118615750Y-80727000D01*
G75*
G02*
X118397000Y-80508250I0J218750D01*
G01*
X118397000Y-80070750D01*
G75*
G02*
X118615750Y-79852000I218750J0D01*
G01*
G37*
G36*
G01*
X118615750Y-78277000D02*
X119128250Y-78277000D01*
G75*
G02*
X119347000Y-78495750I0J-218750D01*
G01*
X119347000Y-78933250D01*
G75*
G02*
X119128250Y-79152000I-218750J0D01*
G01*
X118615750Y-79152000D01*
G75*
G02*
X118397000Y-78933250I0J218750D01*
G01*
X118397000Y-78495750D01*
G75*
G02*
X118615750Y-78277000I218750J0D01*
G01*
G37*
%TD*%
%TO.C,R5*%
G36*
G01*
X113281750Y-61056000D02*
X113794250Y-61056000D01*
G75*
G02*
X114013000Y-61274750I0J-218750D01*
G01*
X114013000Y-61712250D01*
G75*
G02*
X113794250Y-61931000I-218750J0D01*
G01*
X113281750Y-61931000D01*
G75*
G02*
X113063000Y-61712250I0J218750D01*
G01*
X113063000Y-61274750D01*
G75*
G02*
X113281750Y-61056000I218750J0D01*
G01*
G37*
G36*
G01*
X113281750Y-59481000D02*
X113794250Y-59481000D01*
G75*
G02*
X114013000Y-59699750I0J-218750D01*
G01*
X114013000Y-60137250D01*
G75*
G02*
X113794250Y-60356000I-218750J0D01*
G01*
X113281750Y-60356000D01*
G75*
G02*
X113063000Y-60137250I0J218750D01*
G01*
X113063000Y-59699750D01*
G75*
G02*
X113281750Y-59481000I218750J0D01*
G01*
G37*
%TD*%
%TO.C,R4*%
G36*
G01*
X106423750Y-78582000D02*
X106936250Y-78582000D01*
G75*
G02*
X107155000Y-78800750I0J-218750D01*
G01*
X107155000Y-79238250D01*
G75*
G02*
X106936250Y-79457000I-218750J0D01*
G01*
X106423750Y-79457000D01*
G75*
G02*
X106205000Y-79238250I0J218750D01*
G01*
X106205000Y-78800750D01*
G75*
G02*
X106423750Y-78582000I218750J0D01*
G01*
G37*
G36*
G01*
X106423750Y-77007000D02*
X106936250Y-77007000D01*
G75*
G02*
X107155000Y-77225750I0J-218750D01*
G01*
X107155000Y-77663250D01*
G75*
G02*
X106936250Y-77882000I-218750J0D01*
G01*
X106423750Y-77882000D01*
G75*
G02*
X106205000Y-77663250I0J218750D01*
G01*
X106205000Y-77225750D01*
G75*
G02*
X106423750Y-77007000I218750J0D01*
G01*
G37*
%TD*%
%TO.C,R3*%
G36*
G01*
X106936250Y-80930000D02*
X106423750Y-80930000D01*
G75*
G02*
X106205000Y-80711250I0J218750D01*
G01*
X106205000Y-80273750D01*
G75*
G02*
X106423750Y-80055000I218750J0D01*
G01*
X106936250Y-80055000D01*
G75*
G02*
X107155000Y-80273750I0J-218750D01*
G01*
X107155000Y-80711250D01*
G75*
G02*
X106936250Y-80930000I-218750J0D01*
G01*
G37*
G36*
G01*
X106936250Y-82505000D02*
X106423750Y-82505000D01*
G75*
G02*
X106205000Y-82286250I0J218750D01*
G01*
X106205000Y-81848750D01*
G75*
G02*
X106423750Y-81630000I218750J0D01*
G01*
X106936250Y-81630000D01*
G75*
G02*
X107155000Y-81848750I0J-218750D01*
G01*
X107155000Y-82286250D01*
G75*
G02*
X106936250Y-82505000I-218750J0D01*
G01*
G37*
%TD*%
%TO.C,R2*%
G36*
G01*
X106169750Y-54960000D02*
X106682250Y-54960000D01*
G75*
G02*
X106901000Y-55178750I0J-218750D01*
G01*
X106901000Y-55616250D01*
G75*
G02*
X106682250Y-55835000I-218750J0D01*
G01*
X106169750Y-55835000D01*
G75*
G02*
X105951000Y-55616250I0J218750D01*
G01*
X105951000Y-55178750D01*
G75*
G02*
X106169750Y-54960000I218750J0D01*
G01*
G37*
G36*
G01*
X106169750Y-53385000D02*
X106682250Y-53385000D01*
G75*
G02*
X106901000Y-53603750I0J-218750D01*
G01*
X106901000Y-54041250D01*
G75*
G02*
X106682250Y-54260000I-218750J0D01*
G01*
X106169750Y-54260000D01*
G75*
G02*
X105951000Y-54041250I0J218750D01*
G01*
X105951000Y-53603750D01*
G75*
G02*
X106169750Y-53385000I218750J0D01*
G01*
G37*
%TD*%
%TO.C,R1*%
G36*
G01*
X107693750Y-58008000D02*
X108206250Y-58008000D01*
G75*
G02*
X108425000Y-58226750I0J-218750D01*
G01*
X108425000Y-58664250D01*
G75*
G02*
X108206250Y-58883000I-218750J0D01*
G01*
X107693750Y-58883000D01*
G75*
G02*
X107475000Y-58664250I0J218750D01*
G01*
X107475000Y-58226750D01*
G75*
G02*
X107693750Y-58008000I218750J0D01*
G01*
G37*
G36*
G01*
X107693750Y-56433000D02*
X108206250Y-56433000D01*
G75*
G02*
X108425000Y-56651750I0J-218750D01*
G01*
X108425000Y-57089250D01*
G75*
G02*
X108206250Y-57308000I-218750J0D01*
G01*
X107693750Y-57308000D01*
G75*
G02*
X107475000Y-57089250I0J218750D01*
G01*
X107475000Y-56651750D01*
G75*
G02*
X107693750Y-56433000I218750J0D01*
G01*
G37*
%TD*%
%TO.C,C6*%
G36*
G01*
X116334250Y-91344000D02*
X115821750Y-91344000D01*
G75*
G02*
X115603000Y-91125250I0J218750D01*
G01*
X115603000Y-90687750D01*
G75*
G02*
X115821750Y-90469000I218750J0D01*
G01*
X116334250Y-90469000D01*
G75*
G02*
X116553000Y-90687750I0J-218750D01*
G01*
X116553000Y-91125250D01*
G75*
G02*
X116334250Y-91344000I-218750J0D01*
G01*
G37*
G36*
G01*
X116334250Y-92919000D02*
X115821750Y-92919000D01*
G75*
G02*
X115603000Y-92700250I0J218750D01*
G01*
X115603000Y-92262750D01*
G75*
G02*
X115821750Y-92044000I218750J0D01*
G01*
X116334250Y-92044000D01*
G75*
G02*
X116553000Y-92262750I0J-218750D01*
G01*
X116553000Y-92700250D01*
G75*
G02*
X116334250Y-92919000I-218750J0D01*
G01*
G37*
%TD*%
%TO.C,C5*%
G36*
G01*
X107190250Y-90328000D02*
X106677750Y-90328000D01*
G75*
G02*
X106459000Y-90109250I0J218750D01*
G01*
X106459000Y-89671750D01*
G75*
G02*
X106677750Y-89453000I218750J0D01*
G01*
X107190250Y-89453000D01*
G75*
G02*
X107409000Y-89671750I0J-218750D01*
G01*
X107409000Y-90109250D01*
G75*
G02*
X107190250Y-90328000I-218750J0D01*
G01*
G37*
G36*
G01*
X107190250Y-91903000D02*
X106677750Y-91903000D01*
G75*
G02*
X106459000Y-91684250I0J218750D01*
G01*
X106459000Y-91246750D01*
G75*
G02*
X106677750Y-91028000I218750J0D01*
G01*
X107190250Y-91028000D01*
G75*
G02*
X107409000Y-91246750I0J-218750D01*
G01*
X107409000Y-91684250D01*
G75*
G02*
X107190250Y-91903000I-218750J0D01*
G01*
G37*
%TD*%
%TO.C,C4*%
G36*
G01*
X117350250Y-55530000D02*
X116837750Y-55530000D01*
G75*
G02*
X116619000Y-55311250I0J218750D01*
G01*
X116619000Y-54873750D01*
G75*
G02*
X116837750Y-54655000I218750J0D01*
G01*
X117350250Y-54655000D01*
G75*
G02*
X117569000Y-54873750I0J-218750D01*
G01*
X117569000Y-55311250D01*
G75*
G02*
X117350250Y-55530000I-218750J0D01*
G01*
G37*
G36*
G01*
X117350250Y-57105000D02*
X116837750Y-57105000D01*
G75*
G02*
X116619000Y-56886250I0J218750D01*
G01*
X116619000Y-56448750D01*
G75*
G02*
X116837750Y-56230000I218750J0D01*
G01*
X117350250Y-56230000D01*
G75*
G02*
X117569000Y-56448750I0J-218750D01*
G01*
X117569000Y-56886250D01*
G75*
G02*
X117350250Y-57105000I-218750J0D01*
G01*
G37*
%TD*%
%TO.C,C3*%
G36*
G01*
X117604250Y-79152000D02*
X117091750Y-79152000D01*
G75*
G02*
X116873000Y-78933250I0J218750D01*
G01*
X116873000Y-78495750D01*
G75*
G02*
X117091750Y-78277000I218750J0D01*
G01*
X117604250Y-78277000D01*
G75*
G02*
X117823000Y-78495750I0J-218750D01*
G01*
X117823000Y-78933250D01*
G75*
G02*
X117604250Y-79152000I-218750J0D01*
G01*
G37*
G36*
G01*
X117604250Y-80727000D02*
X117091750Y-80727000D01*
G75*
G02*
X116873000Y-80508250I0J218750D01*
G01*
X116873000Y-80070750D01*
G75*
G02*
X117091750Y-79852000I218750J0D01*
G01*
X117604250Y-79852000D01*
G75*
G02*
X117823000Y-80070750I0J-218750D01*
G01*
X117823000Y-80508250D01*
G75*
G02*
X117604250Y-80727000I-218750J0D01*
G01*
G37*
%TD*%
%TO.C,C2*%
G36*
G01*
X108460250Y-77882000D02*
X107947750Y-77882000D01*
G75*
G02*
X107729000Y-77663250I0J218750D01*
G01*
X107729000Y-77225750D01*
G75*
G02*
X107947750Y-77007000I218750J0D01*
G01*
X108460250Y-77007000D01*
G75*
G02*
X108679000Y-77225750I0J-218750D01*
G01*
X108679000Y-77663250D01*
G75*
G02*
X108460250Y-77882000I-218750J0D01*
G01*
G37*
G36*
G01*
X108460250Y-79457000D02*
X107947750Y-79457000D01*
G75*
G02*
X107729000Y-79238250I0J218750D01*
G01*
X107729000Y-78800750D01*
G75*
G02*
X107947750Y-78582000I218750J0D01*
G01*
X108460250Y-78582000D01*
G75*
G02*
X108679000Y-78800750I0J-218750D01*
G01*
X108679000Y-79238250D01*
G75*
G02*
X108460250Y-79457000I-218750J0D01*
G01*
G37*
%TD*%
%TO.C,C1*%
G36*
G01*
X108206250Y-54260000D02*
X107693750Y-54260000D01*
G75*
G02*
X107475000Y-54041250I0J218750D01*
G01*
X107475000Y-53603750D01*
G75*
G02*
X107693750Y-53385000I218750J0D01*
G01*
X108206250Y-53385000D01*
G75*
G02*
X108425000Y-53603750I0J-218750D01*
G01*
X108425000Y-54041250D01*
G75*
G02*
X108206250Y-54260000I-218750J0D01*
G01*
G37*
G36*
G01*
X108206250Y-55835000D02*
X107693750Y-55835000D01*
G75*
G02*
X107475000Y-55616250I0J218750D01*
G01*
X107475000Y-55178750D01*
G75*
G02*
X107693750Y-54960000I218750J0D01*
G01*
X108206250Y-54960000D01*
G75*
G02*
X108425000Y-55178750I0J-218750D01*
G01*
X108425000Y-55616250D01*
G75*
G02*
X108206250Y-55835000I-218750J0D01*
G01*
G37*
%TD*%
M02*
