%TF.GenerationSoftware,KiCad,Pcbnew,5.1.6+dfsg1-1*%
%TF.CreationDate,2020-08-05T10:23:58+08:00*%
%TF.ProjectId,stm32dev-analog,73746d33-3264-4657-962d-616e616c6f67,rev?*%
%TF.SameCoordinates,Original*%
%TF.FileFunction,Legend,Top*%
%TF.FilePolarity,Positive*%
%FSLAX46Y46*%
G04 Gerber Fmt 4.6, Leading zero omitted, Abs format (unit mm)*
G04 Created by KiCad (PCBNEW 5.1.6+dfsg1-1) date 2020-08-05 10:23:58*
%MOMM*%
%LPD*%
G01*
G04 APERTURE LIST*
%ADD10C,0.300000*%
%ADD11C,0.120000*%
%ADD12C,0.150000*%
G04 APERTURE END LIST*
D10*
X104620714Y-34535000D02*
X105335000Y-34535000D01*
X104477857Y-34963571D02*
X104977857Y-33463571D01*
X105477857Y-34963571D01*
X105977857Y-33963571D02*
X105977857Y-34963571D01*
X105977857Y-34106428D02*
X106049285Y-34035000D01*
X106192142Y-33963571D01*
X106406428Y-33963571D01*
X106549285Y-34035000D01*
X106620714Y-34177857D01*
X106620714Y-34963571D01*
X107977857Y-34963571D02*
X107977857Y-34177857D01*
X107906428Y-34035000D01*
X107763571Y-33963571D01*
X107477857Y-33963571D01*
X107335000Y-34035000D01*
X107977857Y-34892142D02*
X107835000Y-34963571D01*
X107477857Y-34963571D01*
X107335000Y-34892142D01*
X107263571Y-34749285D01*
X107263571Y-34606428D01*
X107335000Y-34463571D01*
X107477857Y-34392142D01*
X107835000Y-34392142D01*
X107977857Y-34320714D01*
X108906428Y-34963571D02*
X108763571Y-34892142D01*
X108692142Y-34749285D01*
X108692142Y-33463571D01*
X109692142Y-34963571D02*
X109549285Y-34892142D01*
X109477857Y-34820714D01*
X109406428Y-34677857D01*
X109406428Y-34249285D01*
X109477857Y-34106428D01*
X109549285Y-34035000D01*
X109692142Y-33963571D01*
X109906428Y-33963571D01*
X110049285Y-34035000D01*
X110120714Y-34106428D01*
X110192142Y-34249285D01*
X110192142Y-34677857D01*
X110120714Y-34820714D01*
X110049285Y-34892142D01*
X109906428Y-34963571D01*
X109692142Y-34963571D01*
X111477857Y-33963571D02*
X111477857Y-35177857D01*
X111406428Y-35320714D01*
X111335000Y-35392142D01*
X111192142Y-35463571D01*
X110977857Y-35463571D01*
X110835000Y-35392142D01*
X111477857Y-34892142D02*
X111335000Y-34963571D01*
X111049285Y-34963571D01*
X110906428Y-34892142D01*
X110835000Y-34820714D01*
X110763571Y-34677857D01*
X110763571Y-34249285D01*
X110835000Y-34106428D01*
X110906428Y-34035000D01*
X111049285Y-33963571D01*
X111335000Y-33963571D01*
X111477857Y-34035000D01*
X113335000Y-34963571D02*
X113335000Y-33463571D01*
X113692142Y-33463571D01*
X113906428Y-33535000D01*
X114049285Y-33677857D01*
X114120714Y-33820714D01*
X114192142Y-34106428D01*
X114192142Y-34320714D01*
X114120714Y-34606428D01*
X114049285Y-34749285D01*
X113906428Y-34892142D01*
X113692142Y-34963571D01*
X113335000Y-34963571D01*
X115406428Y-34892142D02*
X115263571Y-34963571D01*
X114977857Y-34963571D01*
X114835000Y-34892142D01*
X114763571Y-34749285D01*
X114763571Y-34177857D01*
X114835000Y-34035000D01*
X114977857Y-33963571D01*
X115263571Y-33963571D01*
X115406428Y-34035000D01*
X115477857Y-34177857D01*
X115477857Y-34320714D01*
X114763571Y-34463571D01*
X115977857Y-33963571D02*
X116335000Y-34963571D01*
X116692142Y-33963571D01*
X105549285Y-37513571D02*
X105049285Y-36799285D01*
X104692142Y-37513571D02*
X104692142Y-36013571D01*
X105263571Y-36013571D01*
X105406428Y-36085000D01*
X105477857Y-36156428D01*
X105549285Y-36299285D01*
X105549285Y-36513571D01*
X105477857Y-36656428D01*
X105406428Y-36727857D01*
X105263571Y-36799285D01*
X104692142Y-36799285D01*
X106763571Y-37442142D02*
X106620714Y-37513571D01*
X106335000Y-37513571D01*
X106192142Y-37442142D01*
X106120714Y-37299285D01*
X106120714Y-36727857D01*
X106192142Y-36585000D01*
X106335000Y-36513571D01*
X106620714Y-36513571D01*
X106763571Y-36585000D01*
X106835000Y-36727857D01*
X106835000Y-36870714D01*
X106120714Y-37013571D01*
X107335000Y-36513571D02*
X107692142Y-37513571D01*
X108049285Y-36513571D01*
X109692142Y-37085000D02*
X110406428Y-37085000D01*
X109549285Y-37513571D02*
X110049285Y-36013571D01*
X110549285Y-37513571D01*
D11*
%TO.C,C13*%
X111851221Y-72642000D02*
X112176779Y-72642000D01*
X111851221Y-73662000D02*
X112176779Y-73662000D01*
%TO.C,Q2*%
X146360000Y-38356000D02*
X146360000Y-39816000D01*
X143200000Y-38356000D02*
X143200000Y-40516000D01*
X143200000Y-38356000D02*
X144130000Y-38356000D01*
X146360000Y-38356000D02*
X145430000Y-38356000D01*
%TO.C,R23*%
X130304000Y-83728779D02*
X130304000Y-83403221D01*
X129284000Y-83728779D02*
X129284000Y-83403221D01*
%TO.C,Q1*%
X142042000Y-38356000D02*
X142042000Y-39816000D01*
X138882000Y-38356000D02*
X138882000Y-40516000D01*
X138882000Y-38356000D02*
X139812000Y-38356000D01*
X142042000Y-38356000D02*
X141112000Y-38356000D01*
D12*
%TO.C,J9*%
X132842000Y-91440000D02*
G75*
G03*
X132842000Y-91440000I-508000J0D01*
G01*
X136834000Y-86940000D02*
X136834000Y-97440000D01*
X127834000Y-86940000D02*
X136834000Y-86940000D01*
X127834000Y-97440000D02*
X127834000Y-86940000D01*
X136834000Y-97440000D02*
X127834000Y-97440000D01*
D11*
%TO.C,C12*%
X109565221Y-94994000D02*
X109890779Y-94994000D01*
X109565221Y-96014000D02*
X109890779Y-96014000D01*
%TO.C,C11*%
X116677221Y-88898000D02*
X117002779Y-88898000D01*
X116677221Y-89918000D02*
X117002779Y-89918000D01*
%TO.C,J8*%
X149800000Y-74990000D02*
X155000000Y-74990000D01*
X149800000Y-57150000D02*
X149800000Y-74990000D01*
X155000000Y-54550000D02*
X155000000Y-74990000D01*
X149800000Y-57150000D02*
X152400000Y-57150000D01*
X152400000Y-57150000D02*
X152400000Y-54550000D01*
X152400000Y-54550000D02*
X155000000Y-54550000D01*
X149800000Y-55880000D02*
X149800000Y-54550000D01*
X149800000Y-54550000D02*
X151130000Y-54550000D01*
%TO.C,U2*%
X112776000Y-82062000D02*
X114726000Y-82062000D01*
X112776000Y-82062000D02*
X110826000Y-82062000D01*
X112776000Y-76942000D02*
X114726000Y-76942000D01*
X112776000Y-76942000D02*
X109326000Y-76942000D01*
%TO.C,J4*%
X106680000Y-30286000D02*
X106680000Y-27626000D01*
X106680000Y-30286000D02*
X155000000Y-30286000D01*
X155000000Y-30286000D02*
X155000000Y-27626000D01*
X106680000Y-27626000D02*
X155000000Y-27626000D01*
X104080000Y-27626000D02*
X105410000Y-27626000D01*
X104080000Y-28956000D02*
X104080000Y-27626000D01*
%TO.C,J3*%
X106680000Y-50606000D02*
X106680000Y-47946000D01*
X106680000Y-50606000D02*
X155000000Y-50606000D01*
X155000000Y-50606000D02*
X155000000Y-47946000D01*
X106680000Y-47946000D02*
X155000000Y-47946000D01*
X104080000Y-47946000D02*
X105410000Y-47946000D01*
X104080000Y-49276000D02*
X104080000Y-47946000D01*
%TO.C,C14*%
X117185221Y-65403000D02*
X117510779Y-65403000D01*
X117185221Y-66423000D02*
X117510779Y-66423000D01*
%TO.C,C10*%
X110835221Y-82548000D02*
X111160779Y-82548000D01*
X110835221Y-83568000D02*
X111160779Y-83568000D01*
%TO.C,C9*%
X110581221Y-58672000D02*
X110906779Y-58672000D01*
X110581221Y-59692000D02*
X110906779Y-59692000D01*
%TO.C,C8*%
X117693221Y-53084000D02*
X118018779Y-53084000D01*
X117693221Y-54104000D02*
X118018779Y-54104000D01*
%TO.C,C7*%
X117947221Y-76706000D02*
X118272779Y-76706000D01*
X117947221Y-77726000D02*
X118272779Y-77726000D01*
%TO.C,U5*%
X113792000Y-67036000D02*
X110342000Y-67036000D01*
X113792000Y-67036000D02*
X115742000Y-67036000D01*
X113792000Y-72156000D02*
X111842000Y-72156000D01*
X113792000Y-72156000D02*
X115742000Y-72156000D01*
%TO.C,U4*%
X150506000Y-78654000D02*
X148056000Y-78654000D01*
X148706000Y-81874000D02*
X150506000Y-81874000D01*
%TO.C,U3*%
X111506000Y-89388000D02*
X108056000Y-89388000D01*
X111506000Y-89388000D02*
X113456000Y-89388000D01*
X111506000Y-94508000D02*
X109556000Y-94508000D01*
X111506000Y-94508000D02*
X113456000Y-94508000D01*
%TO.C,U1*%
X112522000Y-53066000D02*
X109072000Y-53066000D01*
X112522000Y-53066000D02*
X114472000Y-53066000D01*
X112522000Y-58186000D02*
X110572000Y-58186000D01*
X112522000Y-58186000D02*
X114472000Y-58186000D01*
%TO.C,RV2*%
X144530000Y-54840000D02*
X134790000Y-54840000D01*
X144530000Y-66430000D02*
X143040000Y-66430000D01*
X144530000Y-57900000D02*
X144530000Y-54840000D01*
X134780000Y-66430000D02*
X134780000Y-61710000D01*
X134790000Y-57900000D02*
X134790000Y-54840000D01*
X144530000Y-66430000D02*
X144530000Y-61710000D01*
X135970000Y-66430000D02*
X134790000Y-66430000D01*
X138870000Y-66430000D02*
X138340000Y-66430000D01*
X141320000Y-66430000D02*
X140490000Y-66430000D01*
%TO.C,RV1*%
X144530000Y-70080000D02*
X134790000Y-70080000D01*
X144530000Y-81670000D02*
X143040000Y-81670000D01*
X144530000Y-73140000D02*
X144530000Y-70080000D01*
X134780000Y-81670000D02*
X134780000Y-76950000D01*
X134790000Y-73140000D02*
X134790000Y-70080000D01*
X144530000Y-81670000D02*
X144530000Y-76950000D01*
X135970000Y-81670000D02*
X134790000Y-81670000D01*
X138870000Y-81670000D02*
X138340000Y-81670000D01*
X141320000Y-81670000D02*
X140490000Y-81670000D01*
%TO.C,R22*%
X151546779Y-82802000D02*
X151221221Y-82802000D01*
X151546779Y-83822000D02*
X151221221Y-83822000D01*
%TO.C,R21*%
X104900000Y-93563221D02*
X104900000Y-93888779D01*
X105920000Y-93563221D02*
X105920000Y-93888779D01*
%TO.C,R20*%
X116748779Y-96264000D02*
X116423221Y-96264000D01*
X116748779Y-97284000D02*
X116423221Y-97284000D01*
%TO.C,R19*%
X110652779Y-87882000D02*
X110327221Y-87882000D01*
X110652779Y-88902000D02*
X110327221Y-88902000D01*
%TO.C,R18*%
X104396000Y-90840779D02*
X104396000Y-90515221D01*
X103376000Y-90840779D02*
X103376000Y-90515221D01*
%TO.C,R17*%
X117092000Y-91531221D02*
X117092000Y-91856779D01*
X118112000Y-91531221D02*
X118112000Y-91856779D01*
%TO.C,R16*%
X104900000Y-90515221D02*
X104900000Y-90840779D01*
X105920000Y-90515221D02*
X105920000Y-90840779D01*
%TO.C,R15*%
X107444000Y-93888779D02*
X107444000Y-93563221D01*
X106424000Y-93888779D02*
X106424000Y-93563221D01*
%TO.C,R14*%
X144276578Y-51868000D02*
X143759422Y-51868000D01*
X144276578Y-53288000D02*
X143759422Y-53288000D01*
%TO.C,R13*%
X106936000Y-57820779D02*
X106936000Y-57495221D01*
X105916000Y-57820779D02*
X105916000Y-57495221D01*
%TO.C,R12*%
X118108000Y-62067221D02*
X118108000Y-62392779D01*
X119128000Y-62067221D02*
X119128000Y-62392779D01*
%TO.C,R11*%
X118108000Y-55717221D02*
X118108000Y-56042779D01*
X119128000Y-55717221D02*
X119128000Y-56042779D01*
%TO.C,R10*%
X107694000Y-81117221D02*
X107694000Y-81442779D01*
X108714000Y-81117221D02*
X108714000Y-81442779D01*
%TO.C,R9*%
X120906000Y-82966779D02*
X120906000Y-82641221D01*
X119886000Y-82966779D02*
X119886000Y-82641221D01*
%TO.C,R8*%
X111922779Y-75436000D02*
X111597221Y-75436000D01*
X111922779Y-76456000D02*
X111597221Y-76456000D01*
%TO.C,R7*%
X105666000Y-78394779D02*
X105666000Y-78069221D01*
X104646000Y-78394779D02*
X104646000Y-78069221D01*
%TO.C,R6*%
X118362000Y-79339221D02*
X118362000Y-79664779D01*
X119382000Y-79339221D02*
X119382000Y-79664779D01*
%TO.C,R5*%
X113028000Y-60543221D02*
X113028000Y-60868779D01*
X114048000Y-60543221D02*
X114048000Y-60868779D01*
%TO.C,R4*%
X106170000Y-78069221D02*
X106170000Y-78394779D01*
X107190000Y-78069221D02*
X107190000Y-78394779D01*
%TO.C,R3*%
X107190000Y-81442779D02*
X107190000Y-81117221D01*
X106170000Y-81442779D02*
X106170000Y-81117221D01*
%TO.C,R2*%
X105916000Y-54447221D02*
X105916000Y-54772779D01*
X106936000Y-54447221D02*
X106936000Y-54772779D01*
%TO.C,R1*%
X107440000Y-57495221D02*
X107440000Y-57820779D01*
X108460000Y-57495221D02*
X108460000Y-57820779D01*
D12*
%TO.C,J7*%
X123444000Y-91440000D02*
G75*
G03*
X123444000Y-91440000I-508000J0D01*
G01*
X127436000Y-86940000D02*
X127436000Y-97440000D01*
X118436000Y-86940000D02*
X127436000Y-86940000D01*
X118436000Y-97440000D02*
X118436000Y-86940000D01*
X127436000Y-97440000D02*
X118436000Y-97440000D01*
%TO.C,J6*%
X151638000Y-91440000D02*
G75*
G03*
X151638000Y-91440000I-508000J0D01*
G01*
X155630000Y-86940000D02*
X155630000Y-97440000D01*
X146630000Y-86940000D02*
X155630000Y-86940000D01*
X146630000Y-97440000D02*
X146630000Y-86940000D01*
X155630000Y-97440000D02*
X146630000Y-97440000D01*
%TO.C,J5*%
X124968000Y-74930000D02*
G75*
G03*
X124968000Y-74930000I-508000J0D01*
G01*
X128960000Y-70430000D02*
X128960000Y-80930000D01*
X119960000Y-70430000D02*
X128960000Y-70430000D01*
X119960000Y-80930000D02*
X119960000Y-70430000D01*
X128960000Y-80930000D02*
X119960000Y-80930000D01*
%TO.C,J2*%
X142240000Y-91440000D02*
G75*
G03*
X142240000Y-91440000I-508000J0D01*
G01*
X146232000Y-86940000D02*
X146232000Y-97440000D01*
X137232000Y-86940000D02*
X146232000Y-86940000D01*
X137232000Y-97440000D02*
X137232000Y-86940000D01*
X146232000Y-97440000D02*
X137232000Y-97440000D01*
%TO.C,J1*%
X124968000Y-59690000D02*
G75*
G03*
X124968000Y-59690000I-508000J0D01*
G01*
X128960000Y-55190000D02*
X128960000Y-65690000D01*
X119960000Y-55190000D02*
X128960000Y-55190000D01*
X119960000Y-65690000D02*
X119960000Y-55190000D01*
X128960000Y-65690000D02*
X119960000Y-65690000D01*
D11*
%TO.C,D1*%
X152510000Y-79330000D02*
X152510000Y-80740000D01*
X154830000Y-80740000D02*
X154830000Y-78710000D01*
X154830000Y-80740000D02*
X154170000Y-80740000D01*
X153170000Y-80740000D02*
X152510000Y-80740000D01*
%TO.C,C6*%
X116588000Y-91856779D02*
X116588000Y-91531221D01*
X115568000Y-91856779D02*
X115568000Y-91531221D01*
%TO.C,C5*%
X107444000Y-90840779D02*
X107444000Y-90515221D01*
X106424000Y-90840779D02*
X106424000Y-90515221D01*
%TO.C,C4*%
X117604000Y-56042779D02*
X117604000Y-55717221D01*
X116584000Y-56042779D02*
X116584000Y-55717221D01*
%TO.C,C3*%
X117858000Y-79664779D02*
X117858000Y-79339221D01*
X116838000Y-79664779D02*
X116838000Y-79339221D01*
%TO.C,C2*%
X108714000Y-78394779D02*
X108714000Y-78069221D01*
X107694000Y-78394779D02*
X107694000Y-78069221D01*
%TO.C,C1*%
X108460000Y-54772779D02*
X108460000Y-54447221D01*
X107440000Y-54772779D02*
X107440000Y-54447221D01*
%TO.C,C13*%
D12*
X114165142Y-73509142D02*
X114117523Y-73556761D01*
X113974666Y-73604380D01*
X113879428Y-73604380D01*
X113736571Y-73556761D01*
X113641333Y-73461523D01*
X113593714Y-73366285D01*
X113546095Y-73175809D01*
X113546095Y-73032952D01*
X113593714Y-72842476D01*
X113641333Y-72747238D01*
X113736571Y-72652000D01*
X113879428Y-72604380D01*
X113974666Y-72604380D01*
X114117523Y-72652000D01*
X114165142Y-72699619D01*
X115117523Y-73604380D02*
X114546095Y-73604380D01*
X114831809Y-73604380D02*
X114831809Y-72604380D01*
X114736571Y-72747238D01*
X114641333Y-72842476D01*
X114546095Y-72890095D01*
X115450857Y-72604380D02*
X116069904Y-72604380D01*
X115736571Y-72985333D01*
X115879428Y-72985333D01*
X115974666Y-73032952D01*
X116022285Y-73080571D01*
X116069904Y-73175809D01*
X116069904Y-73413904D01*
X116022285Y-73509142D01*
X115974666Y-73556761D01*
X115879428Y-73604380D01*
X115593714Y-73604380D01*
X115498476Y-73556761D01*
X115450857Y-73509142D01*
%TO.C,Q2*%
X144684761Y-42457619D02*
X144589523Y-42410000D01*
X144494285Y-42314761D01*
X144351428Y-42171904D01*
X144256190Y-42124285D01*
X144160952Y-42124285D01*
X144208571Y-42362380D02*
X144113333Y-42314761D01*
X144018095Y-42219523D01*
X143970476Y-42029047D01*
X143970476Y-41695714D01*
X144018095Y-41505238D01*
X144113333Y-41410000D01*
X144208571Y-41362380D01*
X144399047Y-41362380D01*
X144494285Y-41410000D01*
X144589523Y-41505238D01*
X144637142Y-41695714D01*
X144637142Y-42029047D01*
X144589523Y-42219523D01*
X144494285Y-42314761D01*
X144399047Y-42362380D01*
X144208571Y-42362380D01*
X145018095Y-41457619D02*
X145065714Y-41410000D01*
X145160952Y-41362380D01*
X145399047Y-41362380D01*
X145494285Y-41410000D01*
X145541904Y-41457619D01*
X145589523Y-41552857D01*
X145589523Y-41648095D01*
X145541904Y-41790952D01*
X144970476Y-42362380D01*
X145589523Y-42362380D01*
%TO.C,R23*%
X128816380Y-84208857D02*
X128340190Y-84542190D01*
X128816380Y-84780285D02*
X127816380Y-84780285D01*
X127816380Y-84399333D01*
X127864000Y-84304095D01*
X127911619Y-84256476D01*
X128006857Y-84208857D01*
X128149714Y-84208857D01*
X128244952Y-84256476D01*
X128292571Y-84304095D01*
X128340190Y-84399333D01*
X128340190Y-84780285D01*
X127911619Y-83827904D02*
X127864000Y-83780285D01*
X127816380Y-83685047D01*
X127816380Y-83446952D01*
X127864000Y-83351714D01*
X127911619Y-83304095D01*
X128006857Y-83256476D01*
X128102095Y-83256476D01*
X128244952Y-83304095D01*
X128816380Y-83875523D01*
X128816380Y-83256476D01*
X127816380Y-82923142D02*
X127816380Y-82304095D01*
X128197333Y-82637428D01*
X128197333Y-82494571D01*
X128244952Y-82399333D01*
X128292571Y-82351714D01*
X128387809Y-82304095D01*
X128625904Y-82304095D01*
X128721142Y-82351714D01*
X128768761Y-82399333D01*
X128816380Y-82494571D01*
X128816380Y-82780285D01*
X128768761Y-82875523D01*
X128721142Y-82923142D01*
%TO.C,Q1*%
X140366761Y-42457619D02*
X140271523Y-42410000D01*
X140176285Y-42314761D01*
X140033428Y-42171904D01*
X139938190Y-42124285D01*
X139842952Y-42124285D01*
X139890571Y-42362380D02*
X139795333Y-42314761D01*
X139700095Y-42219523D01*
X139652476Y-42029047D01*
X139652476Y-41695714D01*
X139700095Y-41505238D01*
X139795333Y-41410000D01*
X139890571Y-41362380D01*
X140081047Y-41362380D01*
X140176285Y-41410000D01*
X140271523Y-41505238D01*
X140319142Y-41695714D01*
X140319142Y-42029047D01*
X140271523Y-42219523D01*
X140176285Y-42314761D01*
X140081047Y-42362380D01*
X139890571Y-42362380D01*
X141271523Y-42362380D02*
X140700095Y-42362380D01*
X140985809Y-42362380D02*
X140985809Y-41362380D01*
X140890571Y-41505238D01*
X140795333Y-41600476D01*
X140700095Y-41648095D01*
%TO.C,J9*%
X135302666Y-85558380D02*
X135302666Y-86272666D01*
X135255047Y-86415523D01*
X135159809Y-86510761D01*
X135016952Y-86558380D01*
X134921714Y-86558380D01*
X135826476Y-86558380D02*
X136016952Y-86558380D01*
X136112190Y-86510761D01*
X136159809Y-86463142D01*
X136255047Y-86320285D01*
X136302666Y-86129809D01*
X136302666Y-85748857D01*
X136255047Y-85653619D01*
X136207428Y-85606000D01*
X136112190Y-85558380D01*
X135921714Y-85558380D01*
X135826476Y-85606000D01*
X135778857Y-85653619D01*
X135731238Y-85748857D01*
X135731238Y-85986952D01*
X135778857Y-86082190D01*
X135826476Y-86129809D01*
X135921714Y-86177428D01*
X136112190Y-86177428D01*
X136207428Y-86129809D01*
X136255047Y-86082190D01*
X136302666Y-85986952D01*
%TO.C,C12*%
X109085142Y-97385142D02*
X109037523Y-97432761D01*
X108894666Y-97480380D01*
X108799428Y-97480380D01*
X108656571Y-97432761D01*
X108561333Y-97337523D01*
X108513714Y-97242285D01*
X108466095Y-97051809D01*
X108466095Y-96908952D01*
X108513714Y-96718476D01*
X108561333Y-96623238D01*
X108656571Y-96528000D01*
X108799428Y-96480380D01*
X108894666Y-96480380D01*
X109037523Y-96528000D01*
X109085142Y-96575619D01*
X110037523Y-97480380D02*
X109466095Y-97480380D01*
X109751809Y-97480380D02*
X109751809Y-96480380D01*
X109656571Y-96623238D01*
X109561333Y-96718476D01*
X109466095Y-96766095D01*
X110418476Y-96575619D02*
X110466095Y-96528000D01*
X110561333Y-96480380D01*
X110799428Y-96480380D01*
X110894666Y-96528000D01*
X110942285Y-96575619D01*
X110989904Y-96670857D01*
X110989904Y-96766095D01*
X110942285Y-96908952D01*
X110370857Y-97480380D01*
X110989904Y-97480380D01*
%TO.C,C11*%
X116197142Y-88335142D02*
X116149523Y-88382761D01*
X116006666Y-88430380D01*
X115911428Y-88430380D01*
X115768571Y-88382761D01*
X115673333Y-88287523D01*
X115625714Y-88192285D01*
X115578095Y-88001809D01*
X115578095Y-87858952D01*
X115625714Y-87668476D01*
X115673333Y-87573238D01*
X115768571Y-87478000D01*
X115911428Y-87430380D01*
X116006666Y-87430380D01*
X116149523Y-87478000D01*
X116197142Y-87525619D01*
X117149523Y-88430380D02*
X116578095Y-88430380D01*
X116863809Y-88430380D02*
X116863809Y-87430380D01*
X116768571Y-87573238D01*
X116673333Y-87668476D01*
X116578095Y-87716095D01*
X118101904Y-88430380D02*
X117530476Y-88430380D01*
X117816190Y-88430380D02*
X117816190Y-87430380D01*
X117720952Y-87573238D01*
X117625714Y-87668476D01*
X117530476Y-87716095D01*
%TO.C,J8*%
X152066666Y-53002380D02*
X152066666Y-53716666D01*
X152019047Y-53859523D01*
X151923809Y-53954761D01*
X151780952Y-54002380D01*
X151685714Y-54002380D01*
X152685714Y-53430952D02*
X152590476Y-53383333D01*
X152542857Y-53335714D01*
X152495238Y-53240476D01*
X152495238Y-53192857D01*
X152542857Y-53097619D01*
X152590476Y-53050000D01*
X152685714Y-53002380D01*
X152876190Y-53002380D01*
X152971428Y-53050000D01*
X153019047Y-53097619D01*
X153066666Y-53192857D01*
X153066666Y-53240476D01*
X153019047Y-53335714D01*
X152971428Y-53383333D01*
X152876190Y-53430952D01*
X152685714Y-53430952D01*
X152590476Y-53478571D01*
X152542857Y-53526190D01*
X152495238Y-53621428D01*
X152495238Y-53811904D01*
X152542857Y-53907142D01*
X152590476Y-53954761D01*
X152685714Y-54002380D01*
X152876190Y-54002380D01*
X152971428Y-53954761D01*
X153019047Y-53907142D01*
X153066666Y-53811904D01*
X153066666Y-53621428D01*
X153019047Y-53526190D01*
X152971428Y-53478571D01*
X152876190Y-53430952D01*
%TO.C,U2*%
X114554095Y-75554380D02*
X114554095Y-76363904D01*
X114601714Y-76459142D01*
X114649333Y-76506761D01*
X114744571Y-76554380D01*
X114935047Y-76554380D01*
X115030285Y-76506761D01*
X115077904Y-76459142D01*
X115125523Y-76363904D01*
X115125523Y-75554380D01*
X115554095Y-75649619D02*
X115601714Y-75602000D01*
X115696952Y-75554380D01*
X115935047Y-75554380D01*
X116030285Y-75602000D01*
X116077904Y-75649619D01*
X116125523Y-75744857D01*
X116125523Y-75840095D01*
X116077904Y-75982952D01*
X115506476Y-76554380D01*
X116125523Y-76554380D01*
%TO.C,J4*%
X104822666Y-31202380D02*
X104822666Y-31916666D01*
X104775047Y-32059523D01*
X104679809Y-32154761D01*
X104536952Y-32202380D01*
X104441714Y-32202380D01*
X105727428Y-31535714D02*
X105727428Y-32202380D01*
X105489333Y-31154761D02*
X105251238Y-31869047D01*
X105870285Y-31869047D01*
%TO.C,J3*%
X104822666Y-45934380D02*
X104822666Y-46648666D01*
X104775047Y-46791523D01*
X104679809Y-46886761D01*
X104536952Y-46934380D01*
X104441714Y-46934380D01*
X105203619Y-45934380D02*
X105822666Y-45934380D01*
X105489333Y-46315333D01*
X105632190Y-46315333D01*
X105727428Y-46362952D01*
X105775047Y-46410571D01*
X105822666Y-46505809D01*
X105822666Y-46743904D01*
X105775047Y-46839142D01*
X105727428Y-46886761D01*
X105632190Y-46934380D01*
X105346476Y-46934380D01*
X105251238Y-46886761D01*
X105203619Y-46839142D01*
%TO.C,C14*%
X116705142Y-64840142D02*
X116657523Y-64887761D01*
X116514666Y-64935380D01*
X116419428Y-64935380D01*
X116276571Y-64887761D01*
X116181333Y-64792523D01*
X116133714Y-64697285D01*
X116086095Y-64506809D01*
X116086095Y-64363952D01*
X116133714Y-64173476D01*
X116181333Y-64078238D01*
X116276571Y-63983000D01*
X116419428Y-63935380D01*
X116514666Y-63935380D01*
X116657523Y-63983000D01*
X116705142Y-64030619D01*
X117657523Y-64935380D02*
X117086095Y-64935380D01*
X117371809Y-64935380D02*
X117371809Y-63935380D01*
X117276571Y-64078238D01*
X117181333Y-64173476D01*
X117086095Y-64221095D01*
X118514666Y-64268714D02*
X118514666Y-64935380D01*
X118276571Y-63887761D02*
X118038476Y-64602047D01*
X118657523Y-64602047D01*
%TO.C,C10*%
X110355142Y-84939142D02*
X110307523Y-84986761D01*
X110164666Y-85034380D01*
X110069428Y-85034380D01*
X109926571Y-84986761D01*
X109831333Y-84891523D01*
X109783714Y-84796285D01*
X109736095Y-84605809D01*
X109736095Y-84462952D01*
X109783714Y-84272476D01*
X109831333Y-84177238D01*
X109926571Y-84082000D01*
X110069428Y-84034380D01*
X110164666Y-84034380D01*
X110307523Y-84082000D01*
X110355142Y-84129619D01*
X111307523Y-85034380D02*
X110736095Y-85034380D01*
X111021809Y-85034380D02*
X111021809Y-84034380D01*
X110926571Y-84177238D01*
X110831333Y-84272476D01*
X110736095Y-84320095D01*
X111926571Y-84034380D02*
X112021809Y-84034380D01*
X112117047Y-84082000D01*
X112164666Y-84129619D01*
X112212285Y-84224857D01*
X112259904Y-84415333D01*
X112259904Y-84653428D01*
X112212285Y-84843904D01*
X112164666Y-84939142D01*
X112117047Y-84986761D01*
X112021809Y-85034380D01*
X111926571Y-85034380D01*
X111831333Y-84986761D01*
X111783714Y-84939142D01*
X111736095Y-84843904D01*
X111688476Y-84653428D01*
X111688476Y-84415333D01*
X111736095Y-84224857D01*
X111783714Y-84129619D01*
X111831333Y-84082000D01*
X111926571Y-84034380D01*
%TO.C,C9*%
X110577333Y-61063142D02*
X110529714Y-61110761D01*
X110386857Y-61158380D01*
X110291619Y-61158380D01*
X110148761Y-61110761D01*
X110053523Y-61015523D01*
X110005904Y-60920285D01*
X109958285Y-60729809D01*
X109958285Y-60586952D01*
X110005904Y-60396476D01*
X110053523Y-60301238D01*
X110148761Y-60206000D01*
X110291619Y-60158380D01*
X110386857Y-60158380D01*
X110529714Y-60206000D01*
X110577333Y-60253619D01*
X111053523Y-61158380D02*
X111244000Y-61158380D01*
X111339238Y-61110761D01*
X111386857Y-61063142D01*
X111482095Y-60920285D01*
X111529714Y-60729809D01*
X111529714Y-60348857D01*
X111482095Y-60253619D01*
X111434476Y-60206000D01*
X111339238Y-60158380D01*
X111148761Y-60158380D01*
X111053523Y-60206000D01*
X111005904Y-60253619D01*
X110958285Y-60348857D01*
X110958285Y-60586952D01*
X111005904Y-60682190D01*
X111053523Y-60729809D01*
X111148761Y-60777428D01*
X111339238Y-60777428D01*
X111434476Y-60729809D01*
X111482095Y-60682190D01*
X111529714Y-60586952D01*
%TO.C,C8*%
X117689333Y-52681142D02*
X117641714Y-52728761D01*
X117498857Y-52776380D01*
X117403619Y-52776380D01*
X117260761Y-52728761D01*
X117165523Y-52633523D01*
X117117904Y-52538285D01*
X117070285Y-52347809D01*
X117070285Y-52204952D01*
X117117904Y-52014476D01*
X117165523Y-51919238D01*
X117260761Y-51824000D01*
X117403619Y-51776380D01*
X117498857Y-51776380D01*
X117641714Y-51824000D01*
X117689333Y-51871619D01*
X118260761Y-52204952D02*
X118165523Y-52157333D01*
X118117904Y-52109714D01*
X118070285Y-52014476D01*
X118070285Y-51966857D01*
X118117904Y-51871619D01*
X118165523Y-51824000D01*
X118260761Y-51776380D01*
X118451238Y-51776380D01*
X118546476Y-51824000D01*
X118594095Y-51871619D01*
X118641714Y-51966857D01*
X118641714Y-52014476D01*
X118594095Y-52109714D01*
X118546476Y-52157333D01*
X118451238Y-52204952D01*
X118260761Y-52204952D01*
X118165523Y-52252571D01*
X118117904Y-52300190D01*
X118070285Y-52395428D01*
X118070285Y-52585904D01*
X118117904Y-52681142D01*
X118165523Y-52728761D01*
X118260761Y-52776380D01*
X118451238Y-52776380D01*
X118546476Y-52728761D01*
X118594095Y-52681142D01*
X118641714Y-52585904D01*
X118641714Y-52395428D01*
X118594095Y-52300190D01*
X118546476Y-52252571D01*
X118451238Y-52204952D01*
%TO.C,C7*%
X117943333Y-76143142D02*
X117895714Y-76190761D01*
X117752857Y-76238380D01*
X117657619Y-76238380D01*
X117514761Y-76190761D01*
X117419523Y-76095523D01*
X117371904Y-76000285D01*
X117324285Y-75809809D01*
X117324285Y-75666952D01*
X117371904Y-75476476D01*
X117419523Y-75381238D01*
X117514761Y-75286000D01*
X117657619Y-75238380D01*
X117752857Y-75238380D01*
X117895714Y-75286000D01*
X117943333Y-75333619D01*
X118276666Y-75238380D02*
X118943333Y-75238380D01*
X118514761Y-76238380D01*
%TO.C,U5*%
X113030095Y-65648380D02*
X113030095Y-66457904D01*
X113077714Y-66553142D01*
X113125333Y-66600761D01*
X113220571Y-66648380D01*
X113411047Y-66648380D01*
X113506285Y-66600761D01*
X113553904Y-66553142D01*
X113601523Y-66457904D01*
X113601523Y-65648380D01*
X114553904Y-65648380D02*
X114077714Y-65648380D01*
X114030095Y-66124571D01*
X114077714Y-66076952D01*
X114172952Y-66029333D01*
X114411047Y-66029333D01*
X114506285Y-66076952D01*
X114553904Y-66124571D01*
X114601523Y-66219809D01*
X114601523Y-66457904D01*
X114553904Y-66553142D01*
X114506285Y-66600761D01*
X114411047Y-66648380D01*
X114172952Y-66648380D01*
X114077714Y-66600761D01*
X114030095Y-66553142D01*
%TO.C,U4*%
X148844095Y-76816380D02*
X148844095Y-77625904D01*
X148891714Y-77721142D01*
X148939333Y-77768761D01*
X149034571Y-77816380D01*
X149225047Y-77816380D01*
X149320285Y-77768761D01*
X149367904Y-77721142D01*
X149415523Y-77625904D01*
X149415523Y-76816380D01*
X150320285Y-77149714D02*
X150320285Y-77816380D01*
X150082190Y-76768761D02*
X149844095Y-77483047D01*
X150463142Y-77483047D01*
%TO.C,U3*%
X112522095Y-88000380D02*
X112522095Y-88809904D01*
X112569714Y-88905142D01*
X112617333Y-88952761D01*
X112712571Y-89000380D01*
X112903047Y-89000380D01*
X112998285Y-88952761D01*
X113045904Y-88905142D01*
X113093523Y-88809904D01*
X113093523Y-88000380D01*
X113474476Y-88000380D02*
X114093523Y-88000380D01*
X113760190Y-88381333D01*
X113903047Y-88381333D01*
X113998285Y-88428952D01*
X114045904Y-88476571D01*
X114093523Y-88571809D01*
X114093523Y-88809904D01*
X114045904Y-88905142D01*
X113998285Y-88952761D01*
X113903047Y-89000380D01*
X113617333Y-89000380D01*
X113522095Y-88952761D01*
X113474476Y-88905142D01*
%TO.C,U1*%
X111760095Y-51678380D02*
X111760095Y-52487904D01*
X111807714Y-52583142D01*
X111855333Y-52630761D01*
X111950571Y-52678380D01*
X112141047Y-52678380D01*
X112236285Y-52630761D01*
X112283904Y-52583142D01*
X112331523Y-52487904D01*
X112331523Y-51678380D01*
X113331523Y-52678380D02*
X112760095Y-52678380D01*
X113045809Y-52678380D02*
X113045809Y-51678380D01*
X112950571Y-51821238D01*
X112855333Y-51916476D01*
X112760095Y-51964095D01*
%TO.C,RV2*%
X133770761Y-68016380D02*
X133437428Y-67540190D01*
X133199333Y-68016380D02*
X133199333Y-67016380D01*
X133580285Y-67016380D01*
X133675523Y-67064000D01*
X133723142Y-67111619D01*
X133770761Y-67206857D01*
X133770761Y-67349714D01*
X133723142Y-67444952D01*
X133675523Y-67492571D01*
X133580285Y-67540190D01*
X133199333Y-67540190D01*
X134056476Y-67016380D02*
X134389809Y-68016380D01*
X134723142Y-67016380D01*
X135008857Y-67111619D02*
X135056476Y-67064000D01*
X135151714Y-67016380D01*
X135389809Y-67016380D01*
X135485047Y-67064000D01*
X135532666Y-67111619D01*
X135580285Y-67206857D01*
X135580285Y-67302095D01*
X135532666Y-67444952D01*
X134961238Y-68016380D01*
X135580285Y-68016380D01*
%TO.C,RV1*%
X134024761Y-83256380D02*
X133691428Y-82780190D01*
X133453333Y-83256380D02*
X133453333Y-82256380D01*
X133834285Y-82256380D01*
X133929523Y-82304000D01*
X133977142Y-82351619D01*
X134024761Y-82446857D01*
X134024761Y-82589714D01*
X133977142Y-82684952D01*
X133929523Y-82732571D01*
X133834285Y-82780190D01*
X133453333Y-82780190D01*
X134310476Y-82256380D02*
X134643809Y-83256380D01*
X134977142Y-82256380D01*
X135834285Y-83256380D02*
X135262857Y-83256380D01*
X135548571Y-83256380D02*
X135548571Y-82256380D01*
X135453333Y-82399238D01*
X135358095Y-82494476D01*
X135262857Y-82542095D01*
%TO.C,R22*%
X150741142Y-85194380D02*
X150407809Y-84718190D01*
X150169714Y-85194380D02*
X150169714Y-84194380D01*
X150550666Y-84194380D01*
X150645904Y-84242000D01*
X150693523Y-84289619D01*
X150741142Y-84384857D01*
X150741142Y-84527714D01*
X150693523Y-84622952D01*
X150645904Y-84670571D01*
X150550666Y-84718190D01*
X150169714Y-84718190D01*
X151122095Y-84289619D02*
X151169714Y-84242000D01*
X151264952Y-84194380D01*
X151503047Y-84194380D01*
X151598285Y-84242000D01*
X151645904Y-84289619D01*
X151693523Y-84384857D01*
X151693523Y-84480095D01*
X151645904Y-84622952D01*
X151074476Y-85194380D01*
X151693523Y-85194380D01*
X152074476Y-84289619D02*
X152122095Y-84242000D01*
X152217333Y-84194380D01*
X152455428Y-84194380D01*
X152550666Y-84242000D01*
X152598285Y-84289619D01*
X152645904Y-84384857D01*
X152645904Y-84480095D01*
X152598285Y-84622952D01*
X152026857Y-85194380D01*
X152645904Y-85194380D01*
%TO.C,R21*%
X105862380Y-97162857D02*
X105386190Y-97496190D01*
X105862380Y-97734285D02*
X104862380Y-97734285D01*
X104862380Y-97353333D01*
X104910000Y-97258095D01*
X104957619Y-97210476D01*
X105052857Y-97162857D01*
X105195714Y-97162857D01*
X105290952Y-97210476D01*
X105338571Y-97258095D01*
X105386190Y-97353333D01*
X105386190Y-97734285D01*
X104957619Y-96781904D02*
X104910000Y-96734285D01*
X104862380Y-96639047D01*
X104862380Y-96400952D01*
X104910000Y-96305714D01*
X104957619Y-96258095D01*
X105052857Y-96210476D01*
X105148095Y-96210476D01*
X105290952Y-96258095D01*
X105862380Y-96829523D01*
X105862380Y-96210476D01*
X105862380Y-95258095D02*
X105862380Y-95829523D01*
X105862380Y-95543809D02*
X104862380Y-95543809D01*
X105005238Y-95639047D01*
X105100476Y-95734285D01*
X105148095Y-95829523D01*
%TO.C,R20*%
X113149142Y-97226380D02*
X112815809Y-96750190D01*
X112577714Y-97226380D02*
X112577714Y-96226380D01*
X112958666Y-96226380D01*
X113053904Y-96274000D01*
X113101523Y-96321619D01*
X113149142Y-96416857D01*
X113149142Y-96559714D01*
X113101523Y-96654952D01*
X113053904Y-96702571D01*
X112958666Y-96750190D01*
X112577714Y-96750190D01*
X113530095Y-96321619D02*
X113577714Y-96274000D01*
X113672952Y-96226380D01*
X113911047Y-96226380D01*
X114006285Y-96274000D01*
X114053904Y-96321619D01*
X114101523Y-96416857D01*
X114101523Y-96512095D01*
X114053904Y-96654952D01*
X113482476Y-97226380D01*
X114101523Y-97226380D01*
X114720571Y-96226380D02*
X114815809Y-96226380D01*
X114911047Y-96274000D01*
X114958666Y-96321619D01*
X115006285Y-96416857D01*
X115053904Y-96607333D01*
X115053904Y-96845428D01*
X115006285Y-97035904D01*
X114958666Y-97131142D01*
X114911047Y-97178761D01*
X114815809Y-97226380D01*
X114720571Y-97226380D01*
X114625333Y-97178761D01*
X114577714Y-97131142D01*
X114530095Y-97035904D01*
X114482476Y-96845428D01*
X114482476Y-96607333D01*
X114530095Y-96416857D01*
X114577714Y-96321619D01*
X114625333Y-96274000D01*
X114720571Y-96226380D01*
%TO.C,R19*%
X109847142Y-87574380D02*
X109513809Y-87098190D01*
X109275714Y-87574380D02*
X109275714Y-86574380D01*
X109656666Y-86574380D01*
X109751904Y-86622000D01*
X109799523Y-86669619D01*
X109847142Y-86764857D01*
X109847142Y-86907714D01*
X109799523Y-87002952D01*
X109751904Y-87050571D01*
X109656666Y-87098190D01*
X109275714Y-87098190D01*
X110799523Y-87574380D02*
X110228095Y-87574380D01*
X110513809Y-87574380D02*
X110513809Y-86574380D01*
X110418571Y-86717238D01*
X110323333Y-86812476D01*
X110228095Y-86860095D01*
X111275714Y-87574380D02*
X111466190Y-87574380D01*
X111561428Y-87526761D01*
X111609047Y-87479142D01*
X111704285Y-87336285D01*
X111751904Y-87145809D01*
X111751904Y-86764857D01*
X111704285Y-86669619D01*
X111656666Y-86622000D01*
X111561428Y-86574380D01*
X111370952Y-86574380D01*
X111275714Y-86622000D01*
X111228095Y-86669619D01*
X111180476Y-86764857D01*
X111180476Y-87002952D01*
X111228095Y-87098190D01*
X111275714Y-87145809D01*
X111370952Y-87193428D01*
X111561428Y-87193428D01*
X111656666Y-87145809D01*
X111704285Y-87098190D01*
X111751904Y-87002952D01*
%TO.C,R18*%
X104338380Y-88272857D02*
X103862190Y-88606190D01*
X104338380Y-88844285D02*
X103338380Y-88844285D01*
X103338380Y-88463333D01*
X103386000Y-88368095D01*
X103433619Y-88320476D01*
X103528857Y-88272857D01*
X103671714Y-88272857D01*
X103766952Y-88320476D01*
X103814571Y-88368095D01*
X103862190Y-88463333D01*
X103862190Y-88844285D01*
X104338380Y-87320476D02*
X104338380Y-87891904D01*
X104338380Y-87606190D02*
X103338380Y-87606190D01*
X103481238Y-87701428D01*
X103576476Y-87796666D01*
X103624095Y-87891904D01*
X103766952Y-86749047D02*
X103719333Y-86844285D01*
X103671714Y-86891904D01*
X103576476Y-86939523D01*
X103528857Y-86939523D01*
X103433619Y-86891904D01*
X103386000Y-86844285D01*
X103338380Y-86749047D01*
X103338380Y-86558571D01*
X103386000Y-86463333D01*
X103433619Y-86415714D01*
X103528857Y-86368095D01*
X103576476Y-86368095D01*
X103671714Y-86415714D01*
X103719333Y-86463333D01*
X103766952Y-86558571D01*
X103766952Y-86749047D01*
X103814571Y-86844285D01*
X103862190Y-86891904D01*
X103957428Y-86939523D01*
X104147904Y-86939523D01*
X104243142Y-86891904D01*
X104290761Y-86844285D01*
X104338380Y-86749047D01*
X104338380Y-86558571D01*
X104290761Y-86463333D01*
X104243142Y-86415714D01*
X104147904Y-86368095D01*
X103957428Y-86368095D01*
X103862190Y-86415714D01*
X103814571Y-86463333D01*
X103766952Y-86558571D01*
%TO.C,R17*%
X118308380Y-95130857D02*
X117832190Y-95464190D01*
X118308380Y-95702285D02*
X117308380Y-95702285D01*
X117308380Y-95321333D01*
X117356000Y-95226095D01*
X117403619Y-95178476D01*
X117498857Y-95130857D01*
X117641714Y-95130857D01*
X117736952Y-95178476D01*
X117784571Y-95226095D01*
X117832190Y-95321333D01*
X117832190Y-95702285D01*
X118308380Y-94178476D02*
X118308380Y-94749904D01*
X118308380Y-94464190D02*
X117308380Y-94464190D01*
X117451238Y-94559428D01*
X117546476Y-94654666D01*
X117594095Y-94749904D01*
X117308380Y-93845142D02*
X117308380Y-93178476D01*
X118308380Y-93607047D01*
%TO.C,R16*%
X105862380Y-88272857D02*
X105386190Y-88606190D01*
X105862380Y-88844285D02*
X104862380Y-88844285D01*
X104862380Y-88463333D01*
X104910000Y-88368095D01*
X104957619Y-88320476D01*
X105052857Y-88272857D01*
X105195714Y-88272857D01*
X105290952Y-88320476D01*
X105338571Y-88368095D01*
X105386190Y-88463333D01*
X105386190Y-88844285D01*
X105862380Y-87320476D02*
X105862380Y-87891904D01*
X105862380Y-87606190D02*
X104862380Y-87606190D01*
X105005238Y-87701428D01*
X105100476Y-87796666D01*
X105148095Y-87891904D01*
X104862380Y-86463333D02*
X104862380Y-86653809D01*
X104910000Y-86749047D01*
X104957619Y-86796666D01*
X105100476Y-86891904D01*
X105290952Y-86939523D01*
X105671904Y-86939523D01*
X105767142Y-86891904D01*
X105814761Y-86844285D01*
X105862380Y-86749047D01*
X105862380Y-86558571D01*
X105814761Y-86463333D01*
X105767142Y-86415714D01*
X105671904Y-86368095D01*
X105433809Y-86368095D01*
X105338571Y-86415714D01*
X105290952Y-86463333D01*
X105243333Y-86558571D01*
X105243333Y-86749047D01*
X105290952Y-86844285D01*
X105338571Y-86891904D01*
X105433809Y-86939523D01*
%TO.C,R15*%
X107386380Y-97162857D02*
X106910190Y-97496190D01*
X107386380Y-97734285D02*
X106386380Y-97734285D01*
X106386380Y-97353333D01*
X106434000Y-97258095D01*
X106481619Y-97210476D01*
X106576857Y-97162857D01*
X106719714Y-97162857D01*
X106814952Y-97210476D01*
X106862571Y-97258095D01*
X106910190Y-97353333D01*
X106910190Y-97734285D01*
X107386380Y-96210476D02*
X107386380Y-96781904D01*
X107386380Y-96496190D02*
X106386380Y-96496190D01*
X106529238Y-96591428D01*
X106624476Y-96686666D01*
X106672095Y-96781904D01*
X106386380Y-95305714D02*
X106386380Y-95781904D01*
X106862571Y-95829523D01*
X106814952Y-95781904D01*
X106767333Y-95686666D01*
X106767333Y-95448571D01*
X106814952Y-95353333D01*
X106862571Y-95305714D01*
X106957809Y-95258095D01*
X107195904Y-95258095D01*
X107291142Y-95305714D01*
X107338761Y-95353333D01*
X107386380Y-95448571D01*
X107386380Y-95686666D01*
X107338761Y-95781904D01*
X107291142Y-95829523D01*
%TO.C,R14*%
X143375142Y-54680380D02*
X143041809Y-54204190D01*
X142803714Y-54680380D02*
X142803714Y-53680380D01*
X143184666Y-53680380D01*
X143279904Y-53728000D01*
X143327523Y-53775619D01*
X143375142Y-53870857D01*
X143375142Y-54013714D01*
X143327523Y-54108952D01*
X143279904Y-54156571D01*
X143184666Y-54204190D01*
X142803714Y-54204190D01*
X144327523Y-54680380D02*
X143756095Y-54680380D01*
X144041809Y-54680380D02*
X144041809Y-53680380D01*
X143946571Y-53823238D01*
X143851333Y-53918476D01*
X143756095Y-53966095D01*
X145184666Y-54013714D02*
X145184666Y-54680380D01*
X144946571Y-53632761D02*
X144708476Y-54347047D01*
X145327523Y-54347047D01*
%TO.C,R13*%
X106878380Y-61348857D02*
X106402190Y-61682190D01*
X106878380Y-61920285D02*
X105878380Y-61920285D01*
X105878380Y-61539333D01*
X105926000Y-61444095D01*
X105973619Y-61396476D01*
X106068857Y-61348857D01*
X106211714Y-61348857D01*
X106306952Y-61396476D01*
X106354571Y-61444095D01*
X106402190Y-61539333D01*
X106402190Y-61920285D01*
X106878380Y-60396476D02*
X106878380Y-60967904D01*
X106878380Y-60682190D02*
X105878380Y-60682190D01*
X106021238Y-60777428D01*
X106116476Y-60872666D01*
X106164095Y-60967904D01*
X105878380Y-60063142D02*
X105878380Y-59444095D01*
X106259333Y-59777428D01*
X106259333Y-59634571D01*
X106306952Y-59539333D01*
X106354571Y-59491714D01*
X106449809Y-59444095D01*
X106687904Y-59444095D01*
X106783142Y-59491714D01*
X106830761Y-59539333D01*
X106878380Y-59634571D01*
X106878380Y-59920285D01*
X106830761Y-60015523D01*
X106783142Y-60063142D01*
%TO.C,R12*%
X117800380Y-63126857D02*
X117324190Y-63460190D01*
X117800380Y-63698285D02*
X116800380Y-63698285D01*
X116800380Y-63317333D01*
X116848000Y-63222095D01*
X116895619Y-63174476D01*
X116990857Y-63126857D01*
X117133714Y-63126857D01*
X117228952Y-63174476D01*
X117276571Y-63222095D01*
X117324190Y-63317333D01*
X117324190Y-63698285D01*
X117800380Y-62174476D02*
X117800380Y-62745904D01*
X117800380Y-62460190D02*
X116800380Y-62460190D01*
X116943238Y-62555428D01*
X117038476Y-62650666D01*
X117086095Y-62745904D01*
X116895619Y-61793523D02*
X116848000Y-61745904D01*
X116800380Y-61650666D01*
X116800380Y-61412571D01*
X116848000Y-61317333D01*
X116895619Y-61269714D01*
X116990857Y-61222095D01*
X117086095Y-61222095D01*
X117228952Y-61269714D01*
X117800380Y-61841142D01*
X117800380Y-61222095D01*
%TO.C,R11*%
X119070380Y-59316857D02*
X118594190Y-59650190D01*
X119070380Y-59888285D02*
X118070380Y-59888285D01*
X118070380Y-59507333D01*
X118118000Y-59412095D01*
X118165619Y-59364476D01*
X118260857Y-59316857D01*
X118403714Y-59316857D01*
X118498952Y-59364476D01*
X118546571Y-59412095D01*
X118594190Y-59507333D01*
X118594190Y-59888285D01*
X119070380Y-58364476D02*
X119070380Y-58935904D01*
X119070380Y-58650190D02*
X118070380Y-58650190D01*
X118213238Y-58745428D01*
X118308476Y-58840666D01*
X118356095Y-58935904D01*
X119070380Y-57412095D02*
X119070380Y-57983523D01*
X119070380Y-57697809D02*
X118070380Y-57697809D01*
X118213238Y-57793047D01*
X118308476Y-57888285D01*
X118356095Y-57983523D01*
%TO.C,R10*%
X108656380Y-84970857D02*
X108180190Y-85304190D01*
X108656380Y-85542285D02*
X107656380Y-85542285D01*
X107656380Y-85161333D01*
X107704000Y-85066095D01*
X107751619Y-85018476D01*
X107846857Y-84970857D01*
X107989714Y-84970857D01*
X108084952Y-85018476D01*
X108132571Y-85066095D01*
X108180190Y-85161333D01*
X108180190Y-85542285D01*
X108656380Y-84018476D02*
X108656380Y-84589904D01*
X108656380Y-84304190D02*
X107656380Y-84304190D01*
X107799238Y-84399428D01*
X107894476Y-84494666D01*
X107942095Y-84589904D01*
X107656380Y-83399428D02*
X107656380Y-83304190D01*
X107704000Y-83208952D01*
X107751619Y-83161333D01*
X107846857Y-83113714D01*
X108037333Y-83066095D01*
X108275428Y-83066095D01*
X108465904Y-83113714D01*
X108561142Y-83161333D01*
X108608761Y-83208952D01*
X108656380Y-83304190D01*
X108656380Y-83399428D01*
X108608761Y-83494666D01*
X108561142Y-83542285D01*
X108465904Y-83589904D01*
X108275428Y-83637523D01*
X108037333Y-83637523D01*
X107846857Y-83589904D01*
X107751619Y-83542285D01*
X107704000Y-83494666D01*
X107656380Y-83399428D01*
%TO.C,R9*%
X122372380Y-82970666D02*
X121896190Y-83304000D01*
X122372380Y-83542095D02*
X121372380Y-83542095D01*
X121372380Y-83161142D01*
X121420000Y-83065904D01*
X121467619Y-83018285D01*
X121562857Y-82970666D01*
X121705714Y-82970666D01*
X121800952Y-83018285D01*
X121848571Y-83065904D01*
X121896190Y-83161142D01*
X121896190Y-83542095D01*
X122372380Y-82494476D02*
X122372380Y-82304000D01*
X122324761Y-82208761D01*
X122277142Y-82161142D01*
X122134285Y-82065904D01*
X121943809Y-82018285D01*
X121562857Y-82018285D01*
X121467619Y-82065904D01*
X121420000Y-82113523D01*
X121372380Y-82208761D01*
X121372380Y-82399238D01*
X121420000Y-82494476D01*
X121467619Y-82542095D01*
X121562857Y-82589714D01*
X121800952Y-82589714D01*
X121896190Y-82542095D01*
X121943809Y-82494476D01*
X121991428Y-82399238D01*
X121991428Y-82208761D01*
X121943809Y-82113523D01*
X121896190Y-82065904D01*
X121800952Y-82018285D01*
%TO.C,R8*%
X111593333Y-75382380D02*
X111260000Y-74906190D01*
X111021904Y-75382380D02*
X111021904Y-74382380D01*
X111402857Y-74382380D01*
X111498095Y-74430000D01*
X111545714Y-74477619D01*
X111593333Y-74572857D01*
X111593333Y-74715714D01*
X111545714Y-74810952D01*
X111498095Y-74858571D01*
X111402857Y-74906190D01*
X111021904Y-74906190D01*
X112164761Y-74810952D02*
X112069523Y-74763333D01*
X112021904Y-74715714D01*
X111974285Y-74620476D01*
X111974285Y-74572857D01*
X112021904Y-74477619D01*
X112069523Y-74430000D01*
X112164761Y-74382380D01*
X112355238Y-74382380D01*
X112450476Y-74430000D01*
X112498095Y-74477619D01*
X112545714Y-74572857D01*
X112545714Y-74620476D01*
X112498095Y-74715714D01*
X112450476Y-74763333D01*
X112355238Y-74810952D01*
X112164761Y-74810952D01*
X112069523Y-74858571D01*
X112021904Y-74906190D01*
X111974285Y-75001428D01*
X111974285Y-75191904D01*
X112021904Y-75287142D01*
X112069523Y-75334761D01*
X112164761Y-75382380D01*
X112355238Y-75382380D01*
X112450476Y-75334761D01*
X112498095Y-75287142D01*
X112545714Y-75191904D01*
X112545714Y-75001428D01*
X112498095Y-74906190D01*
X112450476Y-74858571D01*
X112355238Y-74810952D01*
%TO.C,R7*%
X105608380Y-75858666D02*
X105132190Y-76192000D01*
X105608380Y-76430095D02*
X104608380Y-76430095D01*
X104608380Y-76049142D01*
X104656000Y-75953904D01*
X104703619Y-75906285D01*
X104798857Y-75858666D01*
X104941714Y-75858666D01*
X105036952Y-75906285D01*
X105084571Y-75953904D01*
X105132190Y-76049142D01*
X105132190Y-76430095D01*
X104608380Y-75525333D02*
X104608380Y-74858666D01*
X105608380Y-75287238D01*
%TO.C,R6*%
X119324380Y-82208666D02*
X118848190Y-82542000D01*
X119324380Y-82780095D02*
X118324380Y-82780095D01*
X118324380Y-82399142D01*
X118372000Y-82303904D01*
X118419619Y-82256285D01*
X118514857Y-82208666D01*
X118657714Y-82208666D01*
X118752952Y-82256285D01*
X118800571Y-82303904D01*
X118848190Y-82399142D01*
X118848190Y-82780095D01*
X118324380Y-81351523D02*
X118324380Y-81542000D01*
X118372000Y-81637238D01*
X118419619Y-81684857D01*
X118562476Y-81780095D01*
X118752952Y-81827714D01*
X119133904Y-81827714D01*
X119229142Y-81780095D01*
X119276761Y-81732476D01*
X119324380Y-81637238D01*
X119324380Y-81446761D01*
X119276761Y-81351523D01*
X119229142Y-81303904D01*
X119133904Y-81256285D01*
X118895809Y-81256285D01*
X118800571Y-81303904D01*
X118752952Y-81351523D01*
X118705333Y-81446761D01*
X118705333Y-81637238D01*
X118752952Y-81732476D01*
X118800571Y-81780095D01*
X118895809Y-81827714D01*
%TO.C,R5*%
X113990380Y-63412666D02*
X113514190Y-63746000D01*
X113990380Y-63984095D02*
X112990380Y-63984095D01*
X112990380Y-63603142D01*
X113038000Y-63507904D01*
X113085619Y-63460285D01*
X113180857Y-63412666D01*
X113323714Y-63412666D01*
X113418952Y-63460285D01*
X113466571Y-63507904D01*
X113514190Y-63603142D01*
X113514190Y-63984095D01*
X112990380Y-62507904D02*
X112990380Y-62984095D01*
X113466571Y-63031714D01*
X113418952Y-62984095D01*
X113371333Y-62888857D01*
X113371333Y-62650761D01*
X113418952Y-62555523D01*
X113466571Y-62507904D01*
X113561809Y-62460285D01*
X113799904Y-62460285D01*
X113895142Y-62507904D01*
X113942761Y-62555523D01*
X113990380Y-62650761D01*
X113990380Y-62888857D01*
X113942761Y-62984095D01*
X113895142Y-63031714D01*
%TO.C,R4*%
X107132380Y-75858666D02*
X106656190Y-76192000D01*
X107132380Y-76430095D02*
X106132380Y-76430095D01*
X106132380Y-76049142D01*
X106180000Y-75953904D01*
X106227619Y-75906285D01*
X106322857Y-75858666D01*
X106465714Y-75858666D01*
X106560952Y-75906285D01*
X106608571Y-75953904D01*
X106656190Y-76049142D01*
X106656190Y-76430095D01*
X106465714Y-75001523D02*
X107132380Y-75001523D01*
X106084761Y-75239619D02*
X106799047Y-75477714D01*
X106799047Y-74858666D01*
%TO.C,R3*%
X107132380Y-83986666D02*
X106656190Y-84320000D01*
X107132380Y-84558095D02*
X106132380Y-84558095D01*
X106132380Y-84177142D01*
X106180000Y-84081904D01*
X106227619Y-84034285D01*
X106322857Y-83986666D01*
X106465714Y-83986666D01*
X106560952Y-84034285D01*
X106608571Y-84081904D01*
X106656190Y-84177142D01*
X106656190Y-84558095D01*
X106132380Y-83653333D02*
X106132380Y-83034285D01*
X106513333Y-83367619D01*
X106513333Y-83224761D01*
X106560952Y-83129523D01*
X106608571Y-83081904D01*
X106703809Y-83034285D01*
X106941904Y-83034285D01*
X107037142Y-83081904D01*
X107084761Y-83129523D01*
X107132380Y-83224761D01*
X107132380Y-83510476D01*
X107084761Y-83605714D01*
X107037142Y-83653333D01*
%TO.C,R2*%
X106878380Y-52236666D02*
X106402190Y-52570000D01*
X106878380Y-52808095D02*
X105878380Y-52808095D01*
X105878380Y-52427142D01*
X105926000Y-52331904D01*
X105973619Y-52284285D01*
X106068857Y-52236666D01*
X106211714Y-52236666D01*
X106306952Y-52284285D01*
X106354571Y-52331904D01*
X106402190Y-52427142D01*
X106402190Y-52808095D01*
X105973619Y-51855714D02*
X105926000Y-51808095D01*
X105878380Y-51712857D01*
X105878380Y-51474761D01*
X105926000Y-51379523D01*
X105973619Y-51331904D01*
X106068857Y-51284285D01*
X106164095Y-51284285D01*
X106306952Y-51331904D01*
X106878380Y-51903333D01*
X106878380Y-51284285D01*
%TO.C,R1*%
X108402380Y-60364666D02*
X107926190Y-60698000D01*
X108402380Y-60936095D02*
X107402380Y-60936095D01*
X107402380Y-60555142D01*
X107450000Y-60459904D01*
X107497619Y-60412285D01*
X107592857Y-60364666D01*
X107735714Y-60364666D01*
X107830952Y-60412285D01*
X107878571Y-60459904D01*
X107926190Y-60555142D01*
X107926190Y-60936095D01*
X108402380Y-59412285D02*
X108402380Y-59983714D01*
X108402380Y-59698000D02*
X107402380Y-59698000D01*
X107545238Y-59793238D01*
X107640476Y-59888476D01*
X107688095Y-59983714D01*
%TO.C,J7*%
X125904666Y-85558380D02*
X125904666Y-86272666D01*
X125857047Y-86415523D01*
X125761809Y-86510761D01*
X125618952Y-86558380D01*
X125523714Y-86558380D01*
X126285619Y-85558380D02*
X126952285Y-85558380D01*
X126523714Y-86558380D01*
%TO.C,J6*%
X154098666Y-85558380D02*
X154098666Y-86272666D01*
X154051047Y-86415523D01*
X153955809Y-86510761D01*
X153812952Y-86558380D01*
X153717714Y-86558380D01*
X155003428Y-85558380D02*
X154812952Y-85558380D01*
X154717714Y-85606000D01*
X154670095Y-85653619D01*
X154574857Y-85796476D01*
X154527238Y-85986952D01*
X154527238Y-86367904D01*
X154574857Y-86463142D01*
X154622476Y-86510761D01*
X154717714Y-86558380D01*
X154908190Y-86558380D01*
X155003428Y-86510761D01*
X155051047Y-86463142D01*
X155098666Y-86367904D01*
X155098666Y-86129809D01*
X155051047Y-86034571D01*
X155003428Y-85986952D01*
X154908190Y-85939333D01*
X154717714Y-85939333D01*
X154622476Y-85986952D01*
X154574857Y-86034571D01*
X154527238Y-86129809D01*
%TO.C,J5*%
X127936666Y-69048380D02*
X127936666Y-69762666D01*
X127889047Y-69905523D01*
X127793809Y-70000761D01*
X127650952Y-70048380D01*
X127555714Y-70048380D01*
X128889047Y-69048380D02*
X128412857Y-69048380D01*
X128365238Y-69524571D01*
X128412857Y-69476952D01*
X128508095Y-69429333D01*
X128746190Y-69429333D01*
X128841428Y-69476952D01*
X128889047Y-69524571D01*
X128936666Y-69619809D01*
X128936666Y-69857904D01*
X128889047Y-69953142D01*
X128841428Y-70000761D01*
X128746190Y-70048380D01*
X128508095Y-70048380D01*
X128412857Y-70000761D01*
X128365238Y-69953142D01*
%TO.C,J2*%
X144700666Y-85558380D02*
X144700666Y-86272666D01*
X144653047Y-86415523D01*
X144557809Y-86510761D01*
X144414952Y-86558380D01*
X144319714Y-86558380D01*
X145129238Y-85653619D02*
X145176857Y-85606000D01*
X145272095Y-85558380D01*
X145510190Y-85558380D01*
X145605428Y-85606000D01*
X145653047Y-85653619D01*
X145700666Y-85748857D01*
X145700666Y-85844095D01*
X145653047Y-85986952D01*
X145081619Y-86558380D01*
X145700666Y-86558380D01*
%TO.C,J1*%
X127936666Y-53808380D02*
X127936666Y-54522666D01*
X127889047Y-54665523D01*
X127793809Y-54760761D01*
X127650952Y-54808380D01*
X127555714Y-54808380D01*
X128936666Y-54808380D02*
X128365238Y-54808380D01*
X128650952Y-54808380D02*
X128650952Y-53808380D01*
X128555714Y-53951238D01*
X128460476Y-54046476D01*
X128365238Y-54094095D01*
%TO.C,D1*%
X152677904Y-77922380D02*
X152677904Y-76922380D01*
X152916000Y-76922380D01*
X153058857Y-76970000D01*
X153154095Y-77065238D01*
X153201714Y-77160476D01*
X153249333Y-77350952D01*
X153249333Y-77493809D01*
X153201714Y-77684285D01*
X153154095Y-77779523D01*
X153058857Y-77874761D01*
X152916000Y-77922380D01*
X152677904Y-77922380D01*
X154201714Y-77922380D02*
X153630285Y-77922380D01*
X153916000Y-77922380D02*
X153916000Y-76922380D01*
X153820761Y-77065238D01*
X153725523Y-77160476D01*
X153630285Y-77208095D01*
%TO.C,C6*%
X116435142Y-94400666D02*
X116482761Y-94448285D01*
X116530380Y-94591142D01*
X116530380Y-94686380D01*
X116482761Y-94829238D01*
X116387523Y-94924476D01*
X116292285Y-94972095D01*
X116101809Y-95019714D01*
X115958952Y-95019714D01*
X115768476Y-94972095D01*
X115673238Y-94924476D01*
X115578000Y-94829238D01*
X115530380Y-94686380D01*
X115530380Y-94591142D01*
X115578000Y-94448285D01*
X115625619Y-94400666D01*
X115530380Y-93543523D02*
X115530380Y-93734000D01*
X115578000Y-93829238D01*
X115625619Y-93876857D01*
X115768476Y-93972095D01*
X115958952Y-94019714D01*
X116339904Y-94019714D01*
X116435142Y-93972095D01*
X116482761Y-93924476D01*
X116530380Y-93829238D01*
X116530380Y-93638761D01*
X116482761Y-93543523D01*
X116435142Y-93495904D01*
X116339904Y-93448285D01*
X116101809Y-93448285D01*
X116006571Y-93495904D01*
X115958952Y-93543523D01*
X115911333Y-93638761D01*
X115911333Y-93829238D01*
X115958952Y-93924476D01*
X116006571Y-93972095D01*
X116101809Y-94019714D01*
%TO.C,C5*%
X107291142Y-88304666D02*
X107338761Y-88352285D01*
X107386380Y-88495142D01*
X107386380Y-88590380D01*
X107338761Y-88733238D01*
X107243523Y-88828476D01*
X107148285Y-88876095D01*
X106957809Y-88923714D01*
X106814952Y-88923714D01*
X106624476Y-88876095D01*
X106529238Y-88828476D01*
X106434000Y-88733238D01*
X106386380Y-88590380D01*
X106386380Y-88495142D01*
X106434000Y-88352285D01*
X106481619Y-88304666D01*
X106386380Y-87399904D02*
X106386380Y-87876095D01*
X106862571Y-87923714D01*
X106814952Y-87876095D01*
X106767333Y-87780857D01*
X106767333Y-87542761D01*
X106814952Y-87447523D01*
X106862571Y-87399904D01*
X106957809Y-87352285D01*
X107195904Y-87352285D01*
X107291142Y-87399904D01*
X107338761Y-87447523D01*
X107386380Y-87542761D01*
X107386380Y-87780857D01*
X107338761Y-87876095D01*
X107291142Y-87923714D01*
%TO.C,C4*%
X117451142Y-58586666D02*
X117498761Y-58634285D01*
X117546380Y-58777142D01*
X117546380Y-58872380D01*
X117498761Y-59015238D01*
X117403523Y-59110476D01*
X117308285Y-59158095D01*
X117117809Y-59205714D01*
X116974952Y-59205714D01*
X116784476Y-59158095D01*
X116689238Y-59110476D01*
X116594000Y-59015238D01*
X116546380Y-58872380D01*
X116546380Y-58777142D01*
X116594000Y-58634285D01*
X116641619Y-58586666D01*
X116879714Y-57729523D02*
X117546380Y-57729523D01*
X116498761Y-57967619D02*
X117213047Y-58205714D01*
X117213047Y-57586666D01*
%TO.C,C3*%
X117705142Y-82208666D02*
X117752761Y-82256285D01*
X117800380Y-82399142D01*
X117800380Y-82494380D01*
X117752761Y-82637238D01*
X117657523Y-82732476D01*
X117562285Y-82780095D01*
X117371809Y-82827714D01*
X117228952Y-82827714D01*
X117038476Y-82780095D01*
X116943238Y-82732476D01*
X116848000Y-82637238D01*
X116800380Y-82494380D01*
X116800380Y-82399142D01*
X116848000Y-82256285D01*
X116895619Y-82208666D01*
X116800380Y-81875333D02*
X116800380Y-81256285D01*
X117181333Y-81589619D01*
X117181333Y-81446761D01*
X117228952Y-81351523D01*
X117276571Y-81303904D01*
X117371809Y-81256285D01*
X117609904Y-81256285D01*
X117705142Y-81303904D01*
X117752761Y-81351523D01*
X117800380Y-81446761D01*
X117800380Y-81732476D01*
X117752761Y-81827714D01*
X117705142Y-81875333D01*
%TO.C,C2*%
X108561142Y-75858666D02*
X108608761Y-75906285D01*
X108656380Y-76049142D01*
X108656380Y-76144380D01*
X108608761Y-76287238D01*
X108513523Y-76382476D01*
X108418285Y-76430095D01*
X108227809Y-76477714D01*
X108084952Y-76477714D01*
X107894476Y-76430095D01*
X107799238Y-76382476D01*
X107704000Y-76287238D01*
X107656380Y-76144380D01*
X107656380Y-76049142D01*
X107704000Y-75906285D01*
X107751619Y-75858666D01*
X107751619Y-75477714D02*
X107704000Y-75430095D01*
X107656380Y-75334857D01*
X107656380Y-75096761D01*
X107704000Y-75001523D01*
X107751619Y-74953904D01*
X107846857Y-74906285D01*
X107942095Y-74906285D01*
X108084952Y-74953904D01*
X108656380Y-75525333D01*
X108656380Y-74906285D01*
%TO.C,C1*%
X108307142Y-52236666D02*
X108354761Y-52284285D01*
X108402380Y-52427142D01*
X108402380Y-52522380D01*
X108354761Y-52665238D01*
X108259523Y-52760476D01*
X108164285Y-52808095D01*
X107973809Y-52855714D01*
X107830952Y-52855714D01*
X107640476Y-52808095D01*
X107545238Y-52760476D01*
X107450000Y-52665238D01*
X107402380Y-52522380D01*
X107402380Y-52427142D01*
X107450000Y-52284285D01*
X107497619Y-52236666D01*
X108402380Y-51284285D02*
X108402380Y-51855714D01*
X108402380Y-51570000D02*
X107402380Y-51570000D01*
X107545238Y-51665238D01*
X107640476Y-51760476D01*
X107688095Y-51855714D01*
%TD*%
M02*
